<svg width="24" height="24" viewBox="0 0 24 24" fill="none" xmlns="http://www.w3.org/2000/svg">
<path d="M3.94094 3.1753C3.5386 3.26905 3.14016 3.57765 2.94485 3.94093C2.74563 4.31984 2.73781 4.45265 2.74953 6.6753L2.76125 8.71827L2.87063 8.82374C3.02297 8.97999 3.28078 8.97999 3.43313 8.82374L3.5425 8.71827L3.55422 8.05421L3.56594 7.39015H9.79641H16.0269L16.1206 7.2964C16.2964 7.12062 16.2964 6.87843 16.1206 6.70265L16.0269 6.6089H9.7925H3.56203V5.57374C3.56203 4.62843 3.56985 4.52296 3.63625 4.39015C3.7261 4.21437 3.89406 4.0503 4.0425 3.99562C4.12063 3.96437 6.55031 3.95265 11.9995 3.95265C17.4488 3.95265 19.8784 3.96437 19.9566 3.99562C20.1128 4.05421 20.2769 4.21827 20.3628 4.40187C20.4292 4.54249 20.437 4.66749 20.437 5.58155V6.6089H19.0308C17.4644 6.6089 17.4761 6.6089 17.3902 6.86671C17.355 6.96437 17.355 7.03468 17.3902 7.13234C17.4761 7.39015 17.4644 7.39015 19.0308 7.39015H20.437V12.6519C20.437 17.6753 20.4331 17.9253 20.3628 18.0737C20.2769 18.2691 20.0933 18.4292 19.898 18.4839C19.812 18.5073 19.2378 18.523 18.4917 18.523H17.2261L17.1128 18.6362C16.9605 18.7886 16.9527 19.062 17.0933 19.2066C17.2261 19.3394 17.3941 19.3511 18.7613 19.3355C20.1284 19.3159 20.2105 19.3003 20.5816 19.0464C20.8198 18.8823 21.0347 18.6089 21.1558 18.3159L21.2378 18.1128L21.2495 11.3745C21.2573 6.46827 21.2495 4.57374 21.2183 4.40187C21.1011 3.7964 20.6363 3.31202 20.0386 3.1714C19.8238 3.12452 4.15188 3.12452 3.94094 3.1753Z" fill="#2C71C7"/>
<path d="M5.57422 9.39844C5.39844 9.57422 5.39844 9.81641 5.57422 9.99219L5.66797 10.0859H8.91406H12.1641L12.2773 9.97266C12.4297 9.82031 12.4336 9.59766 12.2891 9.42578L12.1875 9.30469H8.92969H5.66797L5.57422 9.39844Z" fill="#2C71C7"/>
<path d="M2.99565 10.082C2.95268 10.1016 2.88237 10.1562 2.8394 10.2031C2.76128 10.2891 2.76128 10.3516 2.74956 14.1016C2.73784 18.3203 2.73003 18.1719 2.99175 18.6016C3.15581 18.8711 3.5269 19.1602 3.82768 19.2539C4.03081 19.3203 4.29643 19.3242 7.148 19.3242H10.2496L10.3667 19.1914C10.4722 19.0742 10.4839 19.0391 10.4644 18.8828C10.4527 18.7773 10.4136 18.6758 10.3628 18.625L10.2769 18.543L7.18315 18.5234C3.88628 18.5039 4.01909 18.5117 3.80425 18.3125C3.56987 18.1016 3.58159 18.3516 3.56206 14.1406L3.54253 10.2812L3.44096 10.1836C3.3355 10.0742 3.12065 10.0273 2.99565 10.082Z" fill="#2C71C7"/>
<path d="M5.58191 12.0781C5.45691 12.1797 5.41003 12.3867 5.47644 12.5508C5.57409 12.7812 5.58581 12.7812 7.40612 12.7812H9.06237L9.17956 12.6836C9.31237 12.5703 9.35144 12.4375 9.29675 12.25C9.22644 11.9922 9.27331 12 7.38659 12C5.73034 12 5.67956 12.0039 5.58191 12.0781Z" fill="#2C71C7"/>
<path d="M11.7617 13.1914C11.707 13.2227 11.6406 13.2969 11.6172 13.3555C11.5781 13.4492 11.2188 19.0977 11.2188 19.5508C11.2188 19.6641 11.2461 19.7305 11.332 19.8164C11.5312 20.0117 11.6562 19.9844 12.5078 19.5586C12.9141 19.3555 13.2578 19.1875 13.2695 19.1875C13.2812 19.1875 13.4648 19.5391 13.6797 19.9687C14.0859 20.7773 14.1562 20.8672 14.3867 20.8672C14.5195 20.8672 16.2578 20.0859 16.3867 19.9687C16.5859 19.793 16.5586 19.668 16.1055 18.7617C15.8867 18.3242 15.7109 17.9648 15.7187 17.957C15.7266 17.9531 16.0664 17.7773 16.4805 17.5703C16.8906 17.3672 17.2656 17.1602 17.3086 17.1094C17.4219 16.9883 17.4219 16.7227 17.3047 16.5937C17.2539 16.5391 16.0664 15.7383 14.6602 14.8164C11.9648 13.0391 12.0039 13.0586 11.7617 13.1914ZM14.2656 15.5391C15.2969 16.2187 16.1406 16.7852 16.1406 16.8008C16.1406 16.8125 15.8477 16.9727 15.4844 17.1562C14.8437 17.4805 14.832 17.4922 14.7734 17.6523L14.7187 17.8164L15.1328 18.6562L15.5469 19.4922L15.2891 19.6094C15.1445 19.6758 14.9258 19.7734 14.8008 19.8281L14.5781 19.9297L14.1914 19.1523C13.7852 18.3477 13.6836 18.2109 13.4805 18.2109C13.418 18.2109 13.0859 18.3516 12.7383 18.5273C12.3906 18.6992 12.0977 18.832 12.0859 18.8203C12.0664 18.7969 12.3086 14.4453 12.3359 14.3516C12.3437 14.3281 12.3594 14.3047 12.3711 14.3047C12.3828 14.3047 13.2383 14.8594 14.2656 15.5391Z" fill="#2C71C7"/>
</svg>
