<svg width="24" height="24" viewBox="0 0 24 24" fill="none" xmlns="http://www.w3.org/2000/svg">
<g clip-path="url(#clip0_9116_292528)">
<path d="M9.16651 3.32812C7.58057 3.58203 6.24854 4.25391 5.09229 5.375C3.2212 7.19141 2.43213 9.83203 2.99854 12.3867C3.32276 13.8438 4.01807 15.082 5.11182 16.1484C5.5962 16.6172 5.70948 16.668 5.95948 16.5508C6.13526 16.4688 6.18995 16.3672 6.18995 16.1523C6.18995 15.9922 6.17432 15.9648 5.66651 15.4453C5.06495 14.8281 4.79541 14.4648 4.46729 13.8359C3.79151 12.5352 3.56495 11.2461 3.76026 9.8125C4.06495 7.61719 5.5376 5.65234 7.56495 4.72656C8.18604 4.44531 8.62745 4.30859 9.34229 4.17969C9.7212 4.11328 10.9439 4.11328 11.3345 4.18359C12.7759 4.43359 13.979 5.04297 14.9673 6.02344C16.0493 7.09375 16.6626 8.29297 16.9048 9.8125C16.9946 10.3789 16.9634 11.5039 16.8423 12.0586C16.5532 13.4023 15.9751 14.4688 15.0064 15.4414C14.0532 16.3984 13.0728 16.9414 11.7056 17.2656L11.2759 17.3672L6.75245 17.3867L2.2251 17.4102L2.11182 17.5391C1.95166 17.7188 1.95166 17.9727 2.11573 18.1367L2.22901 18.2539L6.81104 18.2422L11.3931 18.2305L11.8032 18.1406C14.2251 17.6094 16.1235 16.1055 17.1548 13.8945C17.6196 12.9023 17.8306 11.9258 17.8345 10.7305C17.8384 8.71875 17.0728 6.87891 15.6314 5.4375C14.4868 4.28906 13.0923 3.58203 11.4712 3.32422C10.854 3.22656 9.77979 3.22656 9.16651 3.32812Z" fill="#2C71C7"/>
<path d="M18.8876 14.9531C18.7236 15.0352 18.6298 15.2344 18.665 15.4258C18.6884 15.5547 18.8212 15.707 19.5908 16.4805L20.4931 17.3906H17.8837C14.9853 17.3906 15.079 17.3828 14.9501 17.6484C14.8642 17.8281 14.9072 18.0273 15.0556 18.1523L15.1728 18.25H17.8525H20.5322L19.6298 19.1562C19.1298 19.6562 18.704 20.1172 18.6806 20.1797C18.5712 20.4688 18.7822 20.75 19.1025 20.75H19.2861L20.6415 19.3906L22.0009 18.0352V17.8398V17.6484L20.6454 16.2891C19.1689 14.8164 19.165 14.8125 18.8876 14.9531Z" fill="#2C71C7"/>
</g>
<g clip-path="url(#clip1_9116_292528)">
<path d="M12.9258 8.19134L12.8783 8.17553C12.8789 8.17372 12.8795 8.17186 12.8802 8.16996C12.8883 8.14523 12.8987 8.11371 12.9226 8.08931C12.9499 8.06135 12.988 8.04823 13.0373 8.04044C13.1328 8.02532 13.3103 8.02532 13.6518 8.02532H13.664H14.2469V7.61302C14.2469 7.40675 14.246 7.29167 14.2415 7.22021C14.2371 7.15051 14.2296 7.12746 14.2182 7.10351L14.2182 7.10336C14.1845 7.0314 14.1213 6.9696 14.0666 6.94751L14.0577 6.94666C14.0481 6.94592 14.0341 6.94518 14.0153 6.94444C13.9778 6.94297 13.9231 6.94162 13.8503 6.94039C13.7049 6.93792 13.4885 6.93594 13.1964 6.9344C12.6123 6.93133 11.7261 6.93001 10.5 6.93001C9.27392 6.93001 8.38765 6.93133 7.80354 6.9344C7.51146 6.93594 7.2951 6.93792 7.14965 6.94039C7.07687 6.94162 7.02214 6.94297 6.98465 6.94444C6.96585 6.94518 6.95183 6.94592 6.94222 6.94666L6.93333 6.94752C6.88177 6.96807 6.81669 7.02999 6.78113 7.09945C6.77021 7.12131 6.76284 7.14104 6.7585 7.20926C6.75401 7.27981 6.75311 7.39616 6.75311 7.6095V8.02532H9.50682H12.3123H12.333L12.3476 8.03997L12.3898 8.08216C12.4377 8.13003 12.4638 8.18941 12.4638 8.2511C12.4638 8.3128 12.4377 8.37218 12.3898 8.42005L12.3476 8.46224L12.333 8.47689H12.3123H9.50858H6.75399L6.74959 8.7266L6.74431 9.02542L6.74395 9.04615L6.72903 9.06053L6.68033 9.10749C6.59227 9.19715 6.44481 9.19715 6.35675 9.10749L6.30805 9.06053L6.29288 9.0459L6.29276 9.02483L6.28749 8.10549L6.28749 8.10547C6.28485 7.60644 6.28436 7.33899 6.29596 7.17531C6.3018 7.09289 6.31083 7.03441 6.32499 6.9846C6.33926 6.93442 6.35817 6.89511 6.38112 6.85147L6.38112 6.85147L6.38134 6.85106L6.87362 6.53021L6.86192 6.48159C6.86203 6.48157 6.86215 6.48154 6.86227 6.48151C6.86842 6.48008 6.87568 6.47956 6.87952 6.47928L6.87954 6.47928C6.88509 6.47888 6.89213 6.47852 6.9004 6.47817C6.91702 6.47748 6.9399 6.47683 6.96845 6.4762C7.02563 6.47494 7.10653 6.47378 7.20764 6.47271C7.40991 6.47056 7.69368 6.46877 8.03172 6.46732C8.70783 6.46444 9.60137 6.46296 10.4949 6.46285C11.3885 6.46274 12.2821 6.464 12.9585 6.46661C13.2966 6.46792 13.5805 6.46956 13.7829 6.47153C13.8841 6.47252 13.9651 6.47359 14.0223 6.47475C14.0509 6.47533 14.0738 6.47593 14.0905 6.47657L14.1113 6.47758C14.1153 6.47785 14.1224 6.47833 14.1282 6.4796L14.1282 6.47959L14.129 6.47978C14.4172 6.54759 14.6411 6.78095 14.6975 7.07266L14.6976 7.07321C14.7001 7.08698 14.7018 7.1125 14.7032 7.14659C14.7046 7.18217 14.7059 7.23089 14.707 7.29368C14.7093 7.41933 14.7109 7.60242 14.712 7.85186C14.7142 8.35081 14.7142 9.11603 14.7125 10.2199L14.7072 13.2522L14.7072 13.2618L14.7036 13.2708L14.6667 13.3622L14.6665 13.3626C14.6087 13.5025 14.5062 13.6335 14.3903 13.7134L14.3901 13.7135C14.3039 13.7725 14.2458 13.8073 14.1283 13.8262C14.0169 13.844 13.8494 13.8479 13.5435 13.8523L13.5433 13.8523C13.2367 13.8558 13.0613 13.8563 12.9553 13.8482C12.9022 13.8441 12.8629 13.8377 12.8316 13.8267C12.7984 13.8151 12.7763 13.7991 12.7568 13.7796L12.7563 13.7791C12.7134 13.735 12.6953 13.6738 12.6972 13.6156C12.699 13.5573 12.7212 13.4967 12.7656 13.4523L12.8166 13.4013L12.8312 13.3867H12.8519H13.4215C13.5891 13.3867 13.7371 13.3849 13.8479 13.3818C13.9033 13.3803 13.9491 13.3785 13.9832 13.3764C14.0003 13.3753 14.0141 13.3742 14.0245 13.3731C14.0297 13.3726 14.0338 13.3721 14.0369 13.3716C14.0397 13.3712 14.041 13.3709 14.0411 13.3708C14.114 13.3503 14.1849 13.2889 14.2177 13.2144L14.2177 13.2144L14.2183 13.2131C14.2225 13.2042 14.2278 13.1915 14.2322 13.1388C14.2367 13.0855 14.2398 12.9962 14.242 12.8365C14.2464 12.5179 14.2469 11.9251 14.2469 10.7947V8.47689H13.664H13.6518C13.3103 8.47689 13.1328 8.47689 13.0373 8.46177C12.988 8.45398 12.9499 8.44086 12.9226 8.4129C12.8987 8.3885 12.8883 8.35698 12.8802 8.33225C12.8796 8.33053 12.8791 8.32885 12.8785 8.3272M12.9258 8.19134L12.8787 8.1744C12.8695 8.20005 12.8639 8.22482 12.8639 8.2511C12.8639 8.27718 12.8694 8.30177 12.8785 8.3272M12.9258 8.19134C12.9099 8.23528 12.9099 8.26692 12.9258 8.31087M12.9258 8.19134C12.9341 8.16633 12.9404 8.14671 12.9522 8.13132C12.9952 8.07532 13.1111 8.07532 13.664 8.07532H14.2469L12.9258 8.31087M12.8785 8.3272C12.8786 8.3274 12.8786 8.32761 12.8787 8.32781L12.9258 8.31087M12.8785 8.3272C12.8784 8.32703 12.8784 8.32686 12.8783 8.32668L12.9258 8.31087M14.0806 6.89935C14.151 6.92571 14.2248 6.99954 14.2635 7.08216C14.2933 7.14544 14.2969 7.20169 14.2969 7.61302V8.02532L14.0806 6.89935ZM14.0806 6.89935C14.0455 6.88528 12.9521 6.88001 10.5 6.88001C8.04784 6.88001 6.95448 6.88528 6.91932 6.89935H14.0806ZM14.3619 13.6722C14.4691 13.5984 14.5658 13.4753 14.6203 13.3435L14.6572 13.2521L14.6625 10.2199C14.666 8.01204 14.6625 7.1595 14.6484 7.08216C14.5957 6.8097 14.3865 6.59173 14.1176 6.52845L14.3619 13.6722ZM14.2969 8.42689V8.47689L14.2469 8.42689H14.2969Z" fill="#2C71C7" stroke="#2C71C7" stroke-width="0.1"/>
<path d="M7.62768 9.69063H7.64839H9.10913H10.5716H10.5923L10.607 9.67598L10.658 9.625C10.7463 9.53668 10.7465 9.40702 10.6662 9.31142L7.62768 9.69063ZM7.62768 9.69063L7.61303 9.67598L7.57085 9.63379C7.52297 9.58592 7.49687 9.52654 7.49687 9.46484C7.49687 9.40315 7.52297 9.34377 7.57085 9.29589L7.61303 9.25371L7.62768 9.23906H7.64839H9.11616H10.5822H10.6055L10.6205 9.25693L10.6661 9.31137L7.62768 9.69063Z" fill="#2C71C7" stroke="#2C71C7" stroke-width="0.1"/>
<path d="M6.42864 9.59208L6.42799 9.59237C6.4007 9.60478 6.3638 9.63428 6.34151 9.6586L6.34137 9.65875L6.34137 9.65875C6.33533 9.66539 6.3274 9.67476 6.32089 9.68972C6.315 9.70329 6.31129 9.71907 6.30848 9.73828C6.30295 9.77621 6.29948 9.83908 6.29696 9.95009C6.29192 10.1723 6.29059 10.5983 6.28798 11.4323L6.28794 11.4465L6.28794 11.4465C6.28777 11.5051 6.28761 11.5618 6.28746 11.6167C6.28509 12.4506 6.28389 12.8699 6.29636 13.1013C6.303 13.2246 6.31367 13.299 6.33183 13.3559C6.34794 13.4063 6.36974 13.4417 6.39385 13.4808C6.39726 13.4863 6.40072 13.4919 6.40421 13.4977L6.42864 9.59208ZM6.42864 9.59208C6.46977 9.57409 6.51972 9.57451 6.56314 9.58427C6.60668 9.59406 6.65212 9.61511 6.68435 9.64815L6.72943 9.6915L6.74466 9.70615L6.74477 9.72729L6.75356 11.464L6.75356 11.464C6.75394 11.5456 6.75429 11.6234 6.75463 11.6976C6.7582 12.4873 6.75996 12.875 6.77171 13.075C6.77823 13.186 6.78764 13.2313 6.79791 13.2543C6.80431 13.2686 6.8093 13.2729 6.82425 13.2855C6.82988 13.2903 6.83692 13.2963 6.84599 13.3044L6.846 13.3044L6.84654 13.3049C6.85078 13.3089 6.85452 13.3124 6.85789 13.3156C6.87617 13.3328 6.88354 13.3397 6.90078 13.3466C6.92385 13.3558 6.96467 13.3638 7.05583 13.3695C7.2244 13.38 7.54349 13.3819 8.18848 13.3857C8.23505 13.3859 8.28332 13.3862 8.33335 13.3865L8.33337 13.3865L9.72556 13.3953L9.74541 13.3954L9.75976 13.4091L9.79844 13.4461L9.79845 13.446L9.79927 13.4469C9.83349 13.4811 9.85343 13.5398 9.85931 13.5927L9.80962 13.5982L9.85923 13.592C9.86358 13.6269 9.86623 13.6585 9.85638 13.6894C9.8466 13.7202 9.82629 13.7445 9.80299 13.7704C9.80294 13.7704 9.80289 13.7705 9.80283 13.7706L9.75043 13.83L9.7355 13.8469M6.42864 9.59208L9.7355 13.8469M9.7355 13.8469H9.71294M9.7355 13.8469H9.71294M9.71294 13.8469H8.31723C7.67592 13.8469 7.32457 13.8464 7.1222 13.8423C6.92176 13.8381 6.8616 13.8304 6.80788 13.8129M9.71294 13.8469L6.80788 13.8129M6.81255 13.3416C6.82504 13.3532 6.83492 13.3632 6.84586 13.3719C6.91956 13.4305 7.04122 13.4289 8.33305 13.4365L6.81255 13.3416ZM6.81255 13.3416C6.79828 13.3288 6.78605 13.3197 6.77553 13.309M6.81255 13.3416L6.77553 13.309M6.80788 13.8129C6.73293 13.7894 6.65216 13.7429 6.58118 13.6875C6.51011 13.6321 6.44517 13.565 6.40422 13.4977L6.80788 13.8129ZM6.77553 13.309C6.70825 13.2404 6.71116 13.103 6.70356 11.4643L6.77553 13.309Z" fill="#2C71C7" stroke="#2C71C7" stroke-width="0.1"/>
<path d="M7.58419 10.4964L7.58417 10.4963L7.58546 10.4953C7.60005 10.4843 7.6159 10.474 7.64451 10.467C7.6696 10.4609 7.7041 10.4574 7.75655 10.4551C7.86233 10.4504 8.05585 10.45 8.42782 10.45C8.45492 10.45 8.48115 10.45 8.50654 10.45C8.87642 10.4499 9.06857 10.4499 9.17057 10.4632C9.22449 10.4702 9.26639 10.4821 9.29476 10.5109C9.31901 10.5355 9.32754 10.5684 9.33355 10.5914C9.33423 10.5941 9.33489 10.5966 9.33553 10.599C9.34947 10.647 9.35278 10.6927 9.34087 10.7359C9.32882 10.7796 9.30266 10.8153 9.26711 10.8457L9.26711 10.8457L9.26667 10.846L9.21394 10.89L9.20003 10.9016H9.18193H8.43661L8.42735 10.9016C8.02604 10.9016 7.81799 10.9016 7.70584 10.8883C7.64957 10.8816 7.6079 10.8707 7.57731 10.8478C7.54648 10.8247 7.53336 10.7937 7.52319 10.7697C7.52286 10.7689 7.52254 10.7681 7.52222 10.7674L7.52221 10.7674L7.52191 10.7666C7.48478 10.6749 7.50891 10.5575 7.58419 10.4964Z" fill="#2C71C7" stroke="#2C71C7" stroke-width="0.1"/>
<path d="M10.368 10.9947L10.368 10.9947C10.3495 11.0052 10.3317 11.0212 10.3175 11.0372C10.3034 11.0532 10.2894 11.073 10.2813 11.0933M10.368 10.9947L11.0868 13.7837C11.087 13.7837 11.087 13.7837 11.0868 13.7837M10.368 10.9947L10.3687 10.9942C10.3704 10.9933 10.3722 10.9923 10.3739 10.9914C10.3986 10.9777 10.4301 10.9602 10.477 10.9649C10.5211 10.9693 10.5753 10.9928 10.6554 11.0378C10.8112 11.1252 11.0933 11.3113 11.6469 11.6763C11.6722 11.693 11.6981 11.7101 11.7245 11.7276M10.368 10.9947L12.9261 12.8346M10.2813 11.0933L10.3277 11.1119M10.2813 11.0933C10.2814 11.0931 10.2815 11.0929 10.2816 11.0927L10.3277 11.1119M10.2813 11.0933C10.279 11.0991 10.278 11.1047 10.2777 11.1064L10.2776 11.1066L10.2761 11.1163C10.2752 11.1232 10.2742 11.1322 10.2731 11.1428C10.2709 11.1643 10.2682 11.1943 10.2652 11.2313C10.259 11.3056 10.2513 11.4093 10.2424 11.5331C10.2248 11.7807 10.2029 12.1089 10.1816 12.442C10.1391 13.1069 10.0984 13.7958 10.0984 13.8998C10.0984 13.9294 10.102 13.9568 10.1134 13.9837C10.1247 14.0104 10.1421 14.0328 10.1641 14.0547L10.1644 14.055L10.1644 14.055C10.1886 14.0788 10.2153 14.1007 10.2498 14.1125C10.2849 14.1246 10.3222 14.1243 10.3646 14.115C10.4453 14.0973 10.5615 14.0427 10.7509 13.948C10.8422 13.9024 10.9264 13.8607 10.9884 13.8305C11.0135 13.8182 11.0348 13.8079 11.0515 13.8M10.3277 11.1119C10.3383 11.0855 10.3682 11.0521 10.3928 11.0381C10.407 11.0303 10.4191 11.0233 10.432 11.019C10.5182 10.9898 10.6426 11.074 11.6971 11.7693M10.3277 11.1119L12.8889 12.8012M11.0515 13.8C11.0492 13.7958 11.0471 13.792 11.0451 13.7885C11.0402 13.7798 11.0367 13.7737 11.0344 13.7701C11.0336 13.7687 11.0332 13.7682 11.0332 13.7682C11.0332 13.7682 11.0333 13.7683 11.0334 13.7684L11.0334 13.7685C11.0336 13.7687 11.0349 13.7705 11.0372 13.7726C11.0383 13.7737 11.0408 13.7761 11.0446 13.7786C11.0473 13.7803 11.0571 13.7863 11.0713 13.7863C11.077 13.7863 11.0814 13.7853 11.0824 13.7851L11.0825 13.785L11.0857 13.7841C11.0862 13.784 11.0867 13.7838 11.0868 13.7837M11.0515 13.8C11.0604 13.8163 11.0718 13.8375 11.085 13.8628C11.1182 13.9262 11.1629 14.0137 11.2111 14.1103L11.2112 14.1103C11.3016 14.2904 11.3577 14.3969 11.4053 14.4574C11.43 14.4888 11.4552 14.5116 11.4852 14.5255C11.5152 14.5395 11.5451 14.5422 11.574 14.5422C11.5857 14.5422 11.5987 14.5387 11.6071 14.5363C11.6176 14.5333 11.6302 14.5291 11.6443 14.5241C11.6725 14.514 11.709 14.4997 11.7506 14.4827C11.834 14.4486 11.9397 14.4028 12.0452 14.3554C12.1506 14.308 12.2563 14.2589 12.3393 14.2182C12.3808 14.1979 12.417 14.1795 12.445 14.1644C12.4589 14.1568 12.4712 14.1499 12.4811 14.1438C12.4901 14.1382 12.5 14.1318 12.5074 14.1251M11.0515 13.8C11.0554 13.7981 11.0591 13.7964 11.0625 13.7948L11.0827 13.7855L11.0868 13.7837M11.0868 13.7837L12.5074 14.1251M12.5074 14.1251C12.5317 14.1036 12.5552 14.0786 12.5677 14.0441C12.5805 14.0089 12.5794 13.9711 12.5695 13.9283C12.5505 13.8462 12.493 13.724 12.3922 13.5224C12.343 13.424 12.2987 13.3346 12.2672 13.2694C12.2551 13.2442 12.2449 13.2229 12.2371 13.2061M12.5074 14.1251C12.5075 14.1251 12.5076 14.125 12.5077 14.1249L12.474 14.0879C12.5637 14.0088 12.5514 13.9525 12.3475 13.5447C12.249 13.3479 12.1699 13.1861 12.1734 13.1826M12.2371 13.2061C12.2226 13.2136 12.2115 13.2193 12.2044 13.2229C12.1993 13.2256 12.1963 13.2271 12.1958 13.2273L12.1734 13.1826M12.2371 13.2061C12.2348 13.2011 12.2327 13.1966 12.2309 13.1924C12.2267 13.1832 12.224 13.1768 12.2224 13.1728C12.2219 13.1714 12.2216 13.1708 12.2216 13.1708C12.2216 13.1708 12.2217 13.171 12.2218 13.1713L12.2218 13.1713C12.2219 13.1716 12.2226 13.174 12.223 13.1775C12.2232 13.1791 12.2236 13.1832 12.223 13.1885C12.2226 13.1923 12.2207 13.206 12.2088 13.218L12.1734 13.1826M12.2371 13.2061C12.2537 13.1976 12.2747 13.1868 12.299 13.1744C12.3609 13.1428 12.4456 13.0998 12.5386 13.0533L12.5162 13.0086M12.1734 13.1826C12.1739 13.1824 12.1765 13.1811 12.181 13.1787C12.2144 13.1615 12.3524 13.0905 12.5162 13.0086M12.5162 13.0086L12.5384 13.0534C12.6312 13.0074 12.7203 12.9609 12.7888 12.9229C12.823 12.9039 12.8525 12.8868 12.8749 12.8728C12.8861 12.8658 12.896 12.8593 12.9041 12.8535C12.9106 12.8488 12.9194 12.8421 12.9261 12.8346M12.5162 13.0086L12.9261 12.8346M12.8889 12.8012C12.9398 12.7467 12.9398 12.6271 12.8871 12.5691C12.8643 12.5445 12.3299 12.1842 11.6971 11.7693M12.8889 12.8012L12.927 12.8335C12.9267 12.8338 12.9264 12.8342 12.9261 12.8346M12.8889 12.8012L12.9254 12.8353C12.9256 12.8351 12.9258 12.8348 12.9261 12.8346M11.6971 11.7693L11.7245 11.7275C11.7245 11.7275 11.7245 11.7275 11.7245 11.7276M11.6971 11.7693L11.7246 11.7276C11.7246 11.7276 11.7246 11.7276 11.7245 11.7276M11.7245 11.7276C12.0411 11.9351 12.333 12.129 12.5487 12.2741C12.6566 12.3467 12.7455 12.4071 12.809 12.451C12.8407 12.4729 12.8662 12.4909 12.8846 12.5042C12.8938 12.5108 12.9015 12.5165 12.9074 12.521C12.912 12.5245 12.9189 12.5299 12.9237 12.5351L12.9241 12.5355C12.9612 12.5763 12.9766 12.6341 12.9769 12.6862C12.9771 12.7377 12.9626 12.795 12.9261 12.8346M11.4919 12.1362L11.492 12.1363C11.724 12.2892 11.9348 12.4293 12.0875 12.532C12.1639 12.5833 12.2257 12.6253 12.2682 12.6547C12.27 12.6559 12.2717 12.6571 12.2733 12.6583C12.267 12.6618 12.2602 12.6655 12.2531 12.6693C12.2002 12.6981 12.1268 12.7365 12.0454 12.7776L12.0454 12.7777C11.9031 12.8497 11.8254 12.8895 11.781 12.9207C11.7576 12.9372 11.7403 12.9533 11.7272 12.9728C11.7146 12.9914 11.7075 13.0108 11.7011 13.0282L11.7011 13.0283L11.7006 13.0297L11.7006 13.0297L11.676 13.1035L11.6695 13.123L11.6786 13.1414L11.8649 13.5194L11.865 13.5195L12.0283 13.8493L11.9594 13.8807L11.9592 13.8807C11.8945 13.9105 11.7963 13.9543 11.7403 13.9788L11.7396 13.9791L11.7396 13.9791L11.6834 14.0048L11.5309 13.6982L11.5308 13.698C11.44 13.5181 11.3808 13.4078 11.3318 13.3428C11.3069 13.3097 11.2821 13.2849 11.2539 13.2687C11.2245 13.2519 11.1954 13.2469 11.1662 13.2469C11.1557 13.2469 11.1449 13.2494 11.1373 13.2514C11.1285 13.2538 11.1185 13.257 11.1076 13.2608C11.0858 13.2685 11.0585 13.2793 11.0278 13.2924C10.9662 13.3186 10.8888 13.3546 10.8099 13.3945M11.4919 12.1362L10.8322 13.4393M11.4919 12.1362C11.2609 11.9834 11.0492 11.8446 10.8946 11.744C10.8173 11.6937 10.7544 11.653 10.7105 11.625C10.7053 11.6217 10.7004 11.6185 10.6958 11.6156M11.4919 12.1362L10.6512 11.5602M10.8099 13.3945C10.8098 13.3946 10.8097 13.3946 10.8097 13.3946L10.8322 13.4393M10.8099 13.3945C10.8099 13.3945 10.81 13.3945 10.8101 13.3944L10.8322 13.4393M10.8099 13.3945C10.7321 13.433 10.6606 13.467 10.6082 13.4906C10.6018 13.4935 10.5957 13.4962 10.5899 13.4987M10.8322 13.4393C10.7318 13.4889 10.6415 13.5313 10.5883 13.5539L10.5883 13.5483C10.5886 13.5363 10.5891 13.5196 10.5899 13.4987M10.5899 13.4987C10.5721 13.5066 10.5574 13.5128 10.5466 13.517C10.5437 13.5182 10.5412 13.5191 10.5391 13.5198C10.5391 13.5204 10.5391 13.5209 10.5391 13.5214M10.5899 13.4987C10.5901 13.4945 10.5903 13.49 10.5904 13.4854C10.5926 13.431 10.5962 13.3536 10.6008 13.2608C10.6099 13.0753 10.6231 12.8283 10.6369 12.5803C10.6508 12.3323 10.6653 12.0833 10.6771 11.8938C10.683 11.799 10.6882 11.7192 10.6923 11.6618C10.6936 11.6441 10.6947 11.6287 10.6958 11.6156M10.5391 13.5214C10.5406 13.5214 10.5423 13.5214 10.5443 13.5216C10.5474 13.5219 10.5616 13.5234 10.574 13.5357L10.5387 13.5711L10.5771 13.5391C10.5825 13.5456 10.585 13.5521 10.586 13.5549L10.5391 13.5214ZM10.5391 13.5214L10.6481 11.5857L10.6598 11.5928C10.6687 11.5984 10.6808 11.606 10.6958 11.6156M10.6958 11.6156C10.6964 11.6074 10.697 11.6002 10.6976 11.594L10.6994 11.5753C10.6998 11.5722 10.7 11.571 10.7 11.571C10.7 11.571 10.6997 11.5723 10.6992 11.5742L10.667 11.5648L10.6512 11.5602M10.6512 11.5602L10.667 11.5654L10.6982 11.5758C10.6975 11.5768 10.696 11.5783 10.6938 11.5801C10.6913 11.5821 10.6819 11.5891 10.667 11.5891C10.6582 11.5891 10.6515 11.5866 10.6508 11.5864L10.6508 11.5863L10.6482 11.5853L10.6512 11.5602ZM10.6512 11.5602C10.6547 11.5496 10.6617 11.5391 10.667 11.5391C10.6723 11.5391 11.0572 11.7887 11.5195 12.0945C11.8923 12.3402 12.2105 12.553 12.3214 12.6308L10.6512 11.5602ZM12.3234 12.6323C12.3493 12.6505 12.3633 12.661 12.3633 12.6623C12.3633 12.6641 12.3479 12.6737 12.321 12.6889C12.3205 12.688 12.3199 12.687 12.3193 12.686C12.318 12.6836 12.3133 12.6747 12.3133 12.6623C12.3133 12.6502 12.3177 12.6415 12.3195 12.6383C12.3209 12.6358 12.3223 12.6338 12.3234 12.6323ZM12.3186 12.6903C12.2665 12.7197 12.1739 12.7688 12.068 12.8223C11.7797 12.9682 11.7744 12.9734 11.748 13.0455L11.7234 13.1193L11.9098 13.4973L12.0739 13.8286L12.3186 12.6903ZM12.0506 13.8941L11.9801 13.9262C11.915 13.9561 11.8166 14 11.7604 14.0246L11.6602 14.0703L12.0506 13.8941Z" fill="#2C71C7" stroke="#2C71C7" stroke-width="0.1"/>
</g>
<defs>
<clipPath id="clip0_9116_292528">
<rect width="20" height="20" fill="white" transform="translate(2 2)"/>
</clipPath>
<clipPath id="clip1_9116_292528">
<rect width="9" height="9" fill="white" transform="translate(6 6)"/>
</clipPath>
</defs>
</svg>
