<svg width="24" height="24" viewBox="0 0 24 24" fill="none" xmlns="http://www.w3.org/2000/svg">
<path d="M2.47505 12.3026V11.8232C2.83513 11.8232 3.08655 11.7496 3.22931 11.6026C3.37206 11.4535 3.44344 11.2074 3.44344 10.8643V9.94709C3.44344 9.62109 3.47966 9.3473 3.55211 9.12571C3.62668 8.90199 3.73961 8.72301 3.89088 8.58878C4.04216 8.45455 4.23392 8.3576 4.46617 8.29794C4.69841 8.23828 4.97221 8.20845 5.28755 8.20845V8.96591C5.04039 8.96591 4.84756 9.00213 4.70907 9.07457C4.57057 9.14702 4.47363 9.25994 4.41823 9.41335C4.36496 9.56463 4.33833 9.75852 4.33833 9.99503V11.1584C4.33833 11.3224 4.31382 11.4748 4.26482 11.6154C4.21581 11.7539 4.12526 11.8743 3.99316 11.9766C3.86105 12.0788 3.67249 12.1587 3.42746 12.2163C3.18243 12.2738 2.86496 12.3026 2.47505 12.3026ZM5.28755 16.3615C4.97221 16.3615 4.69841 16.3317 4.46617 16.272C4.23392 16.2124 4.04216 16.1154 3.89088 15.9812C3.73961 15.8469 3.62668 15.668 3.55211 15.4442C3.47966 15.2227 3.44344 14.9489 3.44344 14.6229V13.7024C3.44344 13.3615 3.37206 13.1165 3.22931 12.9673C3.08655 12.8182 2.83513 12.7436 2.47505 12.7436V12.2674C2.86496 12.2674 3.18243 12.2962 3.42746 12.3537C3.67249 12.4091 3.86105 12.489 3.99316 12.5934C4.12526 12.6957 4.21581 12.8171 4.26482 12.9577C4.31382 13.0962 4.33833 13.2475 4.33833 13.4116V14.5749C4.33833 14.8093 4.36496 15.0021 4.41823 15.1534C4.47363 15.3068 4.57057 15.4197 4.70907 15.4922C4.84756 15.5668 5.04039 15.604 5.28755 15.604V16.3615ZM2.47505 12.7436V11.8232H3.36034V12.7436H2.47505Z" fill="#2C71C7"/>
<path d="M9 12.6714C9 12.9112 9.1279 13.1329 9.33563 13.2528C9.54335 13.3728 9.79927 13.3728 10.007 13.2528C10.2147 13.1329 10.3428 12.9112 10.3428 12.6714C10.3428 12.4315 10.2147 12.2099 10.007 12.09C9.79929 11.97 9.54336 11.97 9.33563 12.09C9.1279 12.2099 9 12.4315 9 12.6714Z" fill="#2C71C7"/>
<path d="M11.3418 12.6714C11.3418 12.9112 11.4697 13.1329 11.6774 13.2528C11.8851 13.3728 12.1411 13.3728 12.3488 13.2528C12.5565 13.1329 12.6846 12.9112 12.6846 12.6714C12.6846 12.4315 12.5565 12.2099 12.3488 12.09C12.1411 11.97 11.8852 11.97 11.6774 12.09C11.4697 12.2099 11.3418 12.4315 11.3418 12.6714Z" fill="#2C71C7"/>
<path d="M13.6855 12.6714C13.6855 12.9112 13.8134 13.1329 14.0212 13.2528C14.2289 13.3728 14.4848 13.3728 14.6926 13.2528C14.9003 13.1329 15.0283 12.9112 15.0283 12.6714C15.0283 12.4315 14.9003 12.2099 14.6926 12.09C14.4848 11.97 14.2289 11.97 14.0212 12.09C13.8134 12.2099 13.6855 12.4315 13.6855 12.6714Z" fill="#2C71C7"/>
<path d="M21.5246 12.2674V12.7436C21.1645 12.7436 20.9131 12.8182 20.7703 12.9673C20.6276 13.1165 20.5562 13.3615 20.5562 13.7024V14.6229C20.5562 14.9489 20.5189 15.2227 20.4443 15.4442C20.3719 15.668 20.26 15.8469 20.1087 15.9812C19.9575 16.1154 19.7657 16.2124 19.5335 16.272C19.3012 16.3317 19.0274 16.3615 18.7121 16.3615V15.604C18.9592 15.604 19.1521 15.5668 19.2906 15.4922C19.4291 15.4197 19.5249 15.3068 19.5782 15.1534C19.6336 15.0021 19.6613 14.8093 19.6613 14.5749V13.4116C19.6613 13.2475 19.6858 13.0962 19.7348 12.9577C19.7838 12.8171 19.8744 12.6957 20.0065 12.5934C20.1386 12.489 20.3271 12.4091 20.5722 12.3537C20.8172 12.2962 21.1347 12.2674 21.5246 12.2674ZM18.7121 8.20845C19.0274 8.20845 19.3012 8.23828 19.5335 8.29794C19.7657 8.3576 19.9575 8.45455 20.1087 8.58878C20.26 8.72301 20.3719 8.90199 20.4443 9.12571C20.5189 9.3473 20.5562 9.62109 20.5562 9.94709V10.8643C20.5562 11.2074 20.6276 11.4535 20.7703 11.6026C20.9131 11.7496 21.1645 11.8232 21.5246 11.8232V12.3026C21.1347 12.3026 20.8172 12.2738 20.5722 12.2163C20.3271 12.1587 20.1386 12.0788 20.0065 11.9766C19.8744 11.8743 19.7838 11.7539 19.7348 11.6154C19.6858 11.4748 19.6613 11.3224 19.6613 11.1584V9.99503C19.6613 9.75852 19.6336 9.56463 19.5782 9.41335C19.5249 9.25994 19.4291 9.14702 19.2906 9.07457C19.1521 9.00213 18.9592 8.96591 18.7121 8.96591V8.20845ZM21.5246 11.8232V12.7436H20.6393V11.8232H21.5246Z" fill="#2C71C7"/>
</svg>
