<svg width="24" height="24" viewBox="0 0 24 24" fill="none" xmlns="http://www.w3.org/2000/svg">
<g clip-path="url(#clip0_9116_292543)">
<path d="M9.16651 3.32812C7.58057 3.58203 6.24854 4.25391 5.09229 5.375C3.2212 7.19141 2.43213 9.83203 2.99854 12.3867C3.32276 13.8438 4.01807 15.082 5.11182 16.1484C5.5962 16.6172 5.70948 16.668 5.95948 16.5508C6.13526 16.4688 6.18995 16.3672 6.18995 16.1523C6.18995 15.9922 6.17432 15.9648 5.66651 15.4453C5.06495 14.8281 4.79541 14.4648 4.46729 13.8359C3.79151 12.5352 3.56495 11.2461 3.76026 9.8125C4.06495 7.61719 5.5376 5.65234 7.56495 4.72656C8.18604 4.44531 8.62745 4.30859 9.34229 4.17969C9.7212 4.11328 10.9439 4.11328 11.3345 4.18359C12.7759 4.43359 13.979 5.04297 14.9673 6.02344C16.0493 7.09375 16.6626 8.29297 16.9048 9.8125C16.9946 10.3789 16.9634 11.5039 16.8423 12.0586C16.5532 13.4023 15.9751 14.4688 15.0064 15.4414C14.0532 16.3984 13.0728 16.9414 11.7056 17.2656L11.2759 17.3672L6.75245 17.3867L2.2251 17.4102L2.11182 17.5391C1.95166 17.7188 1.95166 17.9727 2.11573 18.1367L2.22901 18.2539L6.81104 18.2422L11.3931 18.2305L11.8032 18.1406C14.2251 17.6094 16.1235 16.1055 17.1548 13.8945C17.6196 12.9023 17.8306 11.9258 17.8345 10.7305C17.8384 8.71875 17.0728 6.87891 15.6314 5.4375C14.4868 4.28906 13.0923 3.58203 11.4712 3.32422C10.854 3.22656 9.77979 3.22656 9.16651 3.32812Z" fill="#2C71C7"/>
<path d="M18.8876 14.9531C18.7236 15.0352 18.6298 15.2344 18.665 15.4258C18.6884 15.5547 18.8212 15.707 19.5908 16.4805L20.4931 17.3906H17.8837C14.9853 17.3906 15.079 17.3828 14.9501 17.6484C14.8642 17.8281 14.9072 18.0273 15.0556 18.1523L15.1728 18.25H17.8525H20.5322L19.6298 19.1562C19.1298 19.6562 18.704 20.1172 18.6806 20.1797C18.5712 20.4688 18.7822 20.75 19.1025 20.75H19.2861L20.6415 19.3906L22.0009 18.0352V17.8398V17.6484L20.6454 16.2891C19.1689 14.8164 19.165 14.8125 18.8876 14.9531Z" fill="#2C71C7"/>
</g>
<g clip-path="url(#clip1_9116_292543)">
<path d="M9.17289 8.0095C9.13459 7.95502 9.13136 7.88001 9.14454 7.81835C9.1576 7.7572 9.19094 7.69031 9.24793 7.65922L9.24792 7.6592L9.24951 7.6584C9.25629 7.65501 9.26302 7.65332 9.26676 7.65246C9.2713 7.65141 9.27619 7.65057 9.28107 7.64986C9.29087 7.64843 9.30307 7.64719 9.3171 7.64608C9.34529 7.64385 9.38351 7.64195 9.43018 7.6404C9.52367 7.6373 9.65303 7.63554 9.80801 7.63554H10.2607V7.19335C10.2607 6.93483 10.2624 6.78829 10.2742 6.70127C10.2801 6.65733 10.2892 6.62296 10.3056 6.59549C10.3229 6.56653 10.3454 6.54998 10.3678 6.5369M9.17289 8.0095C9.18867 8.03224 9.20655 8.05546 9.23478 8.07357C9.26282 8.09154 9.29668 8.10175 9.34051 8.10831C9.42602 8.12109 9.56922 8.12226 9.82734 8.12226H10.2607V8.57499V9.07773V9.09895L10.276 9.1137L10.3267 9.16262C10.3942 9.23 10.4744 9.25946 10.5613 9.23888L10.5627 9.23856L10.5627 9.23854C10.5835 9.23298 10.6059 9.2208 10.625 9.20826C10.6447 9.19528 10.6649 9.17924 10.6815 9.16262L10.7322 9.1137L10.7475 9.09895V9.07773V8.57499V8.12226H11.1809C11.439 8.12226 11.5822 8.12109 11.6677 8.10831C11.7115 8.10175 11.7454 8.09154 11.7734 8.07357C11.8017 8.05542 11.8196 8.03214 11.8354 8.00936C11.8736 7.95488 11.8768 7.87995 11.8637 7.81835C11.8506 7.7572 11.8173 7.69031 11.7603 7.65922L11.7587 7.65837L11.7587 7.6584C11.7519 7.65501 11.7452 7.65332 11.7414 7.65246C11.7369 7.65141 11.732 7.65057 11.7271 7.64986C11.7173 7.64843 11.7051 7.64719 11.6911 7.64608C11.6629 7.64385 11.6247 7.64195 11.578 7.6404C11.4845 7.6373 11.3552 7.63554 11.2002 7.63554H10.7475V7.19335C10.7475 6.93317 10.7458 6.786 10.7336 6.69882C10.7274 6.65471 10.7178 6.62016 10.7005 6.59259C10.6823 6.56352 10.6587 6.54726 10.6356 6.53441L10.6344 6.53374L10.6344 6.53376C10.6159 6.52416 10.5927 6.5189 10.5717 6.51582C10.5494 6.51257 10.5248 6.51108 10.5008 6.5112C10.4768 6.51132 10.4522 6.51305 10.4302 6.51667C10.4098 6.52002 10.3863 6.5258 10.3678 6.5369M9.17289 8.0095C9.17286 8.00945 9.17282 8.00941 9.17279 8.00936L9.21387 7.98085L9.17299 8.00965C9.17296 8.0096 9.17292 8.00955 9.17289 8.0095ZM10.3678 6.5369C10.3676 6.53699 10.3675 6.53708 10.3674 6.53717L10.3934 6.57988L10.3682 6.53665C10.3681 6.53673 10.3679 6.53682 10.3678 6.5369Z" fill="#2C71C7" stroke="#2C71C7" stroke-width="0.1"/>
<path d="M11.3891 13.0451L11.3891 13.0454C11.36 13.6789 11.7302 14.2268 12.3248 14.4257C12.39 14.448 12.4349 14.4612 12.4962 14.4682C12.5556 14.475 12.6299 14.4758 12.7539 14.4758C12.8779 14.4758 12.9522 14.475 13.0116 14.4682C13.0729 14.4612 13.1178 14.448 13.183 14.4257C13.553 14.3017 13.8791 14.0016 14.0219 13.6501L14.0219 13.65C14.1405 13.3563 14.1535 12.9836 14.0528 12.6922M11.3891 13.0451L14.0527 12.6921C14.0527 12.6921 14.0527 12.6922 14.0528 12.6922M11.3891 13.0451C11.4074 12.691 11.5273 12.4282 11.7955 12.1599L11.3891 13.0451ZM14.0528 12.6922C14.0151 12.5809 13.9766 12.4938 13.9234 12.4109C13.8704 12.3282 13.8039 12.2515 13.7122 12.1598M14.0528 12.6922L13.7122 12.1598M13.7122 12.1598C13.6452 12.092 13.5973 12.0466 13.5472 12.0095C13.4967 11.972 13.4455 11.944 13.3732 11.9092L13.3732 11.9092C13.282 11.8654 13.1582 11.8156 13.0985 11.8035L13.0246 11.7863L13.0059 11.7818C13.0045 11.7724 13.0032 11.759 13.002 11.7404C12.9986 11.6871 12.9973 11.6011 12.9973 11.4691C12.9973 11.2169 12.9861 11.0473 12.9429 10.9105C12.8988 10.771 12.8228 10.6693 12.7031 10.5496L12.7029 10.5494C12.5549 10.4032 12.4383 10.3333 12.2461 10.2834M13.7122 12.1598L8.76717 10.3336L8.75407 10.2853C8.76872 10.2814 8.7949 10.2789 8.82454 10.2769C8.85643 10.2747 8.89852 10.2727 8.94912 10.2709C9.0504 10.2672 9.18714 10.2641 9.34732 10.2616C9.66777 10.2566 10.083 10.2539 10.4984 10.2537C10.9137 10.2535 11.3293 10.2557 11.6504 10.2604C11.8109 10.2627 11.9481 10.2657 12.0498 10.2693C12.1007 10.2711 12.143 10.273 12.1752 10.2752C12.2052 10.2772 12.2314 10.2796 12.2461 10.2834M13.7122 12.1598C13.7122 12.1598 13.7121 12.1598 13.7121 12.1598L13.6767 12.1951L13.7123 12.16C13.7123 12.1599 13.7122 12.1599 13.7122 12.1598ZM12.2461 10.2834L12.2336 10.3318L12.2462 10.2835C12.2462 10.2835 12.2462 10.2835 12.2461 10.2834ZM8.53636 13.9602L8.53622 13.9602C8.36547 14.0199 8.14504 14.0214 7.97849 13.9637L8.53636 13.9602ZM8.53636 13.9602C8.96423 13.812 9.21054 13.3779 9.11727 12.9314M8.53636 13.9602L9.11727 12.9314M13.0364 13.9602L13.0362 13.9602C12.8655 14.0199 12.645 14.0214 12.4785 13.9637L13.0364 13.9602ZM13.0364 13.9602C13.4643 13.812 13.7106 13.3779 13.6173 12.9313M13.0364 13.9602L13.6173 12.9313M8.46835 11.8242C8.44901 11.8189 8.44549 11.7486 8.45077 11.4691C8.4578 11.0613 8.47538 10.9998 8.63007 10.8539L8.46835 11.8242ZM8.46835 11.8242C8.47699 11.8267 8.50643 11.8335 8.54146 11.8416C8.55632 11.845 8.57218 11.8487 8.58788 11.8523L8.46835 11.8242ZM9.11727 12.9314C9.05107 12.6187 8.77436 12.3379 8.45161 12.2614C8.14799 12.19 7.83732 12.2858 7.61528 12.5194C7.44813 12.6984 7.37225 12.8883 7.37225 13.132C7.37225 13.5053 7.61278 13.8368 7.97847 13.9637L9.11727 12.9314ZM13.6173 12.9313C13.551 12.6187 13.2743 12.3379 12.9516 12.2614M13.6173 12.9313L12.9516 12.2614M12.9516 12.2614C12.648 12.19 12.3373 12.2858 12.1153 12.5195C11.9481 12.6984 11.8723 12.8883 11.8723 13.132C11.8723 13.5053 12.1128 13.8368 12.4785 13.9637L12.9516 12.2614ZM7.63455 11.9092L7.63457 11.9092L12.4199 11.8523L12.4085 11.8037C12.4088 11.8036 12.409 11.8035 12.4093 11.8035C12.4262 11.7995 12.4429 11.7957 12.4581 11.7922C12.4764 11.7879 12.4926 11.7842 12.5048 11.7813C12.5058 11.7734 12.5068 11.7624 12.5075 11.747C12.5101 11.6959 12.5097 11.6102 12.507 11.4701L12.507 11.47C12.5035 11.2643 12.4971 11.1542 12.4747 11.0773C12.4539 11.0055 12.4186 10.9612 12.3434 10.8903L12.3433 10.8902C12.33 10.8776 12.3192 10.8668 12.3098 10.8575C12.2848 10.8327 12.2699 10.818 12.246 10.805C12.2149 10.7882 12.1665 10.7748 12.059 10.766C11.8698 10.7505 11.5207 10.7506 10.8157 10.7509C10.7187 10.7509 10.6149 10.751 10.5039 10.751C10.3929 10.751 10.2891 10.7509 10.1921 10.7509C9.48707 10.7506 9.13803 10.7505 8.94878 10.766C8.84125 10.7748 8.79284 10.7882 8.76175 10.805C8.73784 10.818 8.72294 10.8327 8.69797 10.8575C8.68858 10.8668 8.67775 10.8776 8.66448 10.8902L8.66437 10.8903C8.58922 10.9612 8.55393 11.0055 8.53306 11.0773C8.51068 11.1542 8.50431 11.2643 8.50076 11.47L8.50076 11.4701C8.49812 11.6102 8.49773 11.6959 8.50027 11.747C8.50103 11.7624 8.50201 11.7734 8.50303 11.7813C8.5152 11.7842 8.5314 11.7879 8.54964 11.7922C8.56489 11.7957 8.58157 11.7995 8.59851 11.8035C8.65827 11.8157 8.782 11.8654 8.87321 11.9092L8.87324 11.9092C8.94551 11.944 8.99669 11.972 9.04723 12.0095C9.09731 12.0466 9.14527 12.0921 9.21222 12.1599C9.3039 12.2516 9.37036 12.3282 9.4234 12.4109C9.47658 12.4938 9.51505 12.5809 9.55276 12.6922C9.6535 12.9836 9.64049 13.3563 9.52194 13.65L9.5219 13.6501C9.37908 14.0016 9.05302 14.3017 8.68302 14.4257C8.61776 14.448 8.5729 14.4612 8.51157 14.4682C8.45216 14.475 8.3779 14.4758 8.25389 14.4758C8.12989 14.4758 8.05563 14.475 7.99622 14.4682C7.93489 14.4612 7.89004 14.448 7.82478 14.4257C7.23018 14.2268 6.85998 13.6789 6.8891 13.0454L6.88912 13.0451C6.90737 12.691 7.02734 12.4282 7.29556 12.1599C7.36252 12.0921 7.41048 12.0466 7.46055 12.0095C7.5111 11.972 7.56228 11.944 7.63455 11.9092ZM12.557 11.4691C12.5623 11.7486 12.5588 11.8189 12.5394 11.8242L12.3777 10.8539C12.5324 10.9998 12.55 11.0613 12.557 11.4691ZM8.03853 11.0065C8.03853 11.0065 8.03853 11.0065 8.03853 11.0065L8.0869 11.0191L8.03853 11.0065ZM8.00237 11.7819C8.01383 11.7792 8.0221 11.7772 8.0257 11.7761L8.03944 11.8242L8.02363 11.7768C8.00672 11.7824 8.00055 11.7951 8.00003 11.7962L8.00001 11.7962C7.99963 11.797 7.99946 11.7975 7.99945 11.7975C7.99944 11.7975 7.99986 11.7963 8.00048 11.7933C8.00111 11.7903 8.00174 11.7865 8.00237 11.7819ZM7.90928 11.8035C7.90955 11.8034 7.90983 11.8034 7.9101 11.8033L7.91991 11.8523L7.90855 11.8037C7.90879 11.8036 7.90903 11.8035 7.90928 11.8035Z" fill="#2C71C7" stroke="#2C71C7" stroke-width="0.1"/>
</g>
<defs>
<clipPath id="clip0_9116_292543">
<rect width="20" height="20" fill="white" transform="translate(2 2)"/>
</clipPath>
<clipPath id="clip1_9116_292543">
<rect width="9" height="9" fill="white" transform="translate(6 6)"/>
</clipPath>
</defs>
</svg>
