<svg width="24" height="24" viewBox="0 0 24 24" fill="none" xmlns="http://www.w3.org/2000/svg">
<path d="M11.7039 1.55138C11.5023 1.66857 11.4836 1.79982 11.4836 3.18732V4.49982H10.143C9.31797 4.49982 8.76953 4.51857 8.71328 4.54669C8.50703 4.65919 8.41328 5.08107 8.55859 5.28732C8.71797 5.51701 8.80703 5.53107 10.1945 5.53107H11.4836V6.87169V8.21232L11.6195 8.34357C11.7742 8.49826 11.943 8.55451 12.1211 8.51232C12.1914 8.49357 12.3039 8.41857 12.3789 8.34357L12.5148 8.21232V6.87169V5.53107H13.8039C15.1914 5.53107 15.2805 5.51701 15.4398 5.28732C15.5852 5.08107 15.4914 4.65919 15.2852 4.54669C15.2289 4.51857 14.6805 4.49982 13.8555 4.49982H12.5148V3.18732C12.5148 1.79044 12.4961 1.66388 12.2852 1.54669C12.168 1.48576 11.8117 1.48576 11.7039 1.55138Z" fill="#2C71C7"/>
<path d="M7.36741 11.5592C6.45804 11.8029 5.79241 12.4732 5.55335 13.3873C5.50179 13.5842 5.48304 13.9123 5.48304 14.5873C5.48304 15.2904 5.46898 15.5201 5.42679 15.5342C5.39398 15.5436 5.24866 15.5764 5.10804 15.6092C4.96741 15.6373 4.64866 15.7639 4.40491 15.8811C4.02523 16.0639 3.89398 16.1623 3.53773 16.5232C2.84398 17.217 2.53929 17.8873 2.49241 18.7967C2.41741 20.4279 3.36898 21.8342 4.8971 22.3451C5.23929 22.4623 5.33304 22.4717 5.99866 22.4717C6.66429 22.4717 6.75804 22.4623 7.10023 22.3451C8.05179 22.0264 8.89085 21.2529 9.25648 20.3529C9.56116 19.5982 9.59398 18.6373 9.33616 17.892C9.13929 17.3107 8.94241 17.0061 8.4596 16.5232C8.10335 16.1623 7.9721 16.0639 7.59241 15.8811C7.34866 15.7639 7.02991 15.6373 6.88929 15.6092C6.74866 15.5764 6.60335 15.5436 6.57054 15.5342C6.51898 15.5201 6.5096 15.3326 6.52366 14.5873C6.54241 13.4998 6.58929 13.3357 7.00179 12.9467C7.46116 12.5107 7.11429 12.5389 11.9987 12.5389C16.883 12.5389 16.5362 12.5107 16.9955 12.9467C17.408 13.3357 17.4549 13.4998 17.4737 14.5873C17.4877 15.3326 17.4784 15.5201 17.4268 15.5342C17.394 15.5436 17.2487 15.5764 17.108 15.6092C16.9674 15.6373 16.6487 15.7639 16.4049 15.8811C16.0252 16.0639 15.894 16.1623 15.5377 16.5232C14.844 17.217 14.5393 17.8873 14.4924 18.7967C14.4174 20.4279 15.369 21.8342 16.8971 22.3451C17.2393 22.4623 17.333 22.4717 17.9987 22.4717C18.6643 22.4717 18.758 22.4623 19.1002 22.3451C20.0518 22.0264 20.8909 21.2529 21.2565 20.3529C21.5612 19.5982 21.594 18.6373 21.3362 17.892C21.1393 17.3107 20.9424 17.0061 20.4596 16.5232C20.1034 16.1623 19.9721 16.0639 19.5924 15.8811C19.3487 15.7639 19.0299 15.6373 18.8893 15.6092C18.7487 15.5764 18.6034 15.5436 18.5752 15.5342C18.5284 15.5201 18.5143 15.2904 18.5143 14.5873C18.5143 13.242 18.3924 12.8529 17.769 12.2295C17.3893 11.8545 17.0987 11.6811 16.6112 11.5545C16.2174 11.4514 7.7471 11.4561 7.36741 11.5592ZM6.55648 16.5701C7.46585 16.7857 8.24398 17.5732 8.43148 18.4592C8.69398 19.7154 8.00023 20.9389 6.79554 21.3561C6.31273 21.5248 5.69398 21.5295 5.22054 21.3654C4.19398 21.0092 3.51429 20.0764 3.51429 19.0217C3.51429 18.3373 3.72991 17.7982 4.19866 17.2967C4.8221 16.6404 5.69866 16.3686 6.55648 16.5701ZM18.5565 16.5701C19.4659 16.7857 20.244 17.5732 20.4315 18.4592C20.694 19.7154 20.0002 20.9389 18.7955 21.3561C18.3127 21.5248 17.694 21.5295 17.2205 21.3654C16.194 21.0092 15.5143 20.0764 15.5143 19.0217C15.5143 18.3373 15.7299 17.7982 16.1987 17.2967C16.8221 16.6404 17.6987 16.3686 18.5565 16.5701Z" fill="#2C71C7"/>
</svg>
