<svg width="24" height="24" viewBox="0 0 24 24" fill="none" xmlns="http://www.w3.org/2000/svg">
<path d="M6.22232 12.8929H17.7717C18.089 12.8929 18.3823 12.7235 18.5411 12.4487C18.6997 12.1739 18.6997 11.8352 18.5411 11.5604C18.3823 11.2855 18.089 11.1162 17.7717 11.1162H6.22232C5.90503 11.1162 5.61173 11.2855 5.45297 11.5604C5.29432 11.8352 5.29432 12.1739 5.45297 12.4487C5.61177 12.7236 5.90503 12.8929 6.22232 12.8929Z" fill="#2C71C7"/>
<path d="M10.2362 8.38664C10.7035 8.85405 11.3375 9.11681 11.9985 9.11681C12.6596 9.11681 13.2936 8.85405 13.761 8.38664L15.2914 6.85626H15.2912C15.4778 6.67004 15.572 6.41055 15.5484 6.14811C15.5249 5.88551 15.3859 5.64707 15.1692 5.49711C14.9885 5.38014 14.7727 5.32994 14.559 5.35504C14.3454 5.38014 14.1472 5.47914 13.9987 5.63469L12.4751 7.16058H12.475C12.3496 7.28886 12.178 7.36105 11.9985 7.36105C11.8193 7.36105 11.6475 7.28886 11.5221 7.16058L9.96745 5.60589C9.82321 5.45763 9.63234 5.36343 9.4269 5.33926C9.22147 5.31494 9.01402 5.36203 8.83912 5.47265C8.61385 5.6186 8.46652 5.85858 8.43846 6.12552C8.41042 6.39261 8.50461 6.65785 8.69471 6.84748L10.2362 8.38664Z" fill="#2C71C7"/>
<path d="M15.147 18.5279C15.3724 18.382 15.5196 18.142 15.5477 17.8749C15.5757 17.608 15.4815 17.3426 15.2914 17.1531L13.7611 15.6227H13.7612C13.2938 15.1553 12.6598 14.8926 11.9987 14.8926C11.3377 14.8926 10.7037 15.1553 10.2364 15.6227L8.70605 17.1531C8.51952 17.3393 8.42532 17.5988 8.44887 17.8613C8.47242 18.1239 8.61139 18.3623 8.82829 18.5123C9.00878 18.6292 9.22459 18.6794 9.43824 18.6543C9.65188 18.6292 9.8502 18.5302 9.99877 18.3747L11.5223 16.8488C11.6477 16.7205 11.8195 16.6483 11.9987 16.6483C12.1781 16.6483 12.3498 16.7205 12.4752 16.8488L14.0298 18.4035C14.1745 18.5477 14.3639 18.6385 14.5668 18.6611C14.7698 18.6836 14.9743 18.6367 15.147 18.5279V18.5279Z" fill="#2C71C7"/>
</svg>
