<svg width="24" height="24" viewBox="0 0 24 24" fill="none" xmlns="http://www.w3.org/2000/svg">
<path d="M5.85887 4.64421H14.0923V19.3566H5.85887C5.18793 19.3566 4.64308 18.8117 4.64308 18.1408V5.86C4.64308 5.18906 5.18793 4.64421 5.85887 4.64421ZM18.1397 19.3566H15.1695V4.64421H18.1397C18.8106 4.64421 19.3555 5.18906 19.3555 5.86V18.1408C19.3555 18.8117 18.8106 19.3566 18.1397 19.3566ZM3.56602 18.1407C3.56602 19.4066 4.59308 20.4337 5.85894 20.4337H18.1398C19.4056 20.4337 20.4327 19.4066 20.4327 18.1407V5.85992C20.4327 4.59406 19.4056 3.56699 18.1398 3.56699H5.85894C4.59308 3.56699 3.56602 4.59406 3.56602 5.85992V18.1407ZM15.8466 6.73714C15.8466 7.03469 16.0879 7.27578 16.3852 7.27578H18.1397C18.4371 7.27578 18.6782 7.03465 18.6782 6.73714C18.6782 6.43976 18.4371 6.19864 18.1397 6.19864H16.3852C16.0879 6.19864 15.8466 6.43971 15.8466 6.73714ZM15.8466 8.49157C15.8466 8.78896 16.0879 9.03022 16.3852 9.03022H18.1397C18.4371 9.03022 18.6782 8.78891 18.6782 8.49157C18.6782 8.19423 18.4371 7.95293 18.1397 7.95293H16.3852C16.0879 7.95293 15.8466 8.19419 15.8466 8.49157ZM15.8466 10.246C15.8466 10.5434 16.0879 10.7845 16.3852 10.7845H18.1397C18.4371 10.7845 18.6782 10.5434 18.6782 10.246C18.6782 9.9485 18.4371 9.70736 18.1397 9.70736H16.3852C16.0879 9.70736 15.8466 9.94845 15.8466 10.246Z" fill="#2C71C7" stroke="#2C71C7" stroke-width="0.2"/>
</svg>
