<svg width="24" height="24" viewBox="0 0 24 24" fill="none" xmlns="http://www.w3.org/2000/svg">
<path d="M2.62031 1.60781C2.53594 1.66406 2.41406 1.78594 2.35781 1.87031C2.25469 2.025 2.25 2.0625 2.25 3.17812C2.25 4.25156 2.25469 4.33594 2.34844 4.48125C2.47031 4.67812 2.70938 4.82812 2.97188 4.86562L3.17344 4.89844L6.225 8.5875L9.28125 12.2766V16.0453C9.28125 18.7031 9.29531 19.8562 9.33281 19.9641C9.38438 20.1047 9.54375 20.1937 11.7703 21.3094C13.2563 22.05 14.2078 22.5 14.2922 22.5C14.7047 22.5 14.7188 22.4344 14.7188 20.8453C14.7188 19.4719 14.6953 19.2609 14.5313 19.1719C14.3813 19.0922 14.1188 19.1156 14.0156 19.2187C13.9266 19.3078 13.9219 19.3734 13.9219 20.3906C13.9219 20.9812 13.9125 21.4688 13.8984 21.4688C13.8844 21.4688 13.0219 21.0422 11.9766 20.5219L10.0781 19.5703V16.0687V12.5625H12H13.9219V15.1875C13.9219 17.7516 13.9219 17.8125 14.0156 17.9062C14.1188 18.0094 14.3813 18.0328 14.5313 17.9531C14.7094 17.8594 14.7188 17.6953 14.7188 14.9437V12.2766L17.775 8.5875L20.8266 4.89844L21.0281 4.86562C21.2906 4.82812 21.5297 4.67812 21.6516 4.48125C21.7453 4.33594 21.75 4.25156 21.75 3.17812C21.75 2.0625 21.7453 2.025 21.6422 1.87031C21.5859 1.78594 21.4641 1.66406 21.3797 1.60781L21.2203 1.5H12H2.77969L2.62031 1.60781ZM20.9766 3.17344V4.05469L13.9172 4.07812C8.17031 4.09687 6.84375 4.11094 6.78281 4.1625C6.61406 4.30312 6.64688 4.72031 6.83438 4.81406C6.88125 4.83281 9.80625 4.86094 13.3453 4.875L19.7719 4.89844L16.9313 8.32969L14.0859 11.7656H12H9.91406L7.06875 8.32969L4.22813 4.89844L4.81406 4.875C5.35781 4.85156 5.40469 4.84219 5.48906 4.73906C5.60156 4.59844 5.60156 4.35469 5.48906 4.21406C5.4 4.10156 5.39063 4.10156 4.20938 4.07812L3.02344 4.05469V3.1875V2.32031L3.60938 2.29219C3.93281 2.27344 7.97344 2.26875 12.5859 2.27812L20.9766 2.29219V3.17344Z" fill="#2C71C7"/>
</svg>
