<svg width="24" height="24" viewBox="0 0 24 24" fill="none" xmlns="http://www.w3.org/2000/svg">
<g clip-path="url(#clip0_9116_292565)">
<path d="M9.16651 3.32812C7.58057 3.58203 6.24854 4.25391 5.09229 5.375C3.2212 7.19141 2.43213 9.83203 2.99854 12.3867C3.32276 13.8438 4.01807 15.082 5.11182 16.1484C5.5962 16.6172 5.70948 16.668 5.95948 16.5508C6.13526 16.4688 6.18995 16.3672 6.18995 16.1523C6.18995 15.9922 6.17432 15.9648 5.66651 15.4453C5.06495 14.8281 4.79541 14.4648 4.46729 13.8359C3.79151 12.5352 3.56495 11.2461 3.76026 9.8125C4.06495 7.61719 5.5376 5.65234 7.56495 4.72656C8.18604 4.44531 8.62745 4.30859 9.34229 4.17969C9.7212 4.11328 10.9439 4.11328 11.3345 4.18359C12.7759 4.43359 13.979 5.04297 14.9673 6.02344C16.0493 7.09375 16.6626 8.29297 16.9048 9.8125C16.9946 10.3789 16.9634 11.5039 16.8423 12.0586C16.5532 13.4023 15.9751 14.4688 15.0064 15.4414C14.0532 16.3984 13.0728 16.9414 11.7056 17.2656L11.2759 17.3672L6.75245 17.3867L2.2251 17.4102L2.11182 17.5391C1.95166 17.7188 1.95166 17.9727 2.11573 18.1367L2.22901 18.2539L6.81104 18.2422L11.3931 18.2305L11.8032 18.1406C14.2251 17.6094 16.1235 16.1055 17.1548 13.8945C17.6196 12.9023 17.8306 11.9258 17.8345 10.7305C17.8384 8.71875 17.0728 6.87891 15.6314 5.4375C14.4868 4.28906 13.0923 3.58203 11.4712 3.32422C10.854 3.22656 9.77979 3.22656 9.16651 3.32812Z" fill="#2C71C7"/>
<path d="M18.8876 14.9531C18.7236 15.0352 18.6298 15.2344 18.665 15.4258C18.6884 15.5547 18.8212 15.707 19.5908 16.4805L20.4931 17.3906H17.8837C14.9853 17.3906 15.079 17.3828 14.9501 17.6484C14.8642 17.8281 14.9072 18.0273 15.0556 18.1523L15.1728 18.25H17.8525H20.5322L19.6298 19.1562C19.1298 19.6562 18.704 20.1172 18.6806 20.1797C18.5712 20.4688 18.7822 20.75 19.1025 20.75H19.2861L20.6415 19.3906L22.0009 18.0352V17.8398V17.6484L20.6454 16.2891C19.1689 14.8164 19.165 14.8125 18.8876 14.9531Z" fill="#2C71C7"/>
</g>
<g clip-path="url(#clip1_9116_292565)">
<path d="M11.1707 10.7609V11.6953V11.6979C11.1707 12.1764 11.1707 12.423 11.1751 12.5542C11.1773 12.6191 11.1807 12.6596 11.1867 12.6868C11.19 12.7012 11.1943 12.7138 11.2009 12.7253C11.2075 12.7369 11.2151 12.7448 11.2205 12.7502C11.2517 12.7814 11.2997 12.7954 11.3414 12.7991C11.3843 12.803 11.4334 12.7974 11.4726 12.7766C11.4726 12.7766 11.4726 12.7766 11.4727 12.7766L11.1707 10.7609ZM11.1707 10.7609H10.5H9.8293V12.0258V13.308L10.5135 13.6509C10.5135 13.651 10.5135 13.651 10.5136 13.651C10.7095 13.7485 10.8883 13.8372 11.0187 13.9016C11.08 13.9318 11.1306 13.9566 11.1672 13.9744C11.1676 13.9614 11.168 13.9467 11.1683 13.9306C11.1698 13.8577 11.1707 13.757 11.1707 13.6465C11.1707 13.4569 11.1711 13.3528 11.1759 13.2923C11.1783 13.262 11.1821 13.2382 11.1895 13.2186C11.1977 13.1966 11.2093 13.1829 11.2205 13.1717C11.2517 13.1405 11.2997 13.1265 11.3414 13.1227C11.3843 13.1189 11.4335 13.1245 11.4727 13.1453L11.4731 13.1455C11.4972 13.1586 11.5171 13.1775 11.5314 13.2079C11.5444 13.2356 11.552 13.2713 11.5571 13.317C11.5674 13.4088 11.5695 13.5605 11.5695 13.817C11.5695 13.9658 11.5692 14.0799 11.5663 14.167C11.5633 14.2533 11.5578 14.317 11.546 14.3631C11.5339 14.4104 11.5129 14.4478 11.473 14.4687C11.4381 14.4869 11.3962 14.4875 11.3596 14.4875C11.3498 14.4875 11.3404 14.4849 11.3359 14.4836C11.3298 14.4818 11.3228 14.4794 11.3153 14.4766C11.3002 14.471 11.2806 14.4629 11.257 14.4527C11.2096 14.4322 11.144 14.4022 11.0625 14.3636C10.8992 14.2865 10.6703 14.1747 10.3916 14.0358L10.3915 14.0357C9.97448 13.8268 9.74964 13.7133 9.6268 13.6454C9.5658 13.6117 9.52713 13.5878 9.50215 13.5678C9.47491 13.546 9.46136 13.5269 9.45286 13.5037L9.45285 13.5037L9.45258 13.5029C9.44837 13.4908 9.44648 13.473 9.44511 13.4569C9.44353 13.4381 9.44214 13.4132 9.44089 13.382C9.43839 13.3195 9.43641 13.23 9.43487 13.111C9.43179 12.8729 9.43047 12.5153 9.43047 12.017V10.6217L8.29587 9.25221L8.29585 9.25218L7.16348 7.88325L7.1069 7.87404C6.99599 7.85805 6.89282 7.79477 6.8384 7.7072C6.82831 7.69151 6.81909 7.67502 6.8122 7.65218C6.80556 7.6302 6.80169 7.60441 6.79916 7.57036C6.79415 7.50298 6.79375 7.39204 6.79375 7.1918C6.79375 6.98385 6.79414 6.87299 6.79964 6.80728C6.80243 6.77388 6.80675 6.74886 6.81435 6.72712C6.82216 6.70483 6.83253 6.6887 6.84258 6.67363C6.86733 6.6365 6.91775 6.58608 6.95488 6.56133M11.1707 10.7609L14.0451 6.56133L13.9856 6.52109L13.9729 6.5125H13.9576H10.5H7.04238H7.02706L7.01437 6.52109L6.95488 6.56133M6.95488 6.56133L6.9546 6.56152L6.98262 6.60293L6.95488 6.56133ZM11.5695 10.6217L12.7041 9.25221L12.7042 9.25218L13.8365 7.88325L13.8931 7.87404C14.004 7.85805 14.1072 7.79478 14.1616 7.7072C14.1717 7.69151 14.1809 7.67502 14.1878 7.65218C14.1944 7.6302 14.1983 7.60441 14.2008 7.57036C14.2058 7.50298 14.2063 7.39204 14.2063 7.1918C14.2063 6.98385 14.2059 6.87299 14.2004 6.80728C14.1976 6.77388 14.1933 6.74886 14.1856 6.72712C14.1778 6.70483 14.1675 6.6887 14.1574 6.67363C14.1327 6.63656 14.0824 6.58625 14.0453 6.56145L11.5082 12.75C11.5201 12.737 11.5288 12.7216 11.5354 12.7034C11.5478 12.6691 11.5547 12.6195 11.5593 12.545C11.5687 12.3943 11.5695 12.1189 11.5695 11.6039V10.6217ZM11.5695 10.6217L11.558 10.6356L11.5195 10.6037H11.5695V10.6217ZM8.45328 7.69363C8.44879 7.63672 8.46165 7.56411 8.51155 7.52253C8.51933 7.51603 8.5274 7.51307 8.53085 7.51189C8.53535 7.51034 8.53985 7.50926 8.54373 7.50847C8.55156 7.50688 8.56103 7.50564 8.57169 7.50457C8.59322 7.5024 8.62416 7.50054 8.66618 7.49886C8.75047 7.49551 8.88275 7.49281 9.08108 7.49051C9.47794 7.48589 10.1413 7.48281 11.2188 7.4793L13.8162 7.47067V7.19004V6.90949L10.7196 6.9043H10.7196C8.98839 6.90078 7.47572 6.90257 7.35641 6.90949L7.35591 6.90951L7.18379 6.91777V7.19531V7.47149L7.5795 7.47931L7.58798 7.47948C7.80238 7.48373 7.91493 7.48596 7.97729 7.49254C8.00874 7.49585 8.03379 7.50077 8.05427 7.51117C8.07637 7.5224 8.08863 7.5379 8.09702 7.5485L8.09744 7.54904L8.0584 7.58027L8.0976 7.54924L8.09752 7.54914C8.12705 7.58611 8.14004 7.63383 8.14004 7.67871C8.14004 7.72363 8.12703 7.7714 8.09744 7.80839L8.0971 7.80881C8.08815 7.81974 8.07709 7.83215 8.06101 7.84238C8.04484 7.85267 8.0269 7.85871 8.0063 7.86286C7.96768 7.87063 7.9075 7.87376 7.80743 7.87808L7.80727 7.87809L7.68848 7.88284L8.68929 9.09174L8.6893 9.09175L9.74129 10.3621H10.5H11.2587L12.3107 9.09175L12.3107 9.09174L13.3085 7.88653L11.0043 7.87812H11.0043C10.3407 7.87549 9.73455 7.87153 9.29213 7.86736C9.07094 7.86527 8.89057 7.86312 8.76436 7.86106C8.70128 7.86003 8.65157 7.85902 8.617 7.85804C8.59976 7.85755 8.586 7.85706 8.57614 7.85657L8.56339 7.85576L8.55758 7.85512L8.55754 7.85512C8.55694 7.85505 8.55079 7.85428 8.54432 7.8517L8.54426 7.85186L8.54053 7.84999C8.51019 7.83483 8.4896 7.8085 8.47644 7.78175C8.46314 7.75471 8.45567 7.72387 8.45328 7.69363Z" fill="#2C71C7" stroke="#2C71C7" stroke-width="0.1"/>
</g>
<defs>
<clipPath id="clip0_9116_292565">
<rect width="20" height="20" fill="white" transform="translate(2 2)"/>
</clipPath>
<clipPath id="clip1_9116_292565">
<rect width="9" height="9" fill="white" transform="translate(6 6)"/>
</clipPath>
</defs>
</svg>
