<svg width="24" height="24" viewBox="0 0 24 24" fill="none" xmlns="http://www.w3.org/2000/svg">
<g clip-path="url(#clip0_7884_201061)">
<path d="M11.5703 3.24602C10.8086 3.49211 10.3125 4.07414 10.2031 4.84758C10.0703 5.77727 10.6406 6.70305 11.5078 6.97649L11.7266 7.0468V7.60149V8.16008L11.4258 8.18743C10.0391 8.30071 8.44531 9.14446 7.51562 10.2499C6.00391 12.0546 5.60938 14.4609 6.48047 16.5781L6.63672 16.957L6.05859 17.289L5.47656 17.6249L5.29688 17.4531C4.72266 16.8984 3.8125 16.7656 3.07422 17.121C2.39844 17.4491 2 18.0976 2 18.871C2 19.3984 2.14844 19.8124 2.47266 20.1796C3.10938 20.8984 4.24219 21.0468 5.04297 20.5116C5.63281 20.1171 5.92969 19.4999 5.90234 18.7226L5.88672 18.3476L6.46875 18.0116L7.05469 17.6757L7.3125 18.0116C7.65234 18.4531 8.22266 18.9921 8.66406 19.2929C9.31641 19.7382 10.3008 20.1679 10.5312 20.1093C10.7188 20.0624 10.8281 19.9179 10.8281 19.7187C10.8281 19.4687 10.7305 19.3788 10.2344 19.1874C8.57031 18.5468 7.33594 17.0859 6.95312 15.3085C6.83984 14.7773 6.83203 13.7851 6.9375 13.289C7.17188 12.1796 7.65234 11.2773 8.41016 10.5195C9.18359 9.74993 10.1016 9.26555 11.1992 9.0468C11.7109 8.94524 12.6719 8.95305 13.1797 9.06243C15.293 9.52337 16.8672 11.082 17.332 13.1835C17.4336 13.6288 17.4531 14.6054 17.375 15.0898C17.0586 16.9999 15.7227 18.6015 13.9062 19.246C13.5312 19.3788 13.4258 19.4843 13.4258 19.7226C13.4258 19.871 13.4453 19.914 13.5547 20.0116C13.6289 20.0781 13.7227 20.1249 13.7891 20.1249C14.1094 20.1249 15.1133 19.6601 15.7109 19.2343C16.1367 18.9335 16.7383 18.3476 17.0156 17.9648C17.125 17.8202 17.2266 17.7031 17.2422 17.7031C17.2617 17.7031 17.4805 17.8202 17.7266 17.9609C18.1211 18.1874 18.1758 18.2304 18.1523 18.3046C18.0977 18.4882 18.0859 19.0195 18.1289 19.2382C18.3867 20.4765 19.7773 21.1484 20.9258 20.5898C21.6016 20.2616 22 19.6093 22 18.8398C22 18.2616 21.8281 17.8359 21.4375 17.4452C21.0469 17.0546 20.6211 16.8827 20.0469 16.8827C19.5312 16.8827 19.1797 17.0077 18.7891 17.3241L18.5781 17.496L18.1523 17.2499C17.9219 17.1132 17.7148 16.9882 17.6953 16.9687C17.6797 16.9531 17.7266 16.789 17.7969 16.6093C18.1445 15.7577 18.2695 15.039 18.2422 14.0507C18.2109 13.0312 18.0156 12.2773 17.5391 11.3671C16.6328 9.63665 14.7266 8.34368 12.8398 8.18352L12.5469 8.16008V7.6054V7.05071L12.7148 7.00383C13.1758 6.86711 13.6797 6.44524 13.8945 6.02336C14.4453 4.93743 13.8633 3.57414 12.707 3.2343C12.418 3.14836 11.8477 3.15618 11.5703 3.24602ZM12.6055 4.08586C13.1367 4.33586 13.3984 4.91399 13.2266 5.46086C13.1328 5.77336 12.8125 6.09758 12.5117 6.19915C11.5703 6.51165 10.6836 5.52727 11.1133 4.64446C11.2422 4.39055 11.5039 4.14055 11.7383 4.05461C12 3.96477 12.375 3.97649 12.6055 4.08586ZM20.4609 17.7695C20.7188 17.8554 21.0273 18.164 21.1133 18.4218C21.2188 18.7343 21.1992 19.0546 21.0586 19.3359C20.8711 19.7148 20.5586 19.9257 20.1406 19.9609C19.7812 19.9882 19.5352 19.8906 19.2617 19.621C19.0195 19.3749 18.9141 19.1366 18.9141 18.8281C18.9141 18.2265 19.4297 17.7031 20.0273 17.7031C20.1602 17.7031 20.3555 17.7343 20.4609 17.7695ZM4.32812 17.8085C4.58984 17.8984 4.92969 18.2382 5.01953 18.4999C5.26953 19.2304 4.72656 20.0077 3.96875 20.0077C3.62109 20.0077 3.38281 19.914 3.14844 19.6796C2.44141 18.9687 2.93359 17.7538 3.9375 17.7421C4.04688 17.7421 4.22266 17.7734 4.32812 17.8085Z" fill="#2C71C7"/>
<path d="M10.5157 11.4648C9.168 12.1211 9.04691 12.1875 8.9805 12.3125C8.918 12.4375 8.91409 12.5859 8.92191 14.1289C8.93362 15.6094 8.94144 15.8242 8.99612 15.9062C9.08987 16.0469 11.9688 17.4492 12.1563 17.4453C12.3399 17.4414 15.1993 16.0351 15.293 15.9023C15.3516 15.8203 15.3594 15.6328 15.3594 14.082V12.3516L15.2539 12.2383C15.0899 12.0625 12.3282 10.75 12.1289 10.7539C12.0196 10.7539 11.5938 10.9414 10.5157 11.4648ZM12.7266 11.8867C13.0469 12.043 13.4649 12.2422 13.6524 12.332L13.9961 12.4961L13.0743 12.9492L12.1524 13.4023L11.2305 12.957C10.7227 12.7109 10.3164 12.5 10.3242 12.4922C10.336 12.4766 12.1211 11.6133 12.1407 11.6094C12.1446 11.6094 12.4063 11.7344 12.7266 11.8867ZM10.75 13.6484L11.7266 14.1211V15.2461V16.3711L11.25 16.1445C10.9844 16.0195 10.5352 15.8008 10.2539 15.6562L9.73441 15.3984V14.2851C9.73441 13.6719 9.74222 13.1719 9.75394 13.1719C9.76566 13.1719 10.2149 13.3867 10.75 13.6484ZM14.5391 14.293V15.418L13.5782 15.8867C13.0469 16.1445 12.5977 16.3594 12.5821 16.3672C12.5625 16.375 12.5469 15.8789 12.5469 15.2539V14.1289L13.5157 13.6523C14.0469 13.3945 14.4922 13.1758 14.5118 13.1758C14.5274 13.1719 14.5391 13.6758 14.5391 14.293Z" fill="#2C71C7"/>
<path d="M11.8633 19.6719C11.6875 19.8477 11.6875 20.0898 11.8633 20.2656C11.9375 20.3359 12 20.3594 12.1367 20.3594C12.5039 20.3594 12.6797 19.9766 12.4453 19.6992C12.3594 19.5938 12.3203 19.5781 12.1523 19.5781C12 19.5781 11.9375 19.5977 11.8633 19.6719Z" fill="#2C71C7"/>
</g>
<defs>
<clipPath id="clip0_7884_201061">
<rect width="20" height="20" fill="white" transform="translate(2 2)"/>
</clipPath>
</defs>
</svg>
