<svg width="24" height="24" viewBox="0 0 24 24" fill="none" xmlns="http://www.w3.org/2000/svg">
<path d="M4.71074 2.14376C3.88304 2.39183 3.20862 3.04581 2.84075 3.95913C2.78966 4.08316 2.71813 5.4024 2.68747 6.89077C2.63638 9.46159 2.62616 9.61945 2.40136 10.0141C2.10502 10.544 1.61453 10.871 1.00142 10.9725C0.316775 11.074 0 11.401 0 12.0099C0 12.6526 0.245245 12.9006 1.07295 13.1036C1.86999 13.3066 2.41157 13.8027 2.57507 14.4792C2.63638 14.7047 2.68747 15.9563 2.69769 17.2643C2.69769 18.7752 2.74879 19.7674 2.82032 19.993C3.21884 21.1656 4.24069 21.9887 5.32386 22C5.80413 22 5.90631 21.9549 6.1209 21.6843C6.61139 21.0529 6.31505 20.1057 5.5691 19.9591C4.60856 19.7674 4.58812 19.6998 4.52681 16.5314C4.47572 14.0169 4.4655 13.8478 4.23047 13.3291C4.09763 13.0247 3.85239 12.6075 3.67867 12.4045L3.38233 12.0211L3.67867 11.6378C3.85239 11.4348 4.09763 11.0176 4.23047 10.7132C4.4655 10.1945 4.47572 10.0254 4.52681 7.51092C4.58812 4.3425 4.60856 4.27484 5.5691 4.08316C6.50921 3.89147 6.6727 2.54968 5.80413 2.14376C5.39539 1.95208 5.33407 1.95208 4.71074 2.14376Z" fill="#007AFF"/>
<path d="M19.2893 21.8562C20.117 21.6082 20.7914 20.9542 21.1592 20.0409C21.2103 19.9168 21.2819 18.5976 21.3125 17.1092C21.3636 14.5384 21.3738 14.3805 21.5986 13.9859C21.895 13.456 22.3855 13.129 22.9986 13.0275C23.6832 12.926 24 12.599 24 11.9901C24 11.3474 23.7548 11.0994 22.9271 10.8964C22.13 10.6934 21.5884 10.1973 21.4249 9.52079C21.3636 9.29528 21.3125 8.04369 21.3023 6.73573C21.3023 5.22481 21.2512 4.23256 21.1797 4.00705C20.7812 2.83439 19.7593 2.01128 18.6761 2C18.1959 2 18.0937 2.0451 17.8791 2.31572C17.3886 2.94715 17.6849 3.89429 18.4309 4.04087C19.3914 4.23256 19.4119 4.30021 19.4732 7.46864C19.5243 9.98309 19.5345 10.1522 19.7695 10.6709C19.9024 10.9753 20.1476 11.3925 20.3213 11.5955L20.6177 11.9789L20.3213 12.3622C20.1476 12.5652 19.9024 12.9824 19.7695 13.2868C19.5345 13.8055 19.5243 13.9746 19.4732 16.4891C19.4119 19.6575 19.3914 19.7252 18.4309 19.9168C17.4908 20.1085 17.3273 21.4503 18.1959 21.8562C18.6046 22.0479 18.6659 22.0479 19.2893 21.8562Z" fill="#007AFF"/>
<path d="M11.3326 6.07188C10.1779 6.53192 10.0042 8.65624 11.0567 9.42748C11.5268 9.77928 11.8844 9.80634 12.3545 9.50867C13.2843 8.92685 13.3763 6.97843 12.5077 6.31543C12.1399 6.03129 11.68 5.93657 11.3326 6.07188Z" fill="#007AFF"/>
<path d="M11.3018 11.5286C10.8318 11.7992 10.7398 12.3539 10.7807 14.7488L10.8113 16.7649L11.0974 17.0897C11.496 17.5497 12.0682 17.5362 12.4054 17.0626C12.6404 16.7379 12.6507 16.6296 12.6813 14.6135C12.7222 12.2051 12.6507 11.7992 12.1295 11.515C11.7208 11.285 11.7105 11.285 11.3018 11.5286Z" fill="#007AFF"/>
</svg>
