<svg width="24" height="24" viewBox="0 0 24 24" fill="none" xmlns="http://www.w3.org/2000/svg">
<g clip-path="url(#clip0_7884_201051)">
<path d="M9.16748 3.32812C7.58155 3.58203 6.24952 4.25391 5.09327 5.375C3.22217 7.19141 2.43311 9.83203 2.99952 12.3867C3.32373 13.8438 4.01905 15.082 5.1128 16.1484C5.59717 16.6172 5.71045 16.668 5.96045 16.5508C6.13624 16.4688 6.19092 16.3672 6.19092 16.1523C6.19092 15.9922 6.1753 15.9648 5.66748 15.4453C5.06592 14.8281 4.79639 14.4648 4.46827 13.8359C3.79248 12.5352 3.56592 11.2461 3.76123 9.8125C4.06592 7.61719 5.53858 5.65234 7.56592 4.72656C8.18702 4.44531 8.62842 4.30859 9.34327 4.17969C9.72217 4.11328 10.9448 4.11328 11.3355 4.18359C12.7769 4.43359 13.98 5.04297 14.9683 6.02344C16.0503 7.09375 16.6636 8.29297 16.9058 9.8125C16.9956 10.3789 16.9644 11.5039 16.8433 12.0586C16.5542 13.4023 15.9761 14.4688 15.0073 15.4414C14.0542 16.3984 13.0737 16.9414 11.7065 17.2656L11.2769 17.3672L6.75342 17.3867L2.22608 17.4102L2.1128 17.5391C1.95264 17.7188 1.95264 17.9727 2.1167 18.1367L2.22998 18.2539L6.81202 18.2422L11.394 18.2305L11.8042 18.1406C14.2261 17.6094 16.1245 16.1055 17.1558 13.8945C17.6206 12.9023 17.8315 11.9258 17.8355 10.7305C17.8394 8.71875 17.0737 6.87891 15.6323 5.4375C14.4878 4.28906 13.0933 3.58203 11.4722 3.32422C10.855 3.22656 9.78077 3.22656 9.16748 3.32812Z" fill="#2C71C7"/>
<path d="M18.8867 14.9531C18.7226 15.0352 18.6288 15.2344 18.664 15.4258C18.6874 15.5547 18.8202 15.707 19.5898 16.4805L20.4921 17.3906H17.8827C14.9843 17.3906 15.0781 17.3828 14.9492 17.6484C14.8632 17.8281 14.9062 18.0273 15.0546 18.1523L15.1718 18.25H17.8515H20.5312L19.6288 19.1562C19.1288 19.6562 18.7031 20.1172 18.6796 20.1797C18.5702 20.4688 18.7812 20.75 19.1015 20.75H19.2851L20.6406 19.3906L21.9999 18.0352V17.8398V17.6484L20.6445 16.2891C19.1679 14.8164 19.164 14.8125 18.8867 14.9531Z" fill="#2C71C7"/>
</g>
<defs>
<clipPath id="clip0_7884_201051">
<rect width="20" height="20" fill="white" transform="translate(2 2)"/>
</clipPath>
</defs>
</svg>
