<svg width="24" height="24" viewBox="0 0 24 24" fill="none" xmlns="http://www.w3.org/2000/svg">
<path d="M18.5188 11.1442L9.51876 5.65047C9.36884 5.55547 9.19571 5.50347 9.01826 5.50017C8.8408 5.49686 8.66585 5.54237 8.5125 5.63172C8.35689 5.7171 8.22716 5.84284 8.13697 5.99572C8.04678 6.1486 7.99947 6.32297 8 6.50047V17.5005C7.99947 17.678 8.04678 17.8523 8.13697 18.0052C8.22716 18.1581 8.35689 18.2838 8.5125 18.3692C8.66585 18.4586 8.8408 18.5041 9.01826 18.5008C9.19571 18.4975 9.36884 18.4455 9.51876 18.3505L18.5188 12.8567C18.6663 12.7677 18.7883 12.6421 18.873 12.4921C18.9577 12.3421 19.0022 12.1727 19.0022 12.0005C19.0022 11.8282 18.9577 11.6588 18.873 11.5088C18.7883 11.3588 18.6663 11.2332 18.5188 11.1442Z" fill="#2C71C7"/>
<circle cx="12" cy="12" r="11.5" stroke="#8391A7"/>
</svg>
