<svg width="430" height="80" viewBox="0 0 430 80" fill="none" xmlns="http://www.w3.org/2000/svg">
<g clip-path="url(#clip0_5081_142801)">
<g filter="url(#filter0_d_5081_142801)">
<rect width="430" height="80" rx="6" fill="black"/>
</g>
<g filter="url(#filter1_d_5081_142801)">
<rect width="80" height="80" rx="6" fill="white" stroke="black" stroke-width="10" />
</g>
<g clip-path="url(#clip1_5081_142801)">
<path d="M31.2429 39.0586C33.8676 38.3954 36.5195 39.3192 38.1904 41.2235L51.212 37.9338L54.9471 39.7873L51.5355 44.3854L49.2276 43.0086L47.8507 45.3164L45.5429 43.9395L44.166 46.2474L39.7419 47.3649C39.176 49.8342 37.281 51.9065 34.6563 52.5696C30.9254 53.5121 27.1367 51.2518 26.1939 47.5209C25.2512 43.79 27.5118 40.0012 31.2427 39.0585L31.2429 39.0586ZM30.3345 44.5145C29.317 44.7717 28.7004 45.8048 28.9576 46.8223C29.2148 47.8398 30.2479 48.4564 31.2655 48.1992C32.283 47.942 32.8995 46.9089 32.6423 45.8914C32.3851 44.8738 31.352 44.2573 30.3345 44.5145Z" fill="black"/>
<path d="M44.3998 23.9996C51.678 23.9996 57.5998 29.9217 57.5998 37.1996C57.5998 37.2549 57.5948 37.3096 57.5898 37.364C57.5836 37.4499 57.5786 37.5377 57.5761 37.6233L57.5295 39.093L58.9892 39.2643C63.2141 39.7602 66.3998 43.3449 66.3998 47.6003C66.3998 52.2321 62.6311 56.0003 57.9998 56.0003C57.9545 56.0003 57.9089 55.9953 57.8636 55.9921C57.7983 55.9884 57.7311 55.9834 57.6657 55.9821L55.9995 55.9343V55.9996H22.3227L21.7752 55.9393C17.1149 55.4228 13.5992 51.4937 13.5992 46.7993C13.5992 42.9131 16.0676 39.429 19.7405 38.1321L20.7802 37.7649L20.8077 36.6625C20.8811 33.5993 23.3377 31.1993 26.3989 31.1993C27.6789 31.1993 28.8845 31.6237 29.8896 32.4262L31.5055 33.7187L32.3486 31.8284C34.4736 27.0746 39.2037 24.0002 44.399 24.0002L44.3998 23.9996ZM44.399 22.3999C38.3721 22.3999 33.1974 26.0081 30.8878 31.1767C29.6565 30.1917 28.0972 29.5995 26.3985 29.5995C22.4816 29.5995 19.3019 32.7292 19.2069 36.6239C15.0118 38.1073 11.999 42.0964 11.999 46.8007C11.999 52.3591 16.1997 56.9327 21.599 57.5303V57.6006H57.599V57.5812C57.7322 57.5856 57.8628 57.6006 57.999 57.6006C63.5225 57.6006 67.999 53.1231 67.999 47.6006C67.999 42.4772 64.1431 38.2582 59.175 37.6766C59.1806 37.5172 59.1994 37.3613 59.1994 37.2007C59.1994 29.0279 52.5728 22.4007 44.3994 22.4007" fill="black"/>
</g>
<path d="M126.491 35.1797C126.391 34.2493 125.972 33.5249 125.234 33.0064C124.502 32.4879 123.55 32.2287 122.378 32.2287C121.555 32.2287 120.848 32.353 120.258 32.6016C119.669 32.8501 119.218 33.1875 118.905 33.6136C118.593 34.0398 118.433 34.5263 118.426 35.0732C118.426 35.5277 118.529 35.9219 118.735 36.2557C118.948 36.5895 119.236 36.8736 119.598 37.108C119.96 37.3352 120.361 37.527 120.802 37.6832C121.242 37.8395 121.686 37.9709 122.133 38.0774L124.179 38.5888C125.003 38.7805 125.795 39.0398 126.555 39.3665C127.322 39.6932 128.007 40.1051 128.611 40.6023C129.222 41.0994 129.704 41.6996 130.06 42.4027C130.415 43.1058 130.592 43.9297 130.592 44.8743C130.592 46.1527 130.266 47.2784 129.612 48.2514C128.959 49.2173 128.014 49.9737 126.778 50.5206C125.55 51.0604 124.062 51.3303 122.315 51.3303C120.617 51.3303 119.143 51.0675 117.893 50.5419C116.65 50.0163 115.677 49.2493 114.974 48.2408C114.278 47.2322 113.902 46.0036 113.845 44.5547H117.734C117.79 45.3146 118.025 45.9467 118.437 46.451C118.849 46.9553 119.385 47.3317 120.045 47.5803C120.713 47.8288 121.459 47.9531 122.283 47.9531C123.142 47.9531 123.895 47.8253 124.541 47.5696C125.195 47.3068 125.706 46.9446 126.075 46.483C126.445 46.0142 126.633 45.4673 126.64 44.8423C126.633 44.2741 126.466 43.8054 126.139 43.4361C125.812 43.0597 125.354 42.7472 124.765 42.4986C124.182 42.2429 123.501 42.0156 122.719 41.8168L120.237 41.1776C118.44 40.7159 117.02 40.0163 115.976 39.0788C114.939 38.1342 114.42 36.8807 114.42 35.3182C114.42 34.0327 114.768 32.907 115.464 31.9411C116.168 30.9751 117.123 30.2259 118.33 29.6932C119.538 29.1534 120.905 28.8835 122.432 28.8835C123.98 28.8835 125.337 29.1534 126.501 29.6932C127.673 30.2259 128.593 30.968 129.261 31.9197C129.928 32.8643 130.273 33.951 130.294 35.1797H126.491ZM133.945 51V34.6364H137.802V51H133.945ZM135.884 32.3139C135.274 32.3139 134.748 32.1115 134.308 31.7067C133.867 31.2947 133.647 30.8011 133.647 30.2259C133.647 29.6435 133.867 29.1499 134.308 28.745C134.748 28.3331 135.274 28.1271 135.884 28.1271C136.502 28.1271 137.028 28.3331 137.461 28.745C137.901 29.1499 138.122 29.6435 138.122 30.2259C138.122 30.8011 137.901 31.2947 137.461 31.7067C137.028 32.1115 136.502 32.3139 135.884 32.3139ZM148.884 57.4773C147.499 57.4773 146.31 57.2891 145.315 56.9126C144.321 56.5433 143.522 56.0462 142.918 55.4212C142.315 54.7962 141.896 54.1037 141.661 53.3438L145.134 52.5021C145.29 52.8217 145.518 53.1378 145.816 53.4503C146.114 53.7699 146.516 54.0327 147.02 54.2386C147.531 54.4517 148.174 54.5582 148.948 54.5582C150.042 54.5582 150.947 54.2919 151.665 53.7592C152.382 53.2337 152.741 52.3672 152.741 51.1598V48.0597H152.549C152.35 48.4574 152.059 48.8658 151.675 49.2848C151.299 49.7038 150.798 50.0554 150.173 50.3395C149.555 50.6236 148.778 50.7656 147.84 50.7656C146.583 50.7656 145.443 50.4709 144.42 49.8814C143.405 49.2848 142.595 48.397 141.991 47.218C141.395 46.032 141.097 44.5476 141.097 42.7649C141.097 40.968 141.395 39.4517 141.991 38.2159C142.595 36.973 143.408 36.032 144.431 35.3928C145.454 34.7464 146.594 34.4233 147.851 34.4233C148.81 34.4233 149.598 34.5866 150.216 34.9134C150.841 35.233 151.338 35.62 151.707 36.0746C152.077 36.522 152.357 36.9446 152.549 37.3423H152.762V34.6364H156.565V51.2663C156.565 52.6655 156.231 53.8232 155.564 54.7393C154.896 55.6555 153.984 56.3409 152.826 56.7955C151.668 57.25 150.354 57.4773 148.884 57.4773ZM148.916 47.7401C149.733 47.7401 150.429 47.5412 151.004 47.1435C151.579 46.7457 152.016 46.174 152.315 45.4283C152.613 44.6825 152.762 43.7876 152.762 42.7436C152.762 41.7138 152.613 40.8118 152.315 40.0376C152.023 39.2635 151.59 38.6634 151.015 38.2372C150.447 37.804 149.747 37.5874 148.916 37.5874C148.057 37.5874 147.339 37.8111 146.764 38.2585C146.189 38.706 145.756 39.3203 145.464 40.1016C145.173 40.8757 145.028 41.7564 145.028 42.7436C145.028 43.745 145.173 44.6222 145.464 45.375C145.763 46.1207 146.199 46.7031 146.775 47.1222C147.357 47.5341 148.071 47.7401 148.916 47.7401ZM164.374 41.4119V51H160.518V34.6364H164.204V37.4169H164.396C164.772 36.5007 165.372 35.7727 166.196 35.233C167.027 34.6932 168.053 34.4233 169.275 34.4233C170.404 34.4233 171.388 34.6648 172.226 35.1477C173.071 35.6307 173.724 36.3303 174.186 37.2464C174.655 38.1626 174.886 39.2741 174.878 40.581V51H171.022V41.1776C171.022 40.0838 170.738 39.228 170.17 38.6101C169.609 37.9922 168.831 37.6832 167.837 37.6832C167.162 37.6832 166.562 37.8324 166.036 38.1307C165.518 38.4219 165.109 38.8445 164.811 39.3984C164.52 39.9524 164.374 40.6236 164.374 41.4119ZM186.24 51V34.6364H190.097V51H186.24ZM188.179 32.3139C187.568 32.3139 187.043 32.1115 186.603 31.7067C186.162 31.2947 185.942 30.8011 185.942 30.2259C185.942 29.6435 186.162 29.1499 186.603 28.745C187.043 28.3331 187.568 28.1271 188.179 28.1271C188.797 28.1271 189.323 28.3331 189.756 28.745C190.196 29.1499 190.416 29.6435 190.416 30.2259C190.416 30.8011 190.196 31.2947 189.756 31.7067C189.323 32.1115 188.797 32.3139 188.179 32.3139ZM197.919 41.4119V51H194.063V34.6364H197.749V37.4169H197.94C198.317 36.5007 198.917 35.7727 199.741 35.233C200.572 34.6932 201.598 34.4233 202.82 34.4233C203.949 34.4233 204.933 34.6648 205.771 35.1477C206.616 35.6307 207.269 36.3303 207.731 37.2464C208.2 38.1626 208.43 39.2741 208.423 40.581V51H204.567V41.1776C204.567 40.0838 204.283 39.228 203.715 38.6101C203.153 37.9922 202.376 37.6832 201.381 37.6832C200.707 37.6832 200.107 37.8324 199.581 38.1307C199.063 38.4219 198.654 38.8445 198.356 39.3984C198.065 39.9524 197.919 40.6236 197.919 41.4119ZM223.162 51L218.539 34.6364H222.47L225.346 46.142H225.495L228.436 34.6364H232.324L235.265 46.0781H235.424L238.258 34.6364H242.2L237.566 51H233.549L230.481 39.9418H230.258L227.189 51H223.162ZM244.893 51V34.6364H248.749V51H244.893ZM246.832 32.3139C246.221 32.3139 245.695 32.1115 245.255 31.7067C244.815 31.2947 244.594 30.8011 244.594 30.2259C244.594 29.6435 244.815 29.1499 245.255 28.745C245.695 28.3331 246.221 28.1271 246.832 28.1271C247.449 28.1271 247.975 28.3331 248.408 28.745C248.849 29.1499 249.069 29.6435 249.069 30.2259C249.069 30.8011 248.849 31.2947 248.408 31.7067C247.975 32.1115 247.449 32.3139 246.832 32.3139ZM260.886 34.6364V37.6193H251.479V34.6364H260.886ZM253.802 30.7159H257.658V46.0781C257.658 46.5966 257.736 46.9943 257.892 47.2713C258.056 47.5412 258.269 47.7259 258.532 47.8253C258.794 47.9247 259.086 47.9744 259.405 47.9744C259.647 47.9744 259.867 47.9567 260.066 47.9212C260.272 47.8857 260.428 47.8537 260.535 47.8253L261.184 50.8402C260.978 50.9112 260.684 50.9893 260.3 51.0746C259.924 51.1598 259.462 51.2095 258.915 51.2237C257.949 51.2521 257.079 51.1065 256.305 50.7869C255.531 50.4602 254.917 49.956 254.462 49.2741C254.015 48.5923 253.794 47.7401 253.802 46.7173V30.7159ZM268.32 41.4119V51H264.463V29.1818H268.234V37.4169H268.426C268.81 36.4936 269.403 35.7656 270.205 35.233C271.015 34.6932 272.045 34.4233 273.295 34.4233C274.431 34.4233 275.422 34.6612 276.267 35.1371C277.112 35.6129 277.766 36.3089 278.227 37.2251C278.696 38.1413 278.93 39.2599 278.93 40.581V51H275.074V41.1776C275.074 40.0767 274.79 39.2209 274.222 38.6101C273.66 37.9922 272.872 37.6832 271.856 37.6832C271.175 37.6832 270.564 37.8324 270.024 38.1307C269.491 38.4219 269.072 38.8445 268.767 39.3984C268.469 39.9524 268.32 40.6236 268.32 41.4119ZM302.331 35.1797C302.231 34.2493 301.812 33.5249 301.073 33.0064C300.342 32.4879 299.39 32.2287 298.218 32.2287C297.394 32.2287 296.688 32.353 296.098 32.6016C295.509 32.8501 295.058 33.1875 294.745 33.6136C294.433 34.0398 294.273 34.5263 294.266 35.0732C294.266 35.5277 294.369 35.9219 294.575 36.2557C294.788 36.5895 295.076 36.8736 295.438 37.108C295.8 37.3352 296.201 37.527 296.642 37.6832C297.082 37.8395 297.526 37.9709 297.973 38.0774L300.019 38.5888C300.843 38.7805 301.634 39.0398 302.394 39.3665C303.161 39.6932 303.847 40.1051 304.451 40.6023C305.061 41.0994 305.544 41.6996 305.899 42.4027C306.255 43.1058 306.432 43.9297 306.432 44.8743C306.432 46.1527 306.105 47.2784 305.452 48.2514C304.799 49.2173 303.854 49.9737 302.618 50.5206C301.389 51.0604 299.902 51.3303 298.154 51.3303C296.457 51.3303 294.983 51.0675 293.733 50.5419C292.49 50.0163 291.517 49.2493 290.814 48.2408C290.118 47.2322 289.742 46.0036 289.685 44.5547H293.573C293.63 45.3146 293.865 45.9467 294.277 46.451C294.688 46.9553 295.225 47.3317 295.885 47.5803C296.553 47.8288 297.299 47.9531 298.122 47.9531C298.982 47.9531 299.735 47.8253 300.381 47.5696C301.034 47.3068 301.546 46.9446 301.915 46.483C302.284 46.0142 302.473 45.4673 302.48 44.8423C302.473 44.2741 302.306 43.8054 301.979 43.4361C301.652 43.0597 301.194 42.7472 300.605 42.4986C300.022 42.2429 299.34 42.0156 298.559 41.8168L296.077 41.1776C294.28 40.7159 292.86 40.0163 291.816 39.0788C290.779 38.1342 290.26 36.8807 290.26 35.3182C290.26 34.0327 290.608 32.907 291.304 31.9411C292.007 30.9751 292.963 30.2259 294.17 29.6932C295.377 29.1534 296.745 28.8835 298.272 28.8835C299.82 28.8835 301.176 29.1534 302.341 29.6932C303.513 30.2259 304.433 30.968 305.1 31.9197C305.768 32.8643 306.112 33.951 306.134 35.1797H302.331ZM321.813 35.1797C321.714 34.2493 321.294 33.5249 320.556 33.0064C319.824 32.4879 318.873 32.2287 317.701 32.2287C316.877 32.2287 316.17 32.353 315.581 32.6016C314.991 32.8501 314.54 33.1875 314.228 33.6136C313.915 34.0398 313.755 34.5263 313.748 35.0732C313.748 35.5277 313.851 35.9219 314.057 36.2557C314.27 36.5895 314.558 36.8736 314.92 37.108C315.282 37.3352 315.684 37.527 316.124 37.6832C316.564 37.8395 317.008 37.9709 317.456 38.0774L319.501 38.5888C320.325 38.7805 321.117 39.0398 321.877 39.3665C322.644 39.6932 323.329 40.1051 323.933 40.6023C324.544 41.0994 325.027 41.6996 325.382 42.4027C325.737 43.1058 325.915 43.9297 325.915 44.8743C325.915 46.1527 325.588 47.2784 324.934 48.2514C324.281 49.2173 323.336 49.9737 322.101 50.5206C320.872 51.0604 319.384 51.3303 317.637 51.3303C315.939 51.3303 314.466 51.0675 313.216 50.5419C311.973 50.0163 311 49.2493 310.297 48.2408C309.601 47.2322 309.224 46.0036 309.167 44.5547H313.056C313.113 45.3146 313.347 45.9467 313.759 46.451C314.171 46.9553 314.707 47.3317 315.368 47.5803C316.035 47.8288 316.781 47.9531 317.605 47.9531C318.464 47.9531 319.217 47.8253 319.863 47.5696C320.517 47.3068 321.028 46.9446 321.397 46.483C321.767 46.0142 321.955 45.4673 321.962 44.8423C321.955 44.2741 321.788 43.8054 321.461 43.4361C321.135 43.0597 320.677 42.7472 320.087 42.4986C319.505 42.2429 318.823 42.0156 318.042 41.8168L315.559 41.1776C313.763 40.7159 312.342 40.0163 311.298 39.0788C310.261 38.1342 309.743 36.8807 309.743 35.3182C309.743 34.0327 310.091 32.907 310.787 31.9411C311.49 30.9751 312.445 30.2259 313.652 29.6932C314.86 29.1534 316.227 28.8835 317.754 28.8835C319.302 28.8835 320.659 29.1534 321.824 29.6932C322.995 30.2259 323.915 30.968 324.583 31.9197C325.25 32.8643 325.595 33.951 325.616 35.1797H321.813ZM348.934 40.0909C348.934 42.4418 348.494 44.4553 347.613 46.1314C346.739 47.8004 345.546 49.0788 344.033 49.9666C342.528 50.8544 340.82 51.2983 338.909 51.2983C336.998 51.2983 335.287 50.8544 333.774 49.9666C332.268 49.0717 331.075 47.7898 330.195 46.1207C329.321 44.4446 328.884 42.4347 328.884 40.0909C328.884 37.7401 329.321 35.7301 330.195 34.0611C331.075 32.3849 332.268 31.103 333.774 30.2152C335.287 29.3274 336.998 28.8835 338.909 28.8835C340.82 28.8835 342.528 29.3274 344.033 30.2152C345.546 31.103 346.739 32.3849 347.613 34.0611C348.494 35.7301 348.934 37.7401 348.934 40.0909ZM344.96 40.0909C344.96 38.4361 344.701 37.0405 344.182 35.9041C343.671 34.7607 342.961 33.8977 342.052 33.3153C341.143 32.7259 340.095 32.4311 338.909 32.4311C337.723 32.4311 336.675 32.7259 335.766 33.3153C334.857 33.8977 334.143 34.7607 333.625 35.9041C333.114 37.0405 332.858 38.4361 332.858 40.0909C332.858 41.7457 333.114 43.1449 333.625 44.2884C334.143 45.4247 334.857 46.2876 335.766 46.8771C336.675 47.4595 337.723 47.7507 338.909 47.7507C340.095 47.7507 341.143 47.4595 342.052 46.8771C342.961 46.2876 343.671 45.4247 344.182 44.2884C344.701 43.1449 344.96 41.7457 344.96 40.0909Z" fill="white"/>
</g>
<defs>
<filter id="filter0_d_5081_142801" x="-4" y="0" width="438" height="88" filterUnits="userSpaceOnUse" color-interpolation-filters="sRGB">
<feFlood flood-opacity="0" result="BackgroundImageFix"/>
<feColorMatrix in="SourceAlpha" type="matrix" values="0 0 0 0 0 0 0 0 0 0 0 0 0 0 0 0 0 0 127 0" result="hardAlpha"/>
<feOffset dy="4"/>
<feGaussianBlur stdDeviation="2"/>
<feComposite in2="hardAlpha" operator="out"/>
<feColorMatrix type="matrix" values="0 0 0 0 0 0 0 0 0 0 0 0 0 0 0 0 0 0 0.25 0"/>
<feBlend mode="normal" in2="BackgroundImageFix" result="effect1_dropShadow_5081_142801"/>
<feBlend mode="normal" in="SourceGraphic" in2="effect1_dropShadow_5081_142801" result="shape"/>
</filter>
<filter id="filter1_d_5081_142801" x="-2" y="0" width="88" height="88" filterUnits="userSpaceOnUse" color-interpolation-filters="sRGB">
<feFlood flood-opacity="0" result="BackgroundImageFix"/>
<feColorMatrix in="SourceAlpha" type="matrix" values="0 0 0 0 0 0 0 0 0 0 0 0 0 0 0 0 0 0 127 0" result="hardAlpha"/>
<feOffset dx="2" dy="4"/>
<feGaussianBlur stdDeviation="2"/>
<feComposite in2="hardAlpha" operator="out"/>
<feColorMatrix type="matrix" values="0 0 0 0 0 0 0 0 0 0 0 0 0 0 0 0 0 0 0.25 0"/>
<feBlend mode="normal" in2="BackgroundImageFix" result="effect1_dropShadow_5081_142801"/>
<feBlend mode="normal" in="SourceGraphic" in2="effect1_dropShadow_5081_142801" result="shape"/>
</filter>
<clipPath id="clip0_5081_142801">
<rect width="430" height="80" rx="6" fill="white"/>
</clipPath>
<clipPath id="clip1_5081_142801">
<rect width="56" height="56" fill="white" transform="translate(12 12)"/>
</clipPath>
</defs>
</svg>
