<svg width="430" height="80" viewBox="0 0 430 80" fill="none" xmlns="http://www.w3.org/2000/svg">
<g clip-path="url(#clip0_5081_142801)">
<path d="M31.2429 39.0586C33.8676 38.3954 36.5195 39.3192 38.1904 41.2235L51.212 37.9338L54.9471 39.7873L51.5355 44.3854L49.2276 43.0086L47.8507 45.3164L45.5429 43.9395L44.166 46.2474L39.7419 47.3649C39.176 49.8342 37.281 51.9065 34.6563 52.5696C30.9254 53.5121 27.1367 51.2518 26.1939 47.5209C25.2512 43.79 27.5118 40.0012 31.2427 39.0585L31.2429 39.0586ZM30.3345 44.5145C29.317 44.7717 28.7004 45.8048 28.9576 46.8223C29.2148 47.8398 30.2479 48.4564 31.2655 48.1992C32.283 47.942 32.8995 46.9089 32.6423 45.8914C32.3851 44.8738 31.352 44.2573 30.3345 44.5145Z" fill="#2C71C7"/>
<path d="M44.3998 23.9996C51.678 23.9996 57.5998 29.9217 57.5998 37.1996C57.5998 37.2549 57.5948 37.3096 57.5898 37.364C57.5836 37.4499 57.5786 37.5377 57.5761 37.6233L57.5295 39.093L58.9892 39.2643C63.2141 39.7602 66.3998 43.3449 66.3998 47.6003C66.3998 52.2321 62.6311 56.0003 57.9998 56.0003C57.9545 56.0003 57.9089 55.9953 57.8636 55.9921C57.7983 55.9884 57.7311 55.9834 57.6657 55.9821L55.9995 55.9343V55.9996H22.3227L21.7752 55.9393C17.1149 55.4228 13.5992 51.4937 13.5992 46.7993C13.5992 42.9131 16.0676 39.429 19.7405 38.1321L20.7802 37.7649L20.8077 36.6625C20.8811 33.5993 23.3377 31.1993 26.3989 31.1993C27.6789 31.1993 28.8845 31.6237 29.8896 32.4262L31.5055 33.7187L32.3486 31.8284C34.4736 27.0746 39.2037 24.0002 44.399 24.0002L44.3998 23.9996ZM44.399 22.3999C38.3721 22.3999 33.1974 26.0081 30.8878 31.1767C29.6565 30.1917 28.0972 29.5995 26.3985 29.5995C22.4816 29.5995 19.3019 32.7292 19.2069 36.6239C15.0118 38.1073 11.999 42.0964 11.999 46.8007C11.999 52.3591 16.1997 56.9327 21.599 57.5303V57.6006H57.599V57.5812C57.7322 57.5856 57.8628 57.6006 57.999 57.6006C63.5225 57.6006 67.999 53.1231 67.999 47.6006C67.999 42.4772 64.1431 38.2582 59.175 37.6766C59.1806 37.5172 59.1994 37.3613 59.1994 37.2007C59.1994 29.0279 52.5728 22.4007 44.3994 22.4007" fill="#2C71C7"/>
</g>
<path d="M86.7017 52V28.7273H90.9176V48.4659H101.168V52H86.7017ZM112.259 52.3409C110.554 52.3409 109.077 51.9659 107.827 51.2159C106.577 50.4659 105.607 49.4167 104.918 48.0682C104.236 46.7197 103.895 45.1439 103.895 43.3409C103.895 41.5379 104.236 39.9583 104.918 38.6023C105.607 37.2462 106.577 36.1932 107.827 35.4432C109.077 34.6932 110.554 34.3182 112.259 34.3182C113.963 34.3182 115.44 34.6932 116.69 35.4432C117.94 36.1932 118.906 37.2462 119.588 38.6023C120.277 39.9583 120.622 41.5379 120.622 43.3409C120.622 45.1439 120.277 46.7197 119.588 48.0682C118.906 49.4167 117.94 50.4659 116.69 51.2159C115.44 51.9659 113.963 52.3409 112.259 52.3409ZM112.281 49.0455C113.205 49.0455 113.978 48.7917 114.599 48.2841C115.221 47.7689 115.683 47.0795 115.986 46.2159C116.296 45.3523 116.452 44.3902 116.452 43.3295C116.452 42.2614 116.296 41.2955 115.986 40.4318C115.683 39.5606 115.221 38.8674 114.599 38.3523C113.978 37.8371 113.205 37.5795 112.281 37.5795C111.334 37.5795 110.546 37.8371 109.918 38.3523C109.296 38.8674 108.83 39.5606 108.52 40.4318C108.217 41.2955 108.065 42.2614 108.065 43.3295C108.065 44.3902 108.217 45.3523 108.52 46.2159C108.83 47.0795 109.296 47.7689 109.918 48.2841C110.546 48.7917 111.334 49.0455 112.281 49.0455ZM131.705 58.9091C130.227 58.9091 128.958 58.7083 127.898 58.3068C126.837 57.9129 125.985 57.3826 125.341 56.7159C124.697 56.0492 124.25 55.3106 124 54.5L127.705 53.6023C127.871 53.9432 128.114 54.2803 128.432 54.6136C128.75 54.9545 129.178 55.2348 129.716 55.4545C130.261 55.6818 130.947 55.7955 131.773 55.7955C132.939 55.7955 133.905 55.5114 134.67 54.9432C135.436 54.3826 135.818 53.4583 135.818 52.1705V48.8636H135.614C135.402 49.2879 135.091 49.7235 134.682 50.1705C134.28 50.6174 133.746 50.9924 133.08 51.2955C132.42 51.5985 131.591 51.75 130.591 51.75C129.25 51.75 128.034 51.4356 126.943 50.8068C125.86 50.1705 124.996 49.2235 124.352 47.9659C123.716 46.7008 123.398 45.1174 123.398 43.2159C123.398 41.2992 123.716 39.6818 124.352 38.3636C124.996 37.0379 125.864 36.0341 126.955 35.3523C128.045 34.6629 129.261 34.3182 130.602 34.3182C131.625 34.3182 132.466 34.4924 133.125 34.8409C133.792 35.1818 134.322 35.5947 134.716 36.0795C135.11 36.5568 135.409 37.0076 135.614 37.4318H135.841V34.5455H139.898V52.2841C139.898 53.7765 139.542 55.0114 138.83 55.9886C138.117 56.9659 137.144 57.697 135.909 58.1818C134.674 58.6667 133.273 58.9091 131.705 58.9091ZM131.739 48.5227C132.61 48.5227 133.352 48.3106 133.966 47.8864C134.58 47.4621 135.045 46.8523 135.364 46.0568C135.682 45.2614 135.841 44.3068 135.841 43.1932C135.841 42.0947 135.682 41.1326 135.364 40.3068C135.053 39.4811 134.591 38.8409 133.977 38.3864C133.371 37.9242 132.625 37.6932 131.739 37.6932C130.822 37.6932 130.057 37.9318 129.443 38.4091C128.83 38.8864 128.367 39.5417 128.057 40.375C127.746 41.2008 127.591 42.1402 127.591 43.1932C127.591 44.2614 127.746 45.197 128.057 46C128.375 46.7955 128.841 47.4167 129.455 47.8636C130.076 48.303 130.837 48.5227 131.739 48.5227ZM144.114 52V34.5455H148.227V52H144.114ZM146.182 32.0682C145.53 32.0682 144.97 31.8523 144.5 31.4205C144.03 30.9811 143.795 30.4545 143.795 29.8409C143.795 29.2197 144.03 28.6932 144.5 28.2614C144.97 27.822 145.53 27.6023 146.182 27.6023C146.841 27.6023 147.402 27.822 147.864 28.2614C148.333 28.6932 148.568 29.2197 148.568 29.8409C148.568 30.4545 148.333 30.9811 147.864 31.4205C147.402 31.8523 146.841 32.0682 146.182 32.0682ZM156.571 41.7727V52H152.457V34.5455H156.389V37.5114H156.594C156.995 36.5341 157.635 35.7576 158.514 35.1818C159.401 34.6061 160.495 34.3182 161.798 34.3182C163.003 34.3182 164.052 34.5758 164.946 35.0909C165.848 35.6061 166.545 36.3523 167.037 37.3295C167.537 38.3068 167.783 39.4924 167.776 40.8864V52H163.662V41.5227C163.662 40.3561 163.359 39.4432 162.753 38.7841C162.154 38.125 161.325 37.7955 160.264 37.7955C159.545 37.7955 158.904 37.9545 158.344 38.2727C157.791 38.5833 157.355 39.0341 157.037 39.625C156.726 40.2159 156.571 40.9318 156.571 41.7727ZM183.497 52L178.565 34.5455H182.759L185.827 46.8182H185.986L189.122 34.5455H193.27L196.406 46.75H196.577L199.599 34.5455H203.804L198.861 52H194.577L191.304 40.2045H191.065L187.793 52H183.497ZM206.676 52V34.5455H210.79V52H206.676ZM208.744 32.0682C208.093 32.0682 207.532 31.8523 207.062 31.4205C206.593 30.9811 206.358 30.4545 206.358 29.8409C206.358 29.2197 206.593 28.6932 207.062 28.2614C207.532 27.822 208.093 27.6023 208.744 27.6023C209.403 27.6023 209.964 27.822 210.426 28.2614C210.896 28.6932 211.131 29.2197 211.131 29.8409C211.131 30.4545 210.896 30.9811 210.426 31.4205C209.964 31.8523 209.403 32.0682 208.744 32.0682ZM223.736 34.5455V37.7273H213.702V34.5455H223.736ZM216.179 30.3636H220.293V46.75C220.293 47.303 220.376 47.7273 220.543 48.0227C220.717 48.3106 220.944 48.5076 221.224 48.6136C221.505 48.7197 221.815 48.7727 222.156 48.7727C222.414 48.7727 222.649 48.7538 222.861 48.7159C223.08 48.678 223.247 48.6439 223.361 48.6136L224.054 51.8295C223.834 51.9053 223.52 51.9886 223.111 52.0795C222.709 52.1705 222.217 52.2235 221.634 52.2386C220.603 52.2689 219.675 52.1136 218.849 51.7727C218.024 51.4242 217.368 50.8864 216.884 50.1591C216.406 49.4318 216.171 48.5227 216.179 47.4318V30.3636ZM231.665 41.7727V52H227.551V28.7273H231.574V37.5114H231.778C232.188 36.5265 232.82 35.75 233.676 35.1818C234.54 34.6061 235.638 34.3182 236.972 34.3182C238.184 34.3182 239.241 34.572 240.142 35.0795C241.044 35.5871 241.741 36.3295 242.233 37.3068C242.733 38.2841 242.983 39.4773 242.983 40.8864V52H238.869V41.5227C238.869 40.3485 238.566 39.4356 237.96 38.7841C237.362 38.125 236.521 37.7955 235.438 37.7955C234.71 37.7955 234.059 37.9545 233.483 38.2727C232.915 38.5833 232.468 39.0341 232.142 39.625C231.824 40.2159 231.665 40.9318 231.665 41.7727ZM268.909 39.1591L265.159 39.5682C265.053 39.1894 264.867 38.8333 264.602 38.5C264.345 38.1667 263.996 37.8977 263.557 37.6932C263.117 37.4886 262.58 37.3864 261.943 37.3864C261.087 37.3864 260.367 37.572 259.784 37.9432C259.208 38.3144 258.924 38.7955 258.932 39.3864C258.924 39.8939 259.11 40.3068 259.489 40.625C259.875 40.9432 260.511 41.2045 261.398 41.4091L264.375 42.0455C266.027 42.4015 267.254 42.9659 268.057 43.7386C268.867 44.5114 269.277 45.5227 269.284 46.7727C269.277 47.8712 268.955 48.8409 268.318 49.6818C267.689 50.5152 266.814 51.1667 265.693 51.6364C264.572 52.1061 263.284 52.3409 261.83 52.3409C259.693 52.3409 257.973 51.8939 256.67 51C255.367 50.0985 254.591 48.8447 254.341 47.2386L258.352 46.8523C258.534 47.6402 258.92 48.2348 259.511 48.6364C260.102 49.0379 260.871 49.2386 261.818 49.2386C262.795 49.2386 263.58 49.0379 264.17 48.6364C264.769 48.2348 265.068 47.7386 265.068 47.1477C265.068 46.6477 264.875 46.2348 264.489 45.9091C264.11 45.5833 263.519 45.3333 262.716 45.1591L259.739 44.5341C258.064 44.1856 256.826 43.5985 256.023 42.7727C255.22 41.9394 254.822 40.8864 254.83 39.6136C254.822 38.5379 255.114 37.6061 255.705 36.8182C256.303 36.0227 257.133 35.4091 258.193 34.9773C259.261 34.5379 260.492 34.3182 261.886 34.3182C263.932 34.3182 265.542 34.7538 266.716 35.625C267.898 36.4962 268.629 37.6742 268.909 39.1591ZM286.472 39.1591L282.722 39.5682C282.616 39.1894 282.43 38.8333 282.165 38.5C281.907 38.1667 281.559 37.8977 281.119 37.6932C280.68 37.4886 280.142 37.3864 279.506 37.3864C278.65 37.3864 277.93 37.572 277.347 37.9432C276.771 38.3144 276.487 38.7955 276.494 39.3864C276.487 39.8939 276.672 40.3068 277.051 40.625C277.438 40.9432 278.074 41.2045 278.96 41.4091L281.938 42.0455C283.589 42.4015 284.816 42.9659 285.619 43.7386C286.43 44.5114 286.839 45.5227 286.847 46.7727C286.839 47.8712 286.517 48.8409 285.881 49.6818C285.252 50.5152 284.377 51.1667 283.256 51.6364C282.134 52.1061 280.847 52.3409 279.392 52.3409C277.256 52.3409 275.536 51.8939 274.233 51C272.93 50.0985 272.153 48.8447 271.903 47.2386L275.915 46.8523C276.097 47.6402 276.483 48.2348 277.074 48.6364C277.665 49.0379 278.434 49.2386 279.381 49.2386C280.358 49.2386 281.142 49.0379 281.733 48.6364C282.331 48.2348 282.631 47.7386 282.631 47.1477C282.631 46.6477 282.438 46.2348 282.051 45.9091C281.672 45.5833 281.081 45.3333 280.278 45.1591L277.301 44.5341C275.627 44.1856 274.388 43.5985 273.585 42.7727C272.782 41.9394 272.384 40.8864 272.392 39.6136C272.384 38.5379 272.676 37.6061 273.267 36.8182C273.866 36.0227 274.695 35.4091 275.756 34.9773C276.824 34.5379 278.055 34.3182 279.449 34.3182C281.494 34.3182 283.104 34.7538 284.278 35.625C285.46 36.4962 286.191 37.6742 286.472 39.1591ZM297.852 52.3409C296.148 52.3409 294.67 51.9659 293.42 51.2159C292.17 50.4659 291.201 49.4167 290.511 48.0682C289.83 46.7197 289.489 45.1439 289.489 43.3409C289.489 41.5379 289.83 39.9583 290.511 38.6023C291.201 37.2462 292.17 36.1932 293.42 35.4432C294.67 34.6932 296.148 34.3182 297.852 34.3182C299.557 34.3182 301.034 34.6932 302.284 35.4432C303.534 36.1932 304.5 37.2462 305.182 38.6023C305.871 39.9583 306.216 41.5379 306.216 43.3409C306.216 45.1439 305.871 46.7197 305.182 48.0682C304.5 49.4167 303.534 50.4659 302.284 51.2159C301.034 51.9659 299.557 52.3409 297.852 52.3409ZM297.875 49.0455C298.799 49.0455 299.572 48.7917 300.193 48.2841C300.814 47.7689 301.277 47.0795 301.58 46.2159C301.89 45.3523 302.045 44.3902 302.045 43.3295C302.045 42.2614 301.89 41.2955 301.58 40.4318C301.277 39.5606 300.814 38.8674 300.193 38.3523C299.572 37.8371 298.799 37.5795 297.875 37.5795C296.928 37.5795 296.14 37.8371 295.511 38.3523C294.89 38.8674 294.424 39.5606 294.114 40.4318C293.811 41.2955 293.659 42.2614 293.659 43.3295C293.659 44.3902 293.811 45.3523 294.114 46.2159C294.424 47.0795 294.89 47.7689 295.511 48.2841C296.14 48.7917 296.928 49.0455 297.875 49.0455Z" fill="#2C71C7"/>
<rect x="0.5" y="0.5" width="429" height="79" rx="5.5" stroke="#2C71C7"/>
<defs>
<clipPath id="clip0_5081_142801">
<rect width="56" height="56" fill="white" transform="translate(12 12)"/>
</clipPath>
</defs>
</svg>
