<svg width="24" height="24" viewBox="0 0 24 24" fill="none" xmlns="http://www.w3.org/2000/svg">
<path d="M19.35 10.04C18.67 6.59 15.64 4 12 4C9.11 4 6.6 5.64 5.35 8.04C2.34 8.36 0 10.91 0 14C0 17.31 2.69 20 6 20H19C21.76 20 24 17.76 24 15C24 12.36 21.95 10.22 19.35 10.04ZM19 18H6C3.79 18 2 16.21 2 14C2 11.95 3.53 10.24 5.56 10.03L6.63 9.92L7.13 8.97C8.08 7.14 9.94 6 12 6C14.62 6 16.88 7.86 17.39 10.43L17.69 11.93L19.22 12.04C20.78 12.14 22 13.45 22 15C22 16.65 20.65 18 19 18Z" fill="#C72C71"/>
<path d="M1.7002 13.2C1.7002 12.0398 2.7002 10.4109 5.7002 10.4109C6.55176 10.4109 7.7002 10.9109 8.2002 11.9109L9.83496 10.3387C8.85449 9.03789 7.30176 8.2 5.55566 8.2C2.60449 8.2 0.200195 10.6004 0.200195 13.5555C0.200195 15.3016 0.901367 17.2215 2.2002 18.2L3.2002 17.2C2.46777 16.8699 1.7002 14.0555 1.7002 13.2Z" fill="#C72C71"/>
</svg>
