<svg width="3200" height="3200" viewBox="0 0 3200 3200" fill="none" xmlns="http://www.w3.org/2000/svg">
<path d="M3200 0H0V3200H3200V0Z" fill="#C72C71"/>
<path d="M3100 1598.53C3100 1796.17 2987.91 1970.21 2917.11 2144.25C2846.31 2318.29 2796.17 2524.78 2660.47 2660.47C2524.78 2796.17 2324.19 2843.36 2144.25 2917.11C1964.31 2990.86 1796.17 3100 1598.53 3100C1400.88 3100 1226.84 2987.91 1052.8 2917.11C878.761 2846.31 672.271 2796.17 536.578 2660.47C400.885 2524.78 356.637 2324.19 282.891 2144.25C209.145 1964.31 100 1796.17 100 1598.53C100 1400.88 212.094 1226.84 282.891 1055.75C353.687 884.661 403.835 675.221 539.528 539.528C675.221 403.835 875.811 356.637 1055.75 282.891C1235.69 209.145 1400.88 100 1598.53 100C1796.17 100 1973.16 212.094 2144.25 282.891C2315.34 353.687 2524.78 403.835 2660.47 539.528C2796.17 675.221 2843.36 875.811 2917.11 1055.75C2990.86 1235.69 3100 1400.88 3100 1598.53Z" fill="white"/>
<path d="M1687.5 1089.85C1710.9 1066.53 1723.75 1035.4 1723.75 1002.33C1723.75 934.075 1668.2 878.55 1599.95 878.55C1531.72 878.55 1476.25 934.075 1476.17 1002.25C1476.17 1035.3 1489.07 1066.45 1512.47 1089.83L1935.05 1512.5L1847.55 1599.95L1424.95 1177.38C1380.12 1132.5 1352.42 1070.6 1352.42 1002.25V1002.33C1352.42 865.6 1463.27 754.775 1599.97 754.775C1736.72 754.775 1847.55 865.625 1847.55 1002.33C1847.55 1070.73 1819.87 1132.58 1775.07 1177.4L1687.5 1089.85Z" fill="url(#paint0_linear_12_823)" stroke="url(#paint1_linear_12_823)" stroke-width="25" stroke-miterlimit="10" stroke-linecap="round" stroke-linejoin="round"/>
<path d="M2110.1 1687.55C2133.5 1710.95 2164.53 1723.82 2197.65 1723.82C2265.88 1723.82 2321.38 1668.25 2321.38 1600.05C2321.38 1531.8 2265.95 1476.27 2197.75 1476.22V1476.27C2164.65 1476.27 2133.6 1489.17 2110.15 1512.5L1687.5 1935.1L1599.98 1847.6L2022.65 1425C2067.5 1380.2 2129.38 1352.47 2197.75 1352.47L2197.65 1352.42C2334.38 1352.42 2445.2 1463.32 2445.2 1600.05C2445.2 1736.77 2334.33 1847.6 2197.65 1847.6C2129.23 1847.6 2067.38 1819.87 2022.6 1775.1L2110.1 1687.55Z" fill="url(#paint2_linear_12_823)" stroke="url(#paint3_linear_12_823)" stroke-width="25" stroke-miterlimit="10" stroke-linecap="round" stroke-linejoin="round"/>
<path d="M1089.85 1512.5C1066.4 1489.07 1035.37 1476.22 1002.3 1476.22C934.05 1476.22 878.525 1531.75 878.525 1599.95C878.525 1668.25 933.975 1723.77 1002.23 1723.82V1723.77C1035.3 1723.77 1066.35 1710.87 1089.8 1687.5L1512.5 1264.92L1599.97 1352.42L1177.35 1775.02C1132.48 1819.82 1070.55 1847.55 1002.23 1847.55L1002.3 1847.6C865.525 1847.6 754.75 1736.7 754.75 1599.95C754.75 1463.25 865.55 1352.42 1002.3 1352.42C1070.7 1352.42 1132.55 1380.12 1177.4 1424.9L1089.85 1512.5Z" fill="url(#paint4_linear_12_823)" stroke="url(#paint5_linear_12_823)" stroke-width="25" stroke-miterlimit="10" stroke-linecap="round" stroke-linejoin="round"/>
<path d="M2197.65 1197.65V1197.75C2100.62 1197.75 2009.08 1232.13 1936.2 1294.73L1905.55 1264.07C1968.15 1191.25 2002.25 1099.42 2002.25 1002.3C2002.3 780.55 1821.88 600 1599.98 600C1378.15 600 1197.68 780.55 1197.68 1002.33C1197.7 1099.33 1232.12 1190.95 1294.67 1263.8L1264.1 1294.43C1191.2 1231.83 1099.32 1197.65 1002.3 1197.65C780.475 1197.65 600 1378.2 600 1599.95C600 1821.88 780.475 2002.35 1002.3 2002.35V2002.3C1099.3 2002.3 1190.87 1967.9 1263.77 1905.27L1294.35 1935.9C1231.77 2008.8 1197.6 2100.65 1197.6 2197.67C1197.62 2419.47 1378.1 2600 1599.98 2600C1821.85 2600 2002.3 2419.47 2002.3 2197.65H2002.25C2002.25 2100.62 1967.82 2009.13 1905.25 1936.23L1935.9 1905.55C2008.8 1968.2 2100.6 2002.33 2197.7 2002.33C2419.52 2002.35 2600 1821.87 2600 1600.05C2600 1378.2 2419.52 1197.65 2197.65 1197.65Z" stroke="url(#paint6_linear_12_823)" stroke-width="25" stroke-miterlimit="10" stroke-linecap="round" stroke-linejoin="round"/>
<path d="M1512.42 2110.1C1489.07 2133.5 1476.2 2164.55 1476.2 2197.65C1476.2 2265.87 1531.72 2321.42 1599.97 2321.42C1668.2 2321.42 1723.72 2265.95 1723.77 2197.75H1723.72C1723.72 2164.65 1710.82 2133.65 1687.47 2110.15L1264.85 1687.5L1352.35 1599.95L1774.95 2022.65C1819.8 2067.5 1847.5 2129.38 1847.5 2197.75L1847.55 2197.65C1847.55 2334.37 1736.62 2445.2 1599.95 2445.2C1463.17 2445.2 1352.35 2334.32 1352.35 2197.65C1352.35 2129.25 1380.07 2067.37 1424.87 2022.6L1512.42 2110.1Z" fill="url(#paint7_linear_12_823)" stroke="url(#paint8_linear_12_823)" stroke-width="25" stroke-miterlimit="10" stroke-linecap="round" stroke-linejoin="round"/>
<path d="M1352.2 1599.95L1599.78 1847.6L1847.37 1600.08L1599.79 1352.43L1352.2 1599.95Z" stroke="url(#paint9_linear_12_823)" stroke-width="25" stroke-miterlimit="10" stroke-linecap="round" stroke-linejoin="round"/>
<defs>
<linearGradient id="paint0_linear_12_823" x1="1352.42" y1="754.775" x2="1935.05" y2="754.775" gradientUnits="userSpaceOnUse">
<stop stop-color="#2D388A"/>
<stop offset="1" stop-color="#00AEEF"/>
</linearGradient>
<linearGradient id="paint1_linear_12_823" x1="1352.42" y1="754.775" x2="1935.05" y2="754.775" gradientUnits="userSpaceOnUse">
<stop stop-color="#2D388A"/>
<stop offset="1" stop-color="#00AEEF"/>
</linearGradient>
<linearGradient id="paint2_linear_12_823" x1="1599.98" y1="1352.42" x2="2445.2" y2="1352.42" gradientUnits="userSpaceOnUse">
<stop stop-color="#2D388A"/>
<stop offset="1" stop-color="#00AEEF"/>
</linearGradient>
<linearGradient id="paint3_linear_12_823" x1="1599.98" y1="1352.42" x2="2445.2" y2="1352.42" gradientUnits="userSpaceOnUse">
<stop stop-color="#2D388A"/>
<stop offset="1" stop-color="#00AEEF"/>
</linearGradient>
<linearGradient id="paint4_linear_12_823" x1="754.75" y1="1264.92" x2="1599.97" y2="1264.92" gradientUnits="userSpaceOnUse">
<stop stop-color="#2D388A"/>
<stop offset="1" stop-color="#00AEEF"/>
</linearGradient>
<linearGradient id="paint5_linear_12_823" x1="754.75" y1="1264.92" x2="1599.97" y2="1264.92" gradientUnits="userSpaceOnUse">
<stop stop-color="#2D388A"/>
<stop offset="1" stop-color="#00AEEF"/>
</linearGradient>
<linearGradient id="paint6_linear_12_823" x1="600" y1="600" x2="2600" y2="600" gradientUnits="userSpaceOnUse">
<stop stop-color="#2D388A"/>
<stop offset="1" stop-color="#00AEEF"/>
</linearGradient>
<linearGradient id="paint7_linear_12_823" x1="1264.85" y1="1599.95" x2="1847.55" y2="1599.95" gradientUnits="userSpaceOnUse">
<stop stop-color="#2D388A"/>
<stop offset="1" stop-color="#00AEEF"/>
</linearGradient>
<linearGradient id="paint8_linear_12_823" x1="1264.85" y1="1599.95" x2="1847.55" y2="1599.95" gradientUnits="userSpaceOnUse">
<stop stop-color="#2D388A"/>
<stop offset="1" stop-color="#00AEEF"/>
</linearGradient>
<linearGradient id="paint9_linear_12_823" x1="1599.78" y1="1847.6" x2="1352.2" y2="1599.95" gradientUnits="userSpaceOnUse">
<stop stop-color="#2D388A"/>
<stop offset="1" stop-color="#00AEEF"/>
</linearGradient>
</defs>
</svg>
