
        <svg xmlns="http://www.w3.org/2000/svg" xmlns:xlink="http://www.w3.org/1999/xlink" version="1.1" width="3200" 
        height="3200" viewBox="0 0 3200 3200">
			<rect fill="#c72c71" width="3200" height="3200"/>
			<g transform="scale(10) translate(10, 10)">
				<defs id="SvgjsDefs1197"><linearGradient id="SvgjsLinearGradient1204"><stop id="SvgjsStop1205" stop-color="#2d388a" offset="0"></stop><stop id="SvgjsStop1206" stop-color="#00aeef" offset="1"></stop></linearGradient></defs><g id="SvgjsG1198" featureKey="rootContainer" transform="matrix(2.9498525958921897,0,0,2.9498525958921897,0,0)" fill="#ffffff"><path xmlns="http://www.w3.org/2000/svg" d="M101.7 50.8c0 6.7-3.8 12.6-6.2 18.5s-4.1 12.9-8.7 17.5-11.4 6.2-17.5 8.7-11.8 6.2-18.5 6.2-12.6-3.8-18.5-6.2-12.9-4.1-17.5-8.7-6.1-11.4-8.6-17.5S0 57.5 0 50.8s3.8-12.6 6.2-18.4 4.1-12.9 8.7-17.5 11.4-6.2 17.5-8.7S44.1 0 50.8 0s12.7 3.8 18.5 6.2 12.9 4.1 17.5 8.7 6.2 11.4 8.7 17.5 6.2 11.7 6.2 18.4z"></path></g><g id="SvgjsG1199" featureKey="symbolFeature-0" transform="matrix(1.25,0,0,1.25,87.5,62.5)" fill="url(#SvgjsLinearGradient1204)"><path xmlns="http://www.w3.org/2000/svg" stroke="url(#SvgjsLinearGradient1204)" stroke-width="2" stroke-linecap="round" stroke-linejoin="round" stroke-miterlimit="10" d="M53.5,29.594  c0.936-0.933,1.45-2.178,1.45-3.501c0-2.73-2.222-4.951-4.952-4.951c-2.729,0-4.948,2.221-4.951,4.948l0,0  c0,1.322,0.516,2.568,1.452,3.503L63.402,46.5l-3.5,3.498L42.998,33.095c-1.793-1.795-2.901-4.271-2.901-7.005v0.003  c0-5.469,4.434-9.902,9.902-9.902c5.47,0,9.903,4.434,9.903,9.902c0,2.736-1.107,5.21-2.899,7.003L53.5,29.594z"></path><path xmlns="http://www.w3.org/2000/svg" stroke="url(#SvgjsLinearGradient1204)" stroke-width="2" stroke-linecap="round" stroke-linejoin="round" stroke-miterlimit="10" d="M70.404,53.502  c0.936,0.936,2.177,1.451,3.502,1.451c2.729,0,4.949-2.223,4.949-4.951c0-2.73-2.217-4.951-4.945-4.953v0.002  c-1.324,0-2.566,0.516-3.504,1.449L53.5,63.404l-3.501-3.5L66.906,43c1.794-1.792,4.269-2.901,7.004-2.901l-0.004-0.002  c5.469,0,9.902,4.436,9.902,9.905s-4.435,9.902-9.902,9.902c-2.737,0-5.211-1.109-7.002-2.9L70.404,53.502z"></path><path xmlns="http://www.w3.org/2000/svg" stroke="url(#SvgjsLinearGradient1204)" stroke-width="2" stroke-linecap="round" stroke-linejoin="round" stroke-miterlimit="10" d="M29.594,46.5  c-0.938-0.937-2.179-1.451-3.502-1.451c-2.73,0-4.951,2.221-4.951,4.949c0,2.732,2.218,4.953,4.948,4.955v-0.002  c1.323,0,2.565-0.516,3.503-1.451L46.5,36.597l3.499,3.5L33.094,57.001c-1.795,1.792-4.272,2.901-7.005,2.901l0.003,0.002  c-5.471,0-9.902-4.436-9.902-9.906c0-5.468,4.432-9.901,9.902-9.901c2.736,0,5.21,1.108,7.004,2.899L29.594,46.5z"></path><path xmlns="http://www.w3.org/2000/svg" fill="none" stroke="url(#SvgjsLinearGradient1204)" stroke-width="2" stroke-linecap="round" stroke-linejoin="round" stroke-miterlimit="10" d="  M73.906,33.906v0.004c-3.881,0-7.543,1.375-10.458,3.879l-1.226-1.226c2.504-2.913,3.868-6.586,3.868-10.471  C66.092,17.222,58.875,10,49.999,10c-8.873,0-16.092,7.222-16.092,16.093l0,0c0.001,3.88,1.378,7.545,3.88,10.459l-1.223,1.225  c-2.916-2.504-6.591-3.871-10.472-3.871C17.219,33.906,10,41.128,10,49.998c0,8.877,7.219,16.096,16.092,16.096v-0.002  c3.88,0,7.543-1.376,10.459-3.881l1.223,1.225c-2.503,2.916-3.87,6.59-3.87,10.471C33.905,82.779,41.124,90,49.999,90  s16.093-7.221,16.093-16.094H66.09c0-3.881-1.377-7.541-3.88-10.457l1.226-1.227c2.916,2.506,6.588,3.871,10.472,3.871  C82.781,66.094,90,58.875,90,50.002C90,41.128,82.781,33.906,73.906,33.906z"></path><path xmlns="http://www.w3.org/2000/svg" stroke="url(#SvgjsLinearGradient1204)" stroke-width="2" stroke-linecap="round" stroke-linejoin="round" stroke-miterlimit="10" d="M46.497,70.404  c-0.934,0.936-1.449,2.178-1.449,3.502c0,2.729,2.221,4.951,4.951,4.951c2.729,0,4.95-2.219,4.952-4.947h-0.002  c0-1.324-0.516-2.564-1.45-3.504L36.594,53.5l3.5-3.502l16.904,16.908C58.792,68.7,59.9,71.175,59.9,73.91l0.002-0.004  c0,5.469-4.437,9.902-9.904,9.902c-5.471,0-9.904-4.435-9.904-9.902c0-2.736,1.109-5.211,2.901-7.002L46.497,70.404z"></path><rect xmlns="http://www.w3.org/2000/svg" x="42.991" y="42.997" transform="matrix(-0.707 -0.7072 0.7072 -0.707 49.9782 120.706)" fill="none" stroke="url(#SvgjsLinearGradient1204)" stroke-width="2" stroke-linecap="round" stroke-linejoin="round" stroke-miterlimit="10" width="14.007" height="14.004"></rect></g><g id="SvgjsG1200" featureKey="nameFeature-0" transform="matrix(1.124353562324411,0,0,1.124353562324411,46.357092570878784,180.1135590921689)" fill="#c72c71"><path d="M16.28 30.759999999999998 l0 -1.24 c0 -0.2 0.16 -0.36 0.36 -0.36 l4.56 0 c0.2 0 0.36 0.16 0.36 0.36 l0 2.52 c0 5.88 -3.16 8.36 -9.12 8.36 c-5.56 0 -9.2 -2.2 -9.2 -8.36 l0 -10.52 c0 -5.92 3.24 -8.28 9.2 -8.28 c5.64 0 9.12 2.16 9.12 8.28 l0 0.84 c0 0.2 -0.16 0.36 -0.36 0.36 l-4.6 0 c-0.2 0 -0.36 -0.16 -0.36 -0.36 l0 -0.64 c0 -2.2 -1.64 -3.12 -3.6 -3.12 l-0.48 0 c-1.32 0 -2.2 0.36 -2.8 1.16 c-0.56 0.76 -0.76 1.76 -0.76 3.08 l0 7.92 c0 3.48 1.96 4.24 3.56 4.24 l0.48 0 c2.52 0 3.56 -1.68 3.64 -4.24 z M12.36 15.719999999999999 c-4.28 0 -6.76 1.52 -6.76 6.4 l0 9.64 c0 4.44 2.28 6.08 6.76 6.08 c4.2 0 6.72 -1.52 6.72 -6.12 c0 -0.32 -0.48 -0.32 -0.48 0 c0 4.04 -2.2 5.68 -6.24 5.68 c-3.92 0 -6.32 -1.36 -6.32 -5.64 l0 -9.64 c0 -4.16 1.96 -5.96 6.32 -5.96 c5.68 0 5.88 3.6 5.88 4 c0 0.36 0.56 0.4 0.56 0 c0 -3.32 -3.36 -4.44 -6.44 -4.44 z M37 13.239999999999998 c3.44 0 5.84 0.76 7.36 2.4 c1.2 1.32 1.76 3.2 1.76 5.88 l0 10.52 c0 2.76 -0.56 4.68 -1.76 5.96 c-1.56 1.6 -3.92 2.4 -7.36 2.4 c-3.56 0 -5.88 -0.8 -7.4 -2.4 c-1.16 -1.28 -1.8 -3.2 -1.8 -5.96 l0 -10.52 c0 -2.68 0.64 -4.56 1.8 -5.92 c1.56 -1.6 3.92 -2.36 7.4 -2.36 z M40.8 30.84 l0 -8 c0 -3.52 -1.88 -4.24 -3.6 -4.24 l-0.48 0 c-2.56 0 -3.56 1.64 -3.56 4.24 l0 8 c0 3.52 1.88 4.28 3.56 4.28 l0.48 0 c2.56 0 3.56 -1.72 3.6 -4.28 z M30.32 21.8 l0 9.92 c0 1.88 0.48 3.44 1.6 4.6 c1.04 1.04 2.64 1.6 4.6 1.6 l1.04 0 c3.76 0 6.2 -2.4 6.2 -6.2 l0 -9.92 c0 -4.08 -2.16 -6.28 -6.2 -6.28 l-1.04 0 c-4.08 0 -6.2 2.2 -6.2 6.28 z M37.56 37.4 l-1.04 0 c-1.88 0 -3.28 -0.48 -4.28 -1.48 s-1.52 -2.4 -1.52 -4.2 l0 -9.92 c0 -3.8 2.04 -5.8 5.8 -5.8 l1.04 0 c3.8 0 5.68 1.96 5.68 5.8 l0 9.92 c0 1.68 -0.52 3.2 -1.6 4.24 c-1.04 0.88 -2.44 1.44 -4.08 1.44 z M64.03999999999999 13.96 c0 -0.2 0.16 -0.36 0.36 -0.36 l4.6 0 c0.2 0 0.36 0.16 0.36 0.36 l0 25.68 c0 0.2 -0.16 0.36 -0.36 0.36 l-4.44 0 c-0.16 0 -0.32 -0.08 -0.36 -0.2 l-5.84 -13.16 l0 13 c0 0.2 -0.16 0.36 -0.36 0.36 l-4.56 0 c-0.2 0 -0.32 -0.16 -0.32 -0.36 l0 -25.68 c0 -0.2 0.12 -0.36 0.32 -0.36 l4.72 0 c0.16 0 0.24 0.12 0.28 0.2 l5.6 12.92 l0 -12.76 z M66.92 37.6 l0 -21.6 c0 -0.28 -0.52 -0.36 -0.52 0 l0 20.56 l-10.44 -20.64 c-0.12 -0.16 -0.44 -0.16 -0.44 0.08 l0 21.56 c0 0.36 0.48 0.36 0.48 0 l0 -20.52 l10.4 20.6 c0.16 0.28 0.52 0.2 0.52 -0.04 z M77.2 40 c-0.2 0 -0.32 -0.16 -0.32 -0.36 l0 -25.68 c0 -0.2 0.12 -0.36 0.32 -0.36 l13.6 0 c0.2 0 0.36 0.16 0.36 0.36 l0 4.28 c0 0.2 -0.16 0.36 -0.36 0.36 l-8.64 0 l0 5.44 l6.72 0 c0.2 0 0.32 0.16 0.32 0.36 l0 4.36 c0 0.2 -0.12 0.36 -0.32 0.36 l-6.72 0 l0 5.88 l8.64 0 c0.2 0 0.36 0.16 0.36 0.36 l0 4.28 c0 0.2 -0.16 0.36 -0.36 0.36 l-13.6 0 z M79.2 16.12 l0 21.28 c0 0.24 0.16 0.32 0.32 0.32 l9.2 0 c0.36 0 0.28 -0.48 0 -0.48 l-9 0 l0 -10.44 l7.36 0 c0.24 0 0.24 -0.56 0 -0.56 l-7.36 0 l0 -9.92 l9 0 c0.28 0 0.36 -0.52 0 -0.52 l-9.2 0 c-0.16 0 -0.32 0.12 -0.32 0.32 z M114.72 13.600000000000001 c0.28 0 0.44 0.32 0.28 0.56 l-6.28 8.68 l6.64 16.72 c0.08 0.2 -0.04 0.44 -0.32 0.44 l-5.4 0 c-0.12 0 -0.24 -0.08 -0.28 -0.24 l-4.16 -11.96 l-2.04 2.8 l0 9.04 c0 0.2 -0.16 0.36 -0.36 0.36 l-4.56 0 c-0.2 0 -0.32 -0.16 -0.32 -0.36 l0 -25.68 c0 -0.2 0.12 -0.36 0.32 -0.36 l4.56 0 c0.2 0 0.36 0.16 0.36 0.36 l0 8.28 l6.28 -8.48 c0.12 -0.16 0.16 -0.16 0.32 -0.16 l4.96 0 z M100.32 16 l0 21.56 c0 0.28 0.44 0.28 0.44 0 l0 -7.76 l5 -6.64 l5.6 14.48 c0.08 0.2 0.56 0.08 0.44 -0.24 l-5.68 -14.76 l5.2 -6.92 c0.2 -0.2 -0.16 -0.56 -0.4 -0.32 l-10.16 13.6 l0 -13 c0 -0.28 -0.44 -0.28 -0.44 0 z M125.28 18.6 l-5.68 0 c-0.2 0 -0.36 -0.16 -0.36 -0.36 l0 -4.28 c0 -0.2 0.16 -0.36 0.36 -0.36 l16.68 0 c0.2 0 0.36 0.16 0.36 0.36 l0 4.28 c0 0.2 -0.16 0.36 -0.36 0.36 l-5.68 0 l0 21.04 c0 0.2 -0.16 0.36 -0.36 0.36 l-4.6 0 c-0.2 0 -0.36 -0.16 -0.36 -0.36 l0 -21.04 z M133.84 15.8 l-12.08 0 c-0.28 0 -0.28 0.52 0 0.52 l5.92 0 l0 21.2 c0 0.28 0.52 0.28 0.52 0 l0 -21.2 l5.64 0 c0.4 0 0.36 -0.52 0 -0.52 z M146.36 18.6 l-5.68 0 c-0.2 0 -0.36 -0.16 -0.36 -0.36 l0 -4.28 c0 -0.2 0.16 -0.36 0.36 -0.36 l16.68 0 c0.2 0 0.36 0.16 0.36 0.36 l0 4.28 c0 0.2 -0.16 0.36 -0.36 0.36 l-5.68 0 l0 21.04 c0 0.2 -0.16 0.36 -0.36 0.36 l-4.6 0 c-0.2 0 -0.36 -0.16 -0.36 -0.36 l0 -21.04 z M154.92000000000002 15.8 l-12.08 0 c-0.28 0 -0.28 0.52 0 0.52 l5.92 0 l0 21.2 c0 0.28 0.52 0.28 0.52 0 l0 -21.2 l5.64 0 c0.4 0 0.36 -0.52 0 -0.52 z M172.00000000000003 13.239999999999998 c3.44 0 5.84 0.76 7.36 2.4 c1.2 1.32 1.76 3.2 1.76 5.88 l0 10.52 c0 2.76 -0.56 4.68 -1.76 5.96 c-1.56 1.6 -3.92 2.4 -7.36 2.4 c-3.56 0 -5.88 -0.8 -7.4 -2.4 c-1.16 -1.28 -1.8 -3.2 -1.8 -5.96 l0 -10.52 c0 -2.68 0.64 -4.56 1.8 -5.92 c1.56 -1.6 3.92 -2.36 7.4 -2.36 z M175.80000000000004 30.84 l0 -8 c0 -3.52 -1.88 -4.24 -3.6 -4.24 l-0.48 0 c-2.56 0 -3.56 1.64 -3.56 4.24 l0 8 c0 3.52 1.88 4.28 3.56 4.28 l0.48 0 c2.56 0 3.56 -1.72 3.6 -4.28 z M165.32000000000002 21.8 l0 9.92 c0 1.88 0.48 3.44 1.6 4.6 c1.04 1.04 2.64 1.6 4.6 1.6 l1.04 0 c3.76 0 6.2 -2.4 6.2 -6.2 l0 -9.92 c0 -4.08 -2.16 -6.28 -6.2 -6.28 l-1.04 0 c-4.08 0 -6.2 2.2 -6.2 6.28 z M172.56000000000003 37.4 l-1.04 0 c-1.88 0 -3.28 -0.48 -4.28 -1.48 s-1.52 -2.4 -1.52 -4.2 l0 -9.92 c0 -3.8 2.04 -5.8 5.8 -5.8 l1.04 0 c3.8 0 5.68 1.96 5.68 5.8 l0 9.92 c0 1.68 -0.52 3.2 -1.6 4.24 c-1.04 0.88 -2.44 1.44 -4.08 1.44 z"></path></g>
			</g>
		</svg>
	