<svg width="24" height="24" viewBox="0 0 24 24" fill="none" xmlns="http://www.w3.org/2000/svg">
<path fill-rule="evenodd" clip-rule="evenodd" d="M17.899 20.8472C16.2731 20.8472 14.9503 19.5236 14.9503 17.8965C14.9503 16.2696 16.2731 14.9458 17.899 14.9458C19.5249 14.9458 20.8477 16.2696 20.8477 17.8965C20.8477 19.5236 19.5249 20.8472 17.899 20.8472ZM10.3373 19.9852C8.36051 19.9852 6.50757 19.7053 5.11968 19.1968C3.88729 18.7452 3.15162 18.1449 3.15162 17.5909V14.9585C3.56346 15.3086 4.13812 15.6235 4.8612 15.8884C6.32973 16.4265 8.27466 16.7227 10.3373 16.7227C11.8581 16.7227 13.3266 16.5595 14.5819 16.2564C14.3365 16.7511 14.1984 17.3079 14.1984 17.8965C14.1984 18.4826 14.3353 19.0372 14.5785 19.5301C13.3547 19.8248 11.8701 19.9852 10.337 19.9852L10.3373 19.9852ZM5.11968 3.94054C6.50757 3.43201 8.36061 3.15211 10.3373 3.15211C12.3142 3.15211 14.167 3.43202 15.5549 3.94054C16.7873 4.39215 17.523 4.99243 17.523 5.54648C17.523 6.1004 16.7873 6.70082 15.5549 7.15229C14.167 7.66082 12.3141 7.94073 10.3373 7.94073C8.36051 7.94073 6.50757 7.66081 5.11968 7.15229C3.88729 6.70082 3.15162 6.1004 3.15162 5.54648C3.15162 4.99243 3.88729 4.39215 5.11968 3.94054V3.94054ZM17.5232 9.56134C17.5232 10.1154 16.7876 10.7157 15.5552 11.1671C14.1673 11.6757 12.3144 11.9557 10.3376 11.9557C8.36078 11.9557 6.50785 11.6757 5.11996 11.1671C3.88756 10.7157 3.15189 10.1154 3.15189 9.56134V6.92899C3.56373 7.27908 4.13839 7.59396 4.86148 7.85885C6.33001 8.39697 8.27493 8.69323 10.3376 8.69323C12.4003 8.69323 14.3453 8.39698 15.8137 7.85885C16.5369 7.59394 17.1115 7.27908 17.5233 6.92899L17.5232 9.56134ZM15.2886 15.2747C13.9337 15.7238 12.18 15.9708 10.3374 15.9708C8.36064 15.9708 6.50771 15.6907 5.11982 15.1822C3.88742 14.7307 3.15175 14.1303 3.15175 13.5764V10.9439C3.56359 11.2941 4.13826 11.6089 4.86134 11.8737C6.32987 12.4119 8.27479 12.7083 10.3375 12.7083C12.4001 12.7083 14.3451 12.4119 15.8136 11.8737C16.5368 11.6088 17.1114 11.2941 17.5232 10.9439V14.2127C16.655 14.3008 15.8748 14.6903 15.2886 15.2748L15.2886 15.2747ZM18.2751 14.2126V5.74887C18.2751 5.72477 18.2725 5.70133 18.2682 5.67856C18.2724 5.63477 18.2751 5.59097 18.2751 5.54677C18.2751 4.63714 17.4009 3.81603 15.8136 3.23437C14.3451 2.69626 12.4002 2.39999 10.3375 2.39999C8.27483 2.39999 6.32983 2.69624 4.86138 3.23437C3.27405 3.81603 2.3999 4.63714 2.3999 5.54677C2.3999 5.59097 2.40258 5.63476 2.40673 5.67856C2.40245 5.70133 2.3999 5.72477 2.3999 5.74887V17.5912C2.3999 18.5008 3.27405 19.3219 4.86138 19.9036C6.3299 20.4415 8.27483 20.7379 10.3375 20.7379C12.0573 20.7379 13.6635 20.552 15.0034 20.1996C15.6821 21.0523 16.7279 21.5999 17.8992 21.5999C19.9398 21.5999 21.5997 19.9387 21.5997 17.8967C21.5997 15.9818 20.1396 14.4016 18.275 14.2127L18.2751 14.2126ZM5.06068 8.96213C4.84921 8.87883 4.64994 8.78963 4.46857 8.69722C4.28348 8.6032 4.05727 8.67673 3.96313 8.86195C3.86897 9.04717 3.94263 9.27366 4.12759 9.3678C4.33023 9.47106 4.55146 9.57003 4.78533 9.66218C4.83046 9.67999 4.87707 9.68843 4.92287 9.68843C5.07287 9.68843 5.21457 9.59803 5.27283 9.45004C5.3489 9.25664 5.25394 9.0382 5.06068 8.96215L5.06068 8.96213ZM15.4019 9.45004C15.4603 9.59803 15.6019 9.68843 15.7519 9.68843C15.7977 9.68843 15.8443 9.67999 15.8896 9.66218C16.1233 9.57003 16.3445 9.47106 16.5472 9.3678C16.7323 9.27365 16.8059 9.04718 16.7118 8.86195C16.6176 8.67686 16.3913 8.60307 16.2062 8.69735C16.0249 8.78963 15.8256 8.87883 15.6141 8.96213C15.4208 9.0382 15.326 9.25664 15.4019 9.45002L15.4019 9.45004ZM6.98891 9.5068C6.71743 9.45376 6.45172 9.39363 6.19927 9.32787C5.99825 9.27577 5.79306 9.39631 5.74084 9.59734C5.68874 9.7985 5.80928 10.0038 6.01017 10.056C6.27749 10.1257 6.55833 10.1893 6.84496 10.2452C6.8692 10.25 6.89344 10.2522 6.91728 10.2522C7.09353 10.2522 7.2509 10.1276 7.28585 9.94796C7.32563 9.74412 7.19264 9.54658 6.98893 9.50681L6.98891 9.5068ZM5.06064 13.1538C4.84929 13.0705 4.64999 12.9814 4.46852 12.889C4.28343 12.7949 4.05723 12.8685 3.96308 13.0536C3.86893 13.2388 3.94259 13.4653 4.12755 13.5595C4.33031 13.6627 4.55156 13.7618 4.78528 13.8538C4.83042 13.8716 4.87702 13.8801 4.92283 13.8801C5.07283 13.8801 5.21452 13.7897 5.27278 13.6417C5.34885 13.4484 5.2539 13.23 5.06064 13.1538L5.06064 13.1538ZM16.7116 13.0536C16.6175 12.8685 16.3911 12.7947 16.206 12.889C16.0246 12.9814 15.8253 13.0705 15.6139 13.1538C15.4207 13.23 15.3258 13.4484 15.4018 13.6417C15.4602 13.7897 15.6017 13.8801 15.7517 13.8801C15.7975 13.8801 15.8441 13.8716 15.8894 13.8538C16.123 13.7618 16.3442 13.6627 16.547 13.5595C16.732 13.4653 16.8058 13.2388 16.7116 13.0536L16.7116 13.0536ZM6.98886 13.6985C6.71739 13.6454 6.45167 13.5853 6.19923 13.5197C5.99847 13.4673 5.79301 13.588 5.74079 13.7892C5.6887 13.9902 5.80923 14.1956 6.01013 14.2479C6.27745 14.3174 6.55829 14.381 6.84491 14.437C6.86916 14.4417 6.8934 14.4439 6.91724 14.4439C7.09349 14.4439 7.25085 14.3194 7.28581 14.1398C7.32559 13.9358 7.19259 13.7383 6.98889 13.6985L6.98886 13.6985ZM5.35778 17.1939C5.14617 17.1106 4.94704 17.0214 4.76556 16.929C4.58047 16.8349 4.35427 16.9087 4.25998 17.0937C4.16597 17.279 4.23963 17.5054 4.42472 17.5996C4.62735 17.7029 4.84859 17.8018 5.08218 17.894C5.12745 17.9118 5.17406 17.9202 5.21986 17.9202C5.36986 17.9202 5.51155 17.8298 5.56981 17.6818C5.64589 17.4886 5.55093 17.2701 5.3578 17.1939L5.35778 17.1939ZM7.28596 17.7386C7.01435 17.6856 6.74877 17.6255 6.49647 17.5598C6.29544 17.5075 6.09025 17.6281 6.03803 17.8292C5.9858 18.0303 6.10634 18.2356 6.30723 18.2879C6.57455 18.3575 6.85539 18.421 7.14202 18.477C7.16639 18.4818 7.1905 18.4841 7.21447 18.4841C7.39072 18.4841 7.54796 18.3594 7.58305 18.1798C7.62269 17.976 7.48983 17.7784 7.28599 17.7386L7.28596 17.7386ZM18.7693 17.8301L18.275 18.3249V16.5615C18.275 16.3538 18.1066 16.1853 17.899 16.1853C17.6914 16.1853 17.5231 16.3538 17.5231 16.5615V18.3249L17.0289 17.8301C16.882 17.6832 16.644 17.6832 16.4972 17.8301C16.3504 17.977 16.3504 18.2153 16.4972 18.3622L17.6332 19.499C17.6344 19.5002 17.6359 19.5012 17.6369 19.5024C17.6446 19.5099 17.6525 19.5171 17.6606 19.5238C17.6653 19.5277 17.6704 19.531 17.6751 19.5346C17.6802 19.5384 17.685 19.5423 17.6902 19.5458C17.6957 19.5495 17.7016 19.5527 17.7072 19.5561C17.7121 19.559 17.7167 19.562 17.7218 19.5646C17.7276 19.5677 17.7335 19.5704 17.7394 19.5731C17.7446 19.5756 17.7497 19.5782 17.7551 19.5804C17.7608 19.5829 17.7666 19.5847 17.7725 19.5869C17.7782 19.5889 17.784 19.5912 17.7899 19.5929C17.7956 19.5946 17.8015 19.5958 17.8073 19.5975C17.8133 19.5989 17.8193 19.6007 17.8255 19.6019C17.8322 19.6032 17.8389 19.604 17.8456 19.605C17.8511 19.6058 17.8564 19.6067 17.8619 19.6072C17.8742 19.6084 17.8867 19.6091 17.899 19.6091C17.9115 19.6091 17.9238 19.6084 17.9361 19.6072C17.9416 19.6067 17.947 19.6058 17.9525 19.605C17.9592 19.604 17.9659 19.6032 17.9726 19.6019C17.9787 19.6007 17.9847 19.5989 17.9908 19.5975C17.9967 19.5958 18.0024 19.5946 18.0082 19.5929C18.0141 19.5912 18.0198 19.5889 18.0257 19.5869C18.0315 19.5847 18.0372 19.5829 18.043 19.5804C18.0484 19.5782 18.0534 19.5756 18.0588 19.5731C18.0647 19.5704 18.0705 19.5677 18.0763 19.5646C18.0813 19.562 18.086 19.559 18.0908 19.5561C18.0964 19.5527 18.1023 19.5495 18.1078 19.5458C18.113 19.5423 18.1179 19.5384 18.123 19.5346C18.1278 19.531 18.1327 19.5277 18.1374 19.5238C18.1456 19.5171 18.1535 19.5099 18.1611 19.5024C18.1623 19.5012 18.1637 19.5002 18.1649 19.499L19.3009 18.3622C19.4476 18.2153 19.4476 17.9771 19.3009 17.8301C19.1541 17.6832 18.9161 17.6832 18.7693 17.8301" fill="#C72C71"/>
</svg>