<svg width="25" height="24" viewBox="0 0 25 24" fill="none" xmlns="http://www.w3.org/2000/svg">
<path d="M12.2531 2C6.59122 2 2 6.59041 2 12.2531C2 16.7833 4.93783 20.6266 9.01175 21.9824C9.52414 22.0773 9.71231 21.76 9.71231 21.4891C9.71231 21.2447 9.70274 20.4369 9.6984 19.5802C6.84589 20.2004 6.24399 18.3704 6.24399 18.3704C5.77759 17.1853 5.10557 16.8703 5.10557 16.8703C4.17535 16.2339 5.1757 16.2469 5.1757 16.2469C6.20531 16.3193 6.74746 17.3035 6.74746 17.3035C7.66192 18.871 9.14604 18.4178 9.73113 18.1559C9.82312 17.4931 10.0889 17.0409 10.3821 16.7849C8.10476 16.5255 5.71069 15.6464 5.71069 11.7177C5.71069 10.5983 6.11123 9.6836 6.76716 8.96559C6.66069 8.7073 6.30977 7.6645 6.86647 6.25219C6.86647 6.25219 7.72746 5.97662 9.68682 7.3032C10.5046 7.07595 11.3818 6.96208 12.2531 6.95823C13.1245 6.96208 14.0023 7.07595 14.8217 7.3032C16.7787 5.97662 17.6385 6.25219 17.6385 6.25219C18.1966 7.6645 17.8455 8.7073 17.739 8.96559C18.3964 9.6836 18.7942 10.5982 18.7942 11.7177C18.7942 15.6557 16.3957 16.5229 14.1125 16.7767C14.4803 17.0948 14.808 17.7189 14.808 18.6754C14.808 20.0472 14.7961 21.1514 14.7961 21.4891C14.7961 21.762 14.9806 22.0817 15.5004 21.981C19.5721 20.6237 22.5062 16.7818 22.5062 12.2531C22.5062 6.59041 17.9156 2 12.2531 2Z" fill="#161614"/>
</svg>
