<svg width="36" height="36" viewBox="0 0 36 36" fill="none" xmlns="http://www.w3.org/2000/svg">
<path d="M0 4C0 1.79086 1.79086 0 4 0H32C34.2091 0 36 1.79086 36 4V32C36 34.2091 34.2091 36 32 36H4C1.79086 36 0 34.2091 0 32V4Z" fill="white"/>
<path d="M29.0031 17.7714C29.0031 16.4892 28.2464 15.3909 27.1781 14.9401C27.0063 14.8633 26.8269 14.8018 26.6405 14.76C27.128 14.1937 27.4035 13.4556 27.4035 12.6636C27.4035 10.9326 26.0646 9.52422 24.419 9.52422C24.2382 9.52422 24.0574 9.54393 23.879 9.57919C23.7736 7.9955 22.5183 6.74023 20.9868 6.74023C20.9785 6.74023 20.9713 6.74473 20.963 6.74507C20.9298 6.74404 20.8976 6.74023 20.8644 6.74023C19.2742 6.74023 17.8796 8.30318 17.8796 10.0853V12.0261C17.8796 12.2204 18.0341 12.378 18.2253 12.378C18.4165 12.378 18.571 12.2204 18.571 12.0261V10.0853C18.571 8.67827 19.6427 7.4441 20.8644 7.4441C22.129 7.4441 23.1582 8.53688 23.1582 9.87961C23.1582 9.91833 23.1551 9.95705 23.1527 9.99473L23.1499 10.0317C23.1468 10.0767 23.1551 10.1199 23.1682 10.1614C23.0013 11.2811 22.0879 12.1409 20.9868 12.1409C20.7956 12.1409 20.6411 12.2985 20.6411 12.4928C20.6411 12.6871 20.7956 12.8447 20.9868 12.8447C22.417 12.8447 23.6059 11.7506 23.8438 10.3173C24.0342 10.264 24.2261 10.2277 24.4194 10.2277C25.6836 10.2277 26.7124 11.3202 26.7124 12.6629C26.7124 13.5296 26.291 14.3123 25.5851 14.7565C25.5778 14.761 25.5733 14.7683 25.5664 14.7731C24.2206 15.0379 23.198 16.2804 23.198 17.7711C23.198 17.9654 23.3525 18.123 23.5437 18.123C23.7349 18.123 23.8894 17.9654 23.8894 17.7711C23.8894 16.4764 24.8812 15.423 26.1005 15.423C26.3916 15.423 26.6692 15.4846 26.924 15.5938C27.7392 15.9675 28.3117 16.829 28.3117 17.8306C28.3117 19.1729 27.2829 20.265 26.0183 20.265C25.9571 20.265 25.8969 20.2609 25.8375 20.2554C25.6815 20.2398 25.5318 20.3387 25.4803 20.4922C25.4292 20.645 25.4869 20.8144 25.6203 20.9018C26.2865 21.3385 26.6879 22.0852 26.7079 22.9083C26.701 22.936 26.6914 22.9626 26.6914 22.9927C26.6914 24.288 25.6992 25.3414 24.4799 25.3414C23.2609 25.3414 22.2691 24.2877 22.2691 22.9927C22.2691 22.7984 22.1145 22.6407 21.9233 22.6407C21.7322 22.6407 21.5776 22.7984 21.5776 22.9927C21.5776 24.1332 22.1761 25.1281 23.0593 25.6522C23.0763 25.7096 23.0918 25.7587 23.1057 25.8002C23.1465 25.9263 23.1575 25.9606 23.1575 26.1224C23.1575 27.4651 22.1284 28.5579 20.8638 28.5579C19.5991 28.5579 18.5703 27.4651 18.5703 26.1224C18.5703 26.104 18.5631 26.0885 18.5603 26.0712C18.5631 26.0536 18.5703 26.038 18.5703 26.02V24.1674C18.5703 23.9731 18.4158 23.8155 18.2246 23.8155C18.0334 23.8155 17.8789 23.9731 17.8789 24.1674V26.02C17.8789 26.0384 17.8865 26.0539 17.8889 26.0712C17.8865 26.0885 17.8789 26.104 17.8789 26.1224C17.8789 27.8533 19.2178 29.2617 20.8638 29.2617C22.5097 29.2617 23.8489 27.8533 23.8489 26.1224C23.8489 26.0989 23.8486 26.0764 23.8482 26.0549C24.0349 26.093 24.2258 26.112 24.4187 26.112C26.0642 26.112 27.4032 24.7039 27.4032 22.9733C27.4032 22.1937 27.1335 21.4619 26.6561 20.8966C27.9964 20.5883 29.0028 19.3306 29.0028 17.8302C29.0028 17.8136 29.001 17.7977 29.0007 17.7811C29.001 17.778 29.0031 17.7749 29.0031 17.7714Z" fill="#C72C71"/>
<path d="M17.1007 23.8158C16.9099 23.8158 16.755 23.9734 16.755 24.1677V26.0204C16.755 26.0387 16.7626 26.0542 16.765 26.0715C16.7626 26.0888 16.755 26.1044 16.755 26.1227C16.755 27.4654 15.7258 28.5582 14.4612 28.5582C13.197 28.5582 12.1681 27.4654 12.1681 26.1227C12.1681 25.9602 12.1792 25.9263 12.22 25.7995C12.2335 25.7583 12.2487 25.7092 12.2653 25.6525C13.1489 25.1284 13.748 24.1335 13.748 22.9927C13.748 22.7984 13.5931 22.6407 13.4023 22.6407C13.2115 22.6407 13.0566 22.7984 13.0566 22.9927C13.0566 24.288 12.0648 25.3414 10.8454 25.3414C9.62614 25.3414 8.6343 24.2877 8.6343 22.9927C8.6343 22.9619 8.62427 22.9346 8.61701 22.9059C8.63845 22.0841 9.03982 21.3384 9.7053 20.9022C9.83875 20.8147 9.89683 20.6453 9.84532 20.4922C9.7938 20.3393 9.64964 20.2439 9.4882 20.2553C9.42839 20.2609 9.36824 20.265 9.30739 20.265C8.04279 20.265 7.01397 19.1729 7.01397 17.8305C7.01397 16.8294 7.58646 15.9675 8.40198 15.5938C8.65677 15.4849 8.93403 15.4234 9.22511 15.4234C10.4444 15.4234 11.4363 16.4768 11.4363 17.7714C11.4363 17.9657 11.5911 18.1234 11.782 18.1234C11.9728 18.1234 12.1277 17.9657 12.1277 17.7714C12.1277 16.2807 11.1051 15.0379 9.75854 14.7735C9.75163 14.7683 9.74713 14.7614 9.74022 14.7569C9.03428 14.3123 8.61321 13.5299 8.61321 12.6632C8.61321 11.3205 9.64238 10.2281 10.907 10.2281C11.1002 10.2281 11.2921 10.2644 11.4826 10.3176C11.7201 11.7509 12.909 12.8451 14.3392 12.8451C14.53 12.8451 14.6849 12.6874 14.6849 12.4932C14.6849 12.2989 14.53 12.1412 14.3392 12.1412C13.2315 12.1412 12.3144 11.2711 12.155 10.1413C12.1692 10.0957 12.1775 10.0483 12.1744 10.0016C12.1716 9.96154 12.1685 9.92075 12.1685 9.87961C12.1685 8.53688 13.1973 7.4441 14.4616 7.4441C15.6833 7.4441 16.7553 8.67827 16.7553 10.0853V12.0261C16.7553 12.2204 16.9102 12.378 17.101 12.378C17.2919 12.378 17.4467 12.2204 17.4467 12.0261V10.0853C17.4467 8.30353 16.0518 6.74023 14.4616 6.74023C14.4284 6.74023 14.3962 6.74404 14.3634 6.74507C14.3551 6.74473 14.3478 6.74023 14.3395 6.74023C12.8077 6.74023 11.5524 7.9955 11.447 9.57884C11.2682 9.54358 11.0881 9.52422 10.9073 9.52422C9.26141 9.52422 7.92214 10.9326 7.92214 12.6636C7.92214 13.4553 8.19767 14.1934 8.68547 14.76C8.49913 14.8018 8.32005 14.8633 8.14823 14.9401C7.08034 15.3912 6.32324 16.4892 6.32324 17.7714C6.32324 17.7752 6.32532 17.7783 6.32532 17.7818C6.32532 17.798 6.32324 17.8143 6.32324 17.8309C6.32324 19.3313 7.3296 20.589 8.66991 20.8973C8.19283 21.4626 7.92249 22.1944 7.92249 22.974C7.92249 24.7046 9.26176 26.1127 10.9077 26.1127C11.1009 26.1127 11.2914 26.0933 11.4784 26.0553C11.4781 26.0767 11.4777 26.0992 11.4777 26.1227C11.4777 27.8537 12.8167 29.2621 14.4622 29.2621C16.1082 29.2621 17.4474 27.8537 17.4474 26.1227C17.4474 26.1044 17.4398 26.0888 17.4374 26.0715C17.4398 26.0539 17.4474 26.0383 17.4474 26.0204V24.1677C17.4464 23.9731 17.2915 23.8158 17.1007 23.8158Z" fill="#C72C71"/>
<path d="M20.6009 19.0623C20.7404 19.0624 20.8777 19.0272 21 18.9599C21.1222 18.8926 21.2254 18.7954 21.3 18.6775C21.3745 18.5595 21.418 18.4246 21.4263 18.2853C21.4346 18.146 21.4075 18.0069 21.3475 17.8809C21.2875 17.7549 21.1966 17.6461 21.0833 17.5648C20.9699 17.4834 20.8378 17.4321 20.6992 17.4156C20.5607 17.399 20.4202 17.4179 20.2909 17.4704C20.1616 17.5228 20.0476 17.6072 19.9597 17.7155L18.7107 16.9869C18.7116 16.9706 18.7123 16.9542 18.7123 16.9376C18.7123 16.7185 18.6252 16.5083 18.4702 16.3533C18.3153 16.1984 18.1051 16.1113 17.886 16.1113C17.6668 16.1113 17.4567 16.1984 17.3017 16.3533C17.1468 16.5083 17.0597 16.7185 17.0597 16.9376C17.0597 16.9542 17.0603 16.9706 17.0613 16.9869L15.8122 17.7155C15.7199 17.6019 15.599 17.5149 15.4619 17.4634C15.3249 17.4119 15.1766 17.3977 15.0322 17.4224C14.8879 17.4471 14.7527 17.5097 14.6406 17.6038C14.5284 17.6979 14.4433 17.8201 14.3939 17.958C14.3445 18.0958 14.3327 18.2443 14.3596 18.3882C14.3865 18.5322 14.4512 18.6663 14.5471 18.777C14.6429 18.8877 14.7664 18.9709 14.905 19.0182C15.0436 19.0654 15.1923 19.0749 15.3358 19.0458L15.7909 19.6523L15.4101 20.16C15.271 20.1178 15.1231 20.1131 14.9815 20.1462C14.8399 20.1794 14.7096 20.2494 14.6037 20.3491C14.4978 20.4488 14.4201 20.5746 14.3784 20.714C14.3367 20.8533 14.3326 21.0011 14.3663 21.1426C14.4001 21.2841 14.4705 21.4141 14.5706 21.5196C14.6707 21.6251 14.7969 21.7023 14.9364 21.7435C15.0759 21.7846 15.2238 21.7882 15.3651 21.7539C15.5064 21.7196 15.6362 21.6486 15.7413 21.5481L17.0613 22.3181C17.0603 22.3344 17.0597 22.3508 17.0597 22.3674C17.0597 22.5865 17.1468 22.7967 17.3017 22.9517C17.4567 23.1066 17.6668 23.1937 17.886 23.1937C18.1051 23.1937 18.3153 23.1066 18.4702 22.9517C18.6252 22.7967 18.7122 22.5865 18.7122 22.3674C18.7122 22.3508 18.7116 22.3344 18.7106 22.3181L20.0307 21.5481C20.1358 21.6484 20.2654 21.7192 20.4067 21.7534C20.5479 21.7876 20.6956 21.7839 20.8349 21.7428C20.9743 21.7016 21.1003 21.6244 21.2003 21.519C21.3003 21.4136 21.3707 21.2837 21.4044 21.1423C21.4381 21.001 21.434 20.8533 21.3923 20.7141C21.3507 20.5749 21.2731 20.4491 21.1674 20.3495C21.0616 20.2498 20.9315 20.1799 20.79 20.1466C20.6486 20.1133 20.5009 20.118 20.3618 20.16L19.981 19.6523L20.4362 19.0458C20.4904 19.0568 20.5456 19.0623 20.6009 19.0623ZM20.6009 17.6458C20.7176 17.6458 20.8317 17.6804 20.9288 17.7453C21.0258 17.8101 21.1015 17.9023 21.1461 18.0102C21.1908 18.118 21.2025 18.2367 21.1797 18.3512C21.157 18.4656 21.1007 18.5708 21.0182 18.6534C20.9357 18.7359 20.8305 18.7921 20.716 18.8149C20.6015 18.8376 20.4829 18.826 20.375 18.7813C20.2672 18.7366 20.175 18.661 20.1101 18.5639C20.0453 18.4669 20.0107 18.3528 20.0107 18.236C20.0109 18.0795 20.0731 17.9295 20.1837 17.8189C20.2944 17.7082 20.4444 17.646 20.6009 17.6458ZM19.8383 17.918C19.7753 18.0688 19.7586 18.2349 19.7901 18.3952L19.267 18.7004L18.4184 17.5688C18.5259 17.478 18.6086 17.3614 18.6587 17.2299L19.8383 17.918ZM17.886 18.8262C17.7631 18.8262 17.6417 18.8537 17.5308 18.9066C17.4199 18.9595 17.3222 19.0365 17.2449 19.132L16.7102 18.8201L17.5546 17.6943C17.659 17.7402 17.7719 17.7639 17.886 17.7639C18.0001 17.7639 18.1129 17.7402 18.2174 17.6943L19.0618 18.8201L18.5271 19.132C18.4498 19.0365 18.3521 18.9595 18.2411 18.9066C18.1302 18.8537 18.0089 18.8262 17.886 18.8262ZM18.4762 19.6525C18.4762 19.7692 18.4416 19.8833 18.3767 19.9804C18.3119 20.0774 18.2197 20.1531 18.1118 20.1978C18.004 20.2424 17.8853 20.2541 17.7708 20.2313C17.6564 20.2086 17.5512 20.1524 17.4687 20.0698C17.3861 19.9873 17.3299 19.8821 17.3071 19.7676C17.2844 19.6531 17.296 19.5345 17.3407 19.4266C17.3854 19.3188 17.461 19.2266 17.5581 19.1618C17.6551 19.0969 17.7693 19.0623 17.886 19.0623C18.0425 19.0625 18.1925 19.1247 18.3031 19.2353C18.4138 19.346 18.476 19.496 18.4762 19.6525ZM17.1234 19.3345C17.0814 19.4352 17.0597 19.5433 17.0597 19.6525C17.0597 19.7616 17.0814 19.8697 17.1234 19.9704L16.568 20.2944L16.0861 19.6522L16.5676 19.0102L17.1234 19.3345ZM17.2449 20.173C17.3222 20.2685 17.4199 20.3455 17.5308 20.3984C17.6417 20.4513 17.7631 20.4787 17.886 20.4787C18.0088 20.4787 18.1302 20.4513 18.2411 20.3984C18.352 20.3455 18.4497 20.2685 18.5271 20.173L19.0612 20.4846L18.2165 21.6103C18.1123 21.5647 17.9997 21.5411 17.886 21.5411C17.7722 21.5411 17.6597 21.5647 17.5555 21.6103L16.7107 20.4845L17.2449 20.173ZM18.6485 19.9705C18.6906 19.8697 18.7122 19.7617 18.7122 19.6525C18.7122 19.5434 18.6906 19.4353 18.6485 19.3345L19.2044 19.0103L19.6859 19.6523L19.204 20.2945L18.6485 19.9705ZM17.886 16.3474C18.0027 16.3474 18.1168 16.382 18.2139 16.4469C18.3109 16.5117 18.3866 16.6039 18.4313 16.7117C18.4759 16.8196 18.4876 16.9383 18.4648 17.0527C18.4421 17.1672 18.3859 17.2724 18.3033 17.3549C18.2208 17.4375 18.1156 17.4937 18.0011 17.5164C17.8866 17.5392 17.768 17.5275 17.6601 17.4829C17.5523 17.4382 17.4601 17.3625 17.3953 17.2655C17.3304 17.1684 17.2958 17.0543 17.2958 16.9376C17.296 16.7811 17.3582 16.6311 17.4688 16.5205C17.5795 16.4098 17.7295 16.3476 17.886 16.3474ZM17.1133 17.2299C17.1633 17.3614 17.246 17.478 17.3536 17.5688L16.5049 18.7004L15.9819 18.3952C16.0134 18.2349 15.9967 18.0688 15.9337 17.918L17.1133 17.2299ZM15.1711 18.8262C15.0544 18.8262 14.9403 18.7916 14.8432 18.7267C14.7461 18.6619 14.6705 18.5697 14.6258 18.4619C14.5812 18.354 14.5695 18.2354 14.5922 18.1209C14.615 18.0064 14.6712 17.9012 14.7538 17.8187C14.8363 17.7362 14.9415 17.6799 15.056 17.6572C15.1704 17.6344 15.2891 17.6461 15.397 17.6908C15.5048 17.7354 15.597 17.8111 15.6618 17.9081C15.7267 18.0052 15.7613 18.1193 15.7613 18.236C15.7611 18.3925 15.6989 18.5425 15.5882 18.6532C15.4776 18.7638 15.3276 18.826 15.1711 18.8262ZM15.5672 18.9609C15.7093 18.8828 15.8255 18.7649 15.9015 18.6217L16.3623 18.8905L15.9385 19.4556L15.5672 18.9609ZM15.9385 19.849L16.3627 20.4142L15.9438 20.6586C15.8823 20.4971 15.7719 20.3588 15.628 20.2629L15.9385 19.849ZM15.1711 21.5411C15.0544 21.5411 14.9403 21.5065 14.8432 21.4416C14.7461 21.3768 14.6705 21.2846 14.6258 21.1768C14.5812 21.0689 14.5695 20.9503 14.5922 20.8358C14.615 20.7213 14.6712 20.6161 14.7538 20.5336C14.8363 20.451 14.9415 20.3948 15.056 20.3721C15.1704 20.3493 15.2891 20.361 15.397 20.4056C15.5048 20.4503 15.597 20.526 15.6618 20.623C15.7267 20.7201 15.7613 20.8342 15.7613 20.9509C15.7611 21.1074 15.6989 21.2574 15.5882 21.368C15.4776 21.4787 15.3276 21.5409 15.1711 21.5411ZM15.8883 21.3605C15.9598 21.2359 15.9975 21.0946 15.9974 20.9509C15.9974 20.9343 15.9967 20.9179 15.9958 20.9016L16.5054 20.6043L17.3543 21.7356C17.2464 21.8264 17.1635 21.9433 17.1133 22.0751L15.8883 21.3605ZM17.886 22.9576C17.7693 22.9576 17.6551 22.9229 17.5581 22.8581C17.461 22.7932 17.3854 22.7011 17.3407 22.5932C17.296 22.4854 17.2844 22.3667 17.3071 22.2522C17.3299 22.1377 17.3861 22.0326 17.4687 21.95C17.5512 21.8675 17.6564 21.8113 17.7708 21.7885C17.8853 21.7657 18.004 21.7774 18.1118 21.8221C18.2197 21.8668 18.3119 21.9424 18.3767 22.0395C18.4416 22.1365 18.4762 22.2506 18.4762 22.3674C18.476 22.5238 18.4138 22.6739 18.3031 22.7845C18.1925 22.8951 18.0425 22.9574 17.886 22.9576ZM18.6587 22.0751C18.6085 21.9433 18.5256 21.8264 18.4177 21.7356L19.2666 20.6043L19.7762 20.9016C19.7752 20.9179 19.7746 20.9343 19.7746 20.9509C19.7745 21.0946 19.8121 21.2359 19.8837 21.3605L18.6587 22.0751ZM20.6009 20.3607C20.7176 20.3607 20.8317 20.3953 20.9288 20.4602C21.0258 20.525 21.1015 20.6172 21.1461 20.725C21.1908 20.8329 21.2025 20.9516 21.1797 21.066C21.157 21.1805 21.1007 21.2857 21.0182 21.3682C20.9357 21.4508 20.8305 21.507 20.716 21.5298C20.6015 21.5525 20.4829 21.5408 20.375 21.4962C20.2672 21.4515 20.175 21.3759 20.1101 21.2788C20.0453 21.1817 20.0107 21.0676 20.0107 20.9509C20.0109 20.7944 20.0731 20.6444 20.1837 20.5338C20.2944 20.4231 20.4444 20.3609 20.6009 20.3607ZM20.1439 20.2629C20 20.3588 19.8897 20.4971 19.8281 20.6586L19.4092 20.4142L19.8334 19.849L20.1439 20.2629ZM19.8335 19.4556L19.4097 18.8905L19.8705 18.6217C19.9465 18.7649 20.0627 18.8828 20.2048 18.9609L19.8335 19.4556Z" fill="#C72C71"/>
<path d="M2.05045 19.1593C1.88368 19.1593 1.80029 19.0563 1.80029 18.8503C1.80029 18.6442 1.88368 18.5412 2.05045 18.5412H2.21723C3.27347 18.5137 3.80159 17.8269 3.80159 16.4807V11.8446C3.80159 11.0204 3.99616 10.368 4.3853 9.88718C4.77444 9.40641 5.30256 9.16602 5.96966 9.16602H6.21982C6.3866 9.16602 6.46998 9.26904 6.46998 9.47509C6.46998 9.68114 6.3866 9.78416 6.21982 9.78416H5.96966C4.85783 9.78416 4.30191 10.471 4.30191 11.8446V16.4807C4.30191 17.6895 3.91277 18.4794 3.13449 18.8503C3.91277 19.2212 4.30191 20.011 4.30191 21.2198V25.8559C4.30191 27.2296 4.85783 27.9164 5.96966 27.9164H6.21982C6.3866 27.9164 6.46998 28.0194 6.46998 28.2255C6.46998 28.4315 6.3866 28.5345 6.21982 28.5345H5.96966C5.30256 28.5345 4.77444 28.2941 4.3853 27.8134C3.99616 27.3326 3.80159 26.6801 3.80159 25.8559V21.2198C3.80159 19.8874 3.27347 19.2006 2.21723 19.1593H2.05045Z" fill="#C72C71"/>
<path d="M28.7222 28.5522C28.5155 28.5522 28.4121 28.4488 28.4121 28.2421C28.4121 28.0354 28.5155 27.932 28.7222 27.932H29.0323C30.4105 27.932 31.0997 27.2429 31.0997 25.8647V21.2131C31.0997 20.0003 31.582 19.2078 32.5468 18.8357C31.582 18.4636 31.0997 17.6711 31.0997 16.4582V11.8067C31.0997 10.4285 30.4105 9.73935 29.0323 9.73935H28.7222C28.5155 9.73935 28.4121 9.63598 28.4121 9.42924C28.4121 9.22251 28.5155 9.11914 28.7222 9.11914H29.0323C29.8593 9.11914 30.5139 9.36033 30.9963 9.84271C31.4787 10.3251 31.7199 10.9798 31.7199 11.8067V16.4582C31.7199 17.8089 32.3745 18.498 33.6838 18.5256H33.8906C34.0973 18.5256 34.2007 18.6289 34.2007 18.8357C34.2007 19.0424 34.0973 19.1458 33.8906 19.1458H33.6838C32.3745 19.1871 31.7199 19.8762 31.7199 21.2131V25.8647C31.7199 26.6916 31.4787 27.3463 30.9963 27.8286C30.5139 28.311 29.8593 28.5522 29.0323 28.5522H28.7222Z" fill="#C72C71"/>
<path d="M16.2055 15.6408C15.9699 15.6408 15.7697 15.6245 15.605 15.5918C15.4406 15.5592 15.3068 15.5026 15.2037 15.4222C15.1007 15.342 15.0257 15.2346 14.979 15.1C14.9324 14.9651 14.9092 14.7959 14.9092 14.5922C14.9092 14.3587 14.9324 14.1656 14.979 14.0131C15.0257 13.8605 15.1007 13.7391 15.2037 13.6488C15.3068 13.5587 15.4406 13.4957 15.605 13.4598C15.7697 13.4241 15.9699 13.4062 16.2055 13.4062C16.3737 13.4062 16.5195 13.4185 16.643 13.4431C16.7664 13.4679 16.872 13.5038 16.9598 13.5508C17.0476 13.5976 17.1187 13.6544 17.1733 13.7212C17.2278 13.7878 17.2708 13.8579 17.3023 13.9315C17.3334 14.0051 17.3549 14.0913 17.3668 14.1899C17.3783 14.2889 17.3841 14.3932 17.3841 14.503L17.3547 14.6218H15.2626C15.2626 14.7847 15.2785 14.9185 15.3105 15.0229C15.3424 15.1274 15.3952 15.2037 15.4689 15.2518C15.5426 15.2999 15.6396 15.3305 15.7601 15.3436C15.8802 15.3565 16.0287 15.363 16.2055 15.363C16.3677 15.363 16.5018 15.3583 16.6079 15.3489C16.7143 15.3398 16.7988 15.3222 16.8614 15.2962C16.924 15.2704 16.9678 15.2343 16.993 15.188C17.0181 15.1415 17.0307 15.0811 17.0307 15.007H17.3841C17.3841 15.1221 17.3642 15.22 17.3245 15.3007C17.2845 15.3817 17.2185 15.4472 17.1265 15.4973C17.0342 15.5474 16.9129 15.5838 16.7625 15.6066C16.6122 15.6294 16.4265 15.6408 16.2055 15.6408ZM16.2055 13.7026C16.0878 13.7026 15.9826 13.7052 15.8898 13.7102C15.797 13.715 15.7159 13.7258 15.6465 13.7425C15.5771 13.7592 15.5179 13.7832 15.4689 13.8146C15.4199 13.8462 15.3803 13.8833 15.3501 13.9258C15.3202 13.9686 15.298 14.0285 15.2837 14.1057C15.2696 14.1828 15.2626 14.2758 15.2626 14.3846H17.0307C17.0307 14.2401 17.0154 14.1268 16.9847 14.0446C16.954 13.9624 16.9055 13.8947 16.8391 13.8415C16.7727 13.7884 16.6874 13.752 16.583 13.7322C16.4787 13.7125 16.3528 13.7026 16.2055 13.7026ZM21.2267 13.4655H19.1052V13.7266H20.7847L18.9871 15.3038V15.6002H21.2267V15.3353H19.4548L21.2267 13.7618V13.4655Z" fill="#C72C71"/>
</svg>
