<svg width="2008" height="308" viewBox="0 0 2008 308" fill="none" xmlns="http://www.w3.org/2000/svg">
<g filter="url(#filter0_d_4954_138050)">
<path d="M150.616 193.52V179.823C150.616 177.614 152.415 175.847 154.663 175.847H205.934C208.183 175.847 209.982 177.614 209.982 179.823V207.658C209.982 272.607 174.452 300 107.441 300C44.926 300 4 275.7 4 207.658V91.458C4 26.0678 40.429 0 107.441 0C170.854 0 209.982 23.8586 209.982 91.458V100.736C209.982 102.946 208.183 104.713 205.934 104.713H154.214C151.965 104.713 150.166 102.946 150.166 100.736V93.667C150.166 69.3667 131.727 59.2047 109.689 59.2047H104.292C89.451 59.2047 79.557 63.1812 72.81 72.0177C66.514 80.4124 64.265 91.458 64.265 106.038V193.52C64.265 231.959 86.303 240.353 104.292 240.353H109.689C138.023 240.353 149.716 221.797 150.616 193.52ZM106.541 27.3932C58.419 27.3932 30.535 44.1826 30.535 98.085V204.566C30.535 253.608 56.17 271.723 106.541 271.723C153.764 271.723 182.098 254.934 182.098 204.124C182.098 200.589 176.701 200.589 176.701 204.124C176.701 248.748 151.965 266.863 106.541 266.863C62.466 266.863 35.482 251.841 35.482 204.566V98.085C35.482 52.1355 57.519 32.2533 106.541 32.2533C170.404 32.2533 172.653 72.0177 172.653 76.4359C172.653 80.4124 178.949 80.8542 178.949 76.4359C178.949 39.7644 141.171 27.3932 106.541 27.3932ZM383.582 0C422.26 0 449.244 8.3947 466.334 26.5096C479.826 41.0898 486.123 61.8557 486.123 91.458V207.658C486.123 238.144 479.826 259.352 466.334 273.49C448.794 291.163 422.26 300 383.582 300C343.555 300 317.47 291.163 300.38 273.49C287.337 259.352 280.141 238.144 280.141 207.658V91.458C280.141 61.8557 287.337 41.0898 300.38 26.0678C317.92 8.3947 344.454 0 383.582 0ZM426.307 194.404V106.038C426.307 67.1576 405.169 59.2047 385.83 59.2047H380.434C351.65 59.2047 340.407 77.3196 340.407 106.038V194.404C340.407 233.284 361.544 241.679 380.434 241.679H385.83C414.614 241.679 425.857 222.68 426.307 194.404ZM308.475 94.551V204.124C308.475 224.89 313.872 242.121 326.465 254.934C338.158 266.421 356.148 272.607 378.185 272.607H389.878C432.154 272.607 459.588 246.097 459.588 204.124V94.551C459.588 49.4845 435.302 25.1841 389.878 25.1841H378.185C332.311 25.1841 308.475 49.4845 308.475 94.551ZM389.878 266.863H378.185C357.047 266.863 341.306 261.561 330.063 250.515C318.819 239.47 312.972 224.006 312.972 204.124V94.551C312.972 52.5773 335.909 30.486 378.185 30.486H389.878C432.604 30.486 453.741 52.1355 453.741 94.551V204.124C453.741 222.68 447.895 239.47 435.752 250.957C424.058 260.677 408.318 266.863 389.878 266.863ZM687.61 7.9529C687.61 5.7437 689.41 3.9764 691.65 3.9764H743.37C745.62 3.9764 747.42 5.7437 747.42 7.9529V291.605C747.42 293.814 745.62 295.582 743.37 295.582H693.45C691.65 295.582 689.86 294.698 689.41 293.373L623.74 148.012V291.605C623.74 293.814 621.94 295.582 619.7 295.582H568.425C566.177 295.582 564.828 293.814 564.828 291.605V7.9529C564.828 5.7437 566.177 3.9764 568.425 3.9764H621.49C623.29 3.9764 624.19 5.3019 624.64 6.1856L687.61 148.895V7.9529ZM719.99 269.072V30.486C719.99 27.3932 714.14 26.5096 714.14 30.486V257.585L596.759 29.6024C595.41 27.8351 591.812 27.8351 591.812 30.486V268.63C591.812 272.607 597.209 272.607 597.209 268.63V41.9735L714.14 269.514C715.94 272.607 719.99 271.723 719.99 269.072ZM835.57 295.582C833.32 295.582 831.97 293.814 831.97 291.605V7.9529C831.97 5.7437 833.32 3.9764 835.57 3.9764H988.48C990.73 3.9764 992.53 5.7437 992.53 7.9529V55.2283C992.53 57.4374 990.73 59.2047 988.48 59.2047H891.34V119.293H966.9C969.15 119.293 970.49 121.06 970.49 123.27V171.429C970.49 173.638 969.15 175.405 966.9 175.405H891.34V240.353H988.48C990.73 240.353 992.53 242.121 992.53 244.33V291.605C992.53 293.814 990.73 295.582 988.48 295.582H835.57ZM858.06 31.8115V266.863C858.06 269.514 859.86 270.398 861.66 270.398H965.1C969.15 270.398 968.25 265.096 965.1 265.096H863.91V149.779H946.66C949.36 149.779 949.36 143.594 946.66 143.594H863.91V34.0206H965.1C968.25 34.0206 969.15 28.2769 965.1 28.2769H861.66C859.86 28.2769 858.06 29.6024 858.06 31.8115ZM1257.43 3.9764C1260.58 3.9764 1262.38 7.511 1260.58 10.162L1189.97 106.038L1264.63 290.722C1265.52 292.931 1264.18 295.582 1261.03 295.582H1200.31C1198.96 295.582 1197.61 294.698 1197.16 292.931L1150.39 160.825L1127.45 191.753V291.605C1127.45 293.814 1125.66 295.582 1123.41 295.582H1072.14C1069.89 295.582 1068.54 293.814 1068.54 291.605V7.9529C1068.54 5.7437 1069.89 3.9764 1072.14 3.9764H1123.41C1125.66 3.9764 1127.45 5.7437 1127.45 7.9529V99.411L1198.06 5.7437C1199.41 3.9764 1199.86 3.9764 1201.66 3.9764H1257.43ZM1095.52 30.486V268.63C1095.52 271.723 1100.47 271.723 1100.47 268.63V182.916L1156.69 109.573L1219.65 269.514C1220.55 271.723 1225.95 270.398 1224.6 266.863L1160.73 103.829L1219.2 27.3932C1221.45 25.1841 1217.4 21.2077 1214.7 23.8586L1100.47 174.08V30.486C1100.47 27.3932 1095.52 27.3932 1095.52 30.486ZM1376.16 59.2047H1312.3C1310.05 59.2047 1308.25 57.4374 1308.25 55.2283V7.9529C1308.25 5.7437 1310.05 3.9764 1312.3 3.9764H1499.84C1502.09 3.9764 1503.89 5.7437 1503.89 7.9529V55.2283C1503.89 57.4374 1502.09 59.2047 1499.84 59.2047H1435.98V291.605C1435.98 293.814 1434.18 295.582 1431.93 295.582H1380.21C1377.96 295.582 1376.16 293.814 1376.16 291.605V59.2047ZM1472.41 28.2769H1336.58C1333.44 28.2769 1333.44 34.0206 1336.58 34.0206H1403.15V268.189C1403.15 271.281 1408.99 271.281 1408.99 268.189V34.0206H1472.41C1476.9 34.0206 1476.45 28.2769 1472.41 28.2769ZM1613.17 59.2047H1549.31C1547.06 59.2047 1545.26 57.4374 1545.26 55.2283V7.9529C1545.26 5.7437 1547.06 3.9764 1549.31 3.9764H1736.85C1739.1 3.9764 1740.9 5.7437 1740.9 7.9529V55.2283C1740.9 57.4374 1739.1 59.2047 1736.85 59.2047H1672.99V291.605C1672.99 293.814 1671.19 295.582 1668.94 295.582H1617.22C1614.97 295.582 1613.17 293.814 1613.17 291.605V59.2047ZM1709.42 28.2769H1573.6C1570.45 28.2769 1570.45 34.0206 1573.6 34.0206H1640.16V268.189C1640.16 271.281 1646.01 271.281 1646.01 268.189V34.0206H1709.42C1713.92 34.0206 1713.47 28.2769 1709.42 28.2769ZM1901.46 0C1940.14 0 1967.12 8.3947 1984.21 26.5096C1997.7 41.0898 2004 61.8557 2004 91.458V207.658C2004 238.144 1997.7 259.352 1984.21 273.49C1966.67 291.163 1940.14 300 1901.46 300C1861.43 300 1835.35 291.163 1818.26 273.49C1805.21 259.352 1798.02 238.144 1798.02 207.658V91.458C1798.02 61.8557 1805.21 41.0898 1818.26 26.0678C1835.8 8.3947 1862.33 0 1901.46 0ZM1944.18 194.404V106.038C1944.18 67.1576 1923.05 59.2047 1903.71 59.2047H1898.31C1869.53 59.2047 1858.28 77.3196 1858.28 106.038V194.404C1858.28 233.284 1879.42 241.679 1898.31 241.679H1903.71C1932.49 241.679 1943.73 222.68 1944.18 194.404ZM1826.35 94.551V204.124C1826.35 224.89 1831.75 242.121 1844.34 254.934C1856.04 266.421 1874.02 272.607 1896.06 272.607H1907.76C1950.03 272.607 1977.47 246.097 1977.47 204.124V94.551C1977.47 49.4845 1953.18 25.1841 1907.76 25.1841H1896.06C1850.19 25.1841 1826.35 49.4845 1826.35 94.551ZM1907.76 266.863H1896.06C1874.92 266.863 1859.18 261.561 1847.94 250.515C1836.7 239.47 1830.85 224.006 1830.85 204.124V94.551C1830.85 52.5773 1853.79 30.486 1896.06 30.486H1907.76C1950.48 30.486 1971.62 52.1355 1971.62 94.551V204.124C1971.62 222.68 1965.77 239.47 1953.63 250.957C1941.94 260.677 1926.19 266.863 1907.76 266.863Z" fill="white"/>
</g>
<defs>
<filter id="filter0_d_4954_138050" x="0" y="0" width="2008" height="308" filterUnits="userSpaceOnUse" color-interpolation-filters="sRGB">
<feFlood flood-opacity="0" result="BackgroundImageFix"/>
<feColorMatrix in="SourceAlpha" type="matrix" values="0 0 0 0 0 0 0 0 0 0 0 0 0 0 0 0 0 0 127 0" result="hardAlpha"/>
<feOffset dy="4"/>
<feGaussianBlur stdDeviation="2"/>
<feComposite in2="hardAlpha" operator="out"/>
<feColorMatrix type="matrix" values="0 0 0 0 0 0 0 0 0 0 0 0 0 0 0 0 0 0 0.25 0"/>
<feBlend mode="normal" in2="BackgroundImageFix" result="effect1_dropShadow_4954_138050"/>
<feBlend mode="normal" in="SourceGraphic" in2="effect1_dropShadow_4954_138050" result="shape"/>
</filter>
</defs>
</svg>
