<svg width="1200" height="1200" viewBox="0 0 1200 1200" fill="none" xmlns="http://www.w3.org/2000/svg">
<g clip-path="url(#clip0_3_170)">
<rect width="1200" height="1200" fill="#C72C71"/>
<path d="M898.82 398.825V398.875C850.31 398.875 804.54 416.063 768.1 447.363L752.78 432.038C784.08 395.625 801.12 349.712 801.12 301.15C801.15 190.275 710.94 100 599.988 100C489.075 100 398.838 190.275 398.838 301.163C398.85 349.663 416.062 395.475 447.337 431.9L432.05 447.212C395.6 415.912 349.662 398.825 301.15 398.825C190.237 398.825 100 489.1 100 599.975C100 710.938 190.237 801.175 301.15 801.175V801.15C349.65 801.15 395.437 783.95 431.887 752.637L447.175 767.95C415.887 804.4 398.8 850.325 398.8 898.837C398.812 1009.74 489.05 1100 599.988 1100C710.93 1100 801.15 1009.74 801.15 898.825H801.12C801.12 850.312 783.91 804.562 752.62 768.112L767.95 752.775C804.4 784.1 850.3 801.163 898.85 801.163C1009.76 801.175 1100 710.937 1100 600.025C1100 489.1 1009.76 398.825 898.82 398.825Z" stroke="white" stroke-width="30" stroke-miterlimit="10" stroke-linecap="round" stroke-linejoin="round"/>
<path d="M558.212 854.05C546.537 865.75 540.1 881.275 540.1 897.825C540.1 931.937 567.862 959.712 601.987 959.712C636.1 959.712 663.86 931.975 663.89 897.875H663.86C663.86 881.325 657.41 865.825 645.74 854.075L434.425 642.75L478.175 598.975L689.47 810.325C711.9 832.75 725.75 863.688 725.75 897.875L725.77 897.825C725.77 966.187 670.31 1021.6 601.975 1021.6C533.587 1021.6 478.175 966.162 478.175 897.825C478.175 863.625 492.037 832.687 514.437 810.3L558.212 854.05Z" fill="white" stroke="white" stroke-width="30" stroke-miterlimit="10" stroke-linecap="round" stroke-linejoin="round"/>
<path d="M854.07 643.562C865.77 655.237 881.3 661.675 897.85 661.675C931.96 661.675 959.74 633.912 959.74 599.787C959.74 565.675 932 537.912 897.9 537.887V537.912C881.35 537.912 865.85 544.362 854.1 556.037L642.77 767.35L599 723.6L810.35 512.3C832.77 489.875 863.71 476.025 897.9 476.025L897.85 476C966.21 476 1021.62 531.462 1021.62 599.8C1021.62 668.187 966.19 723.6 897.85 723.6C863.65 723.6 832.71 709.738 810.32 687.338L854.07 643.562Z" fill="white" stroke="white" stroke-width="30" stroke-miterlimit="10" stroke-linecap="round" stroke-linejoin="round"/>
<path d="M643.56 346.55C655.24 334.85 661.68 319.325 661.68 302.775C661.68 268.663 633.91 240.887 599.788 240.887C565.675 240.887 537.913 268.625 537.888 302.725H537.913C537.913 319.275 544.363 334.775 556.038 346.525L767.35 557.85L723.6 601.625L512.3 390.275C489.875 367.85 476.025 336.912 476.025 302.725L476 302.775C476 234.413 531.463 179 599.8 179C668.19 179 723.6 234.438 723.6 302.775C723.6 336.975 709.74 367.913 687.34 390.3L643.56 346.55Z" fill="white" stroke="white" stroke-width="30" stroke-miterlimit="10" stroke-linecap="round" stroke-linejoin="round"/>
<path d="M345.55 556.787C333.85 545.112 318.325 538.675 301.775 538.675C267.663 538.675 239.887 566.437 239.887 600.562C239.887 634.675 267.625 662.437 301.725 662.462V662.437C318.275 662.437 333.775 655.987 345.525 644.312L556.85 433L600.625 476.75L389.275 688.05C366.85 710.475 335.912 724.325 301.725 724.325L301.775 724.35C233.413 724.35 178 668.887 178 600.55C178 532.162 233.438 476.75 301.775 476.75C335.975 476.75 366.913 490.612 389.3 513.012L345.55 556.787Z" fill="white" stroke="white" stroke-width="30" stroke-miterlimit="10" stroke-linecap="round" stroke-linejoin="round"/>
</g>
<defs>
<clipPath id="clip0_3_170">
<rect width="1200" height="1200" fill="white"/>
</clipPath>
</defs>
</svg>
