<svg width="1030" height="1029" viewBox="0 0 1030 1029" fill="none" xmlns="http://www.w3.org/2000/svg">
<path d="M813.82 312.825V312.875C765.31 312.875 719.54 330.063 683.1 361.363L667.78 346.038C699.08 309.625 716.12 263.712 716.12 215.15C716.15 104.275 625.94 14 514.988 14C404.075 14 313.838 104.275 313.838 215.163C313.85 263.663 331.062 309.475 362.337 345.9L347.05 361.212C310.6 329.912 264.662 312.825 216.15 312.825C105.237 312.825 15 403.1 15 513.975C15 624.938 105.237 715.175 216.15 715.175V715.15C264.65 715.15 310.437 697.95 346.887 666.637L362.175 681.95C330.887 718.4 313.8 764.325 313.8 812.837C313.812 923.737 404.05 1014 514.988 1014C625.93 1014 716.15 923.737 716.15 812.825H716.12C716.12 764.312 698.91 718.562 667.62 682.112L682.95 666.775C719.4 698.1 765.3 715.163 813.85 715.163C924.76 715.175 1015 624.937 1015 514.025C1015 403.1 924.76 312.825 813.82 312.825Z" stroke="#2C71C7" stroke-width="30" stroke-miterlimit="10" stroke-linecap="round" stroke-linejoin="round"/>
<path d="M473.212 768.05C461.537 779.75 455.1 795.275 455.1 811.825C455.1 845.937 482.862 873.712 516.987 873.712C551.1 873.712 578.86 845.975 578.89 811.875H578.86C578.86 795.325 572.41 779.825 560.74 768.075L349.425 556.75L393.175 512.975L604.47 724.325C626.9 746.75 640.75 777.688 640.75 811.875L640.77 811.825C640.77 880.187 585.31 935.6 516.975 935.6C448.587 935.6 393.175 880.162 393.175 811.825C393.175 777.625 407.037 746.687 429.437 724.3L473.212 768.05Z" fill="#2C71C7" stroke="#2C71C7" stroke-width="30" stroke-miterlimit="10" stroke-linecap="round" stroke-linejoin="round"/>
<path d="M769.07 557.562C780.77 569.237 796.3 575.675 812.85 575.675C846.96 575.675 874.74 547.912 874.74 513.787C874.74 479.675 847 451.912 812.9 451.887V451.912C796.35 451.912 780.85 458.362 769.1 470.037L557.77 681.35L514 637.6L725.35 426.3C747.77 403.875 778.71 390.025 812.9 390.025L812.85 390C881.21 390 936.62 445.462 936.62 513.8C936.62 582.187 881.19 637.6 812.85 637.6C778.65 637.6 747.71 623.738 725.32 601.338L769.07 557.562Z" fill="#2C71C7" stroke="#2C71C7" stroke-width="30" stroke-miterlimit="10" stroke-linecap="round" stroke-linejoin="round"/>
<path d="M558.56 260.55C570.24 248.85 576.68 233.325 576.68 216.775C576.68 182.663 548.91 154.887 514.788 154.887C480.675 154.887 452.913 182.625 452.888 216.725H452.913C452.913 233.275 459.363 248.775 471.038 260.525L682.35 471.85L638.6 515.625L427.3 304.275C404.875 281.85 391.025 250.912 391.025 216.725L391 216.775C391 148.413 446.463 93 514.8 93C583.19 93 638.6 148.438 638.6 216.775C638.6 250.975 624.74 281.913 602.34 304.3L558.56 260.55Z" fill="#2C71C7" stroke="#2C71C7" stroke-width="30" stroke-miterlimit="10" stroke-linecap="round" stroke-linejoin="round"/>
<path d="M260.55 469.787C248.85 458.112 233.325 451.675 216.775 451.675C182.663 451.675 154.887 479.437 154.887 513.562C154.887 547.675 182.625 575.437 216.725 575.462V575.437C233.275 575.437 248.775 568.987 260.525 557.312L471.85 346L515.625 389.75L304.275 601.05C281.85 623.475 250.912 637.325 216.725 637.325L216.775 637.35C148.413 637.35 93 581.887 93 513.55C93 445.162 148.438 389.75 216.775 389.75C250.975 389.75 281.913 403.612 304.3 426.012L260.55 469.787Z" fill="#2C71C7" stroke="#2C71C7" stroke-width="30" stroke-miterlimit="10" stroke-linecap="round" stroke-linejoin="round"/>
</svg>
