<svg class="thumb" width="1000" height="1000" viewBox="0,0,600,600" xmlns="http://www.w3.org/2000/svg" xmlns:inkscape="http://www.inkscape.org/namespaces/inkscape" xmlns:sodipodi="http://sodipodi.sourceforge.net/DTD/sodipodi-0.dtd" xmlns:xlink="http://www.w3.org/1999/xlink" xmlns:ns1="http://www.inkscape.org/namespaces/inkscape" xmlns:sketch="http://www.bohemiancoding.com/sketch/ns">
  <defs></defs>
  <g transform="matrix(2.7913,0,0,2.7913,-288.3822,81.8572)">
    <g transform="matrix(2.0642,0,0,2.0642,199.748,0.5929)">
      <svg width="42.17799999999999" height="75.14599999999999" viewBox="45.79300000000001,13.146999999999998,42.17799999999999,75.14599999999999">
        <defs>
          <linearGradient x1="0" y1="0.5" x2="1" y2="0.5" id="linearGradientSkehqmy0q4">
            <stop offset="0%" stop-color="#c72c71"></stop>
            <stop offset="100%" stop-color="#c72c71"></stop>
          </linearGradient>
        </defs>
        <g></g>
        <g></g>
        <g></g>
        <g></g>
        <g></g>
        <g></g>
        <g></g>
        <g>
          <path d="M82.971,50.056c0-3.709-2.189-6.886-5.279-8.19c-0.497-0.222-1.016-0.4-1.555-0.521c1.41-1.638,2.207-3.773,2.207-6.064   c0-5.007-3.873-9.081-8.633-9.081c-0.523,0-1.046,0.057-1.562,0.159c-0.305-4.581-3.936-8.212-8.366-8.212   c-0.024,0-0.045,0.013-0.069,0.014c-0.096-0.003-0.189-0.014-0.285-0.014c-4.6,0-8.634,4.521-8.634,9.676v5.614   c0,0.562,0.447,1.018,1,1.018s1-0.456,1-1.018v-5.614c0-4.07,3.1-7.64,6.634-7.64c3.658,0,6.635,3.161,6.635,7.045   c0,0.112-0.009,0.224-0.016,0.333l-0.008,0.107c-0.009,0.13,0.015,0.255,0.053,0.375c-0.483,3.239-3.125,5.726-6.31,5.726   c-0.553,0-1,0.456-1,1.018c0,0.562,0.447,1.018,1,1.018c4.137,0,7.576-3.165,8.264-7.311c0.551-0.154,1.106-0.259,1.665-0.259   c3.657,0,6.633,3.16,6.633,7.044c0,2.507-1.219,4.771-3.261,6.056c-0.021,0.013-0.034,0.034-0.054,0.048   c-3.893,0.766-6.851,4.36-6.851,8.672c0,0.562,0.447,1.018,1,1.018s1-0.456,1-1.018c0-3.745,2.869-6.792,6.396-6.792   c0.842,0,1.645,0.178,2.382,0.494c2.358,1.081,4.014,3.573,4.014,6.47c0,3.883-2.976,7.042-6.634,7.042   c-0.177,0-0.351-0.012-0.523-0.028c-0.451-0.045-0.884,0.241-1.033,0.685c-0.148,0.442,0.019,0.932,0.405,1.185   c1.927,1.263,3.088,3.423,3.146,5.804c-0.02,0.08-0.048,0.157-0.048,0.244c0,3.747-2.87,6.794-6.397,6.794   c-3.526,0-6.395-3.048-6.395-6.794c0-0.562-0.447-1.018-1-1.018s-1,0.456-1,1.018c0,3.299,1.731,6.177,4.286,7.693   c0.049,0.166,0.094,0.308,0.134,0.428c0.118,0.365,0.15,0.464,0.15,0.932c0,3.884-2.977,7.045-6.635,7.045   s-6.634-3.161-6.634-7.045c0-0.053-0.021-0.098-0.029-0.148c0.008-0.051,0.029-0.096,0.029-0.148v-5.359   c0-0.562-0.447-1.018-1-1.018s-1,0.456-1,1.018v5.359c0,0.053,0.022,0.098,0.029,0.148c-0.007,0.05-0.029,0.095-0.029,0.148   c0,5.007,3.873,9.081,8.634,9.081s8.635-4.074,8.635-9.081c0-0.068-0.001-0.133-0.002-0.195c0.54,0.11,1.092,0.165,1.65,0.165   c4.76,0,8.633-4.073,8.633-9.079c0-2.255-0.78-4.372-2.161-6.007c3.877-0.892,6.788-4.53,6.788-8.87   c0-0.048-0.005-0.094-0.006-0.142C82.965,50.075,82.971,50.066,82.971,50.056z" stroke="none" fill="url('#linearGradientSkehqmy0q4')" style=""></path>
        </g>
      </svg>
    </g>
    <g transform="matrix(2.0642,0,0,2.0642,130.748,0.5929)">
      <svg width="42.178" height="75.14699999999999" viewBox="11.095999999999982,13.145999999999972,42.178,75.14699999999999">
        <defs>
          <linearGradient x1="0" y1="0.5" x2="1" y2="0.5" id="linearGradientSkehqmy0qa">
            <stop offset="0%" stop-color="#c72c71"></stop>
            <stop offset="100%" stop-color="#c72c71"></stop>
          </linearGradient>
        </defs>
        <g></g>
        <g></g>
        <g></g>
        <g></g>
        <g></g>
        <g></g>
        <g></g>
        <g>
          <path d="M47.271,67.539c-0.552,0-1,0.456-1,1.018v5.359c0,0.053,0.022,0.098,0.029,0.148c-0.007,0.05-0.029,0.095-0.029,0.148   c0,3.884-2.977,7.045-6.635,7.045c-3.657,0-6.633-3.161-6.633-7.045c0-0.47,0.032-0.568,0.15-0.935   c0.039-0.119,0.083-0.261,0.131-0.425c2.556-1.516,4.289-4.394,4.289-7.694c0-0.562-0.448-1.018-1-1.018s-1,0.456-1,1.018   c0,3.747-2.869,6.794-6.396,6.794c-3.527,0-6.396-3.048-6.396-6.794c0-0.089-0.029-0.168-0.05-0.251   c0.062-2.377,1.223-4.534,3.148-5.796c0.386-0.253,0.554-0.743,0.405-1.186c-0.149-0.442-0.566-0.718-1.033-0.685   c-0.173,0.016-0.347,0.028-0.523,0.028c-3.658,0-6.634-3.159-6.634-7.042c0-2.896,1.656-5.389,4.015-6.47   c0.737-0.315,1.539-0.493,2.381-0.493c3.527,0,6.396,3.047,6.396,6.792c0,0.562,0.448,1.018,1,1.018s1-0.456,1-1.018   c0-4.312-2.958-7.907-6.853-8.672c-0.02-0.015-0.033-0.035-0.053-0.048c-2.042-1.286-3.26-3.549-3.26-6.056   c0-3.884,2.977-7.044,6.635-7.044c0.559,0,1.114,0.105,1.665,0.259c0.687,4.146,4.126,7.311,8.263,7.311c0.552,0,1-0.456,1-1.018   c0-0.562-0.448-1.018-1-1.018c-3.204,0-5.857-2.517-6.318-5.785c0.041-0.132,0.065-0.269,0.056-0.404   c-0.008-0.116-0.017-0.234-0.017-0.353c0-3.884,2.976-7.045,6.633-7.045c3.534,0,6.635,3.57,6.635,7.64v5.614   c0,0.562,0.448,1.018,1,1.018s1-0.456,1-1.018v-5.614c0-5.154-4.035-9.676-8.635-9.676c-0.096,0-0.189,0.011-0.284,0.014   c-0.024-0.001-0.045-0.014-0.069-0.014c-4.431,0-8.062,3.631-8.367,8.211c-0.517-0.102-1.038-0.158-1.561-0.158   c-4.761,0-8.635,4.074-8.635,9.081c0,2.29,0.797,4.425,2.208,6.064c-0.539,0.121-1.057,0.299-1.554,0.521   c-3.089,1.305-5.279,4.481-5.279,8.19c0,0.011,0.006,0.02,0.006,0.03c0,0.047-0.006,0.094-0.006,0.142   c0,4.34,2.911,7.978,6.788,8.87c-1.38,1.635-2.162,3.752-2.162,6.007c0,5.006,3.874,9.079,8.635,9.079   c0.559,0,1.11-0.056,1.651-0.166c-0.001,0.062-0.002,0.127-0.002,0.195c0,5.007,3.873,9.081,8.633,9.081   c4.761,0,8.635-4.074,8.635-9.081c0-0.053-0.022-0.098-0.029-0.148c0.007-0.051,0.029-0.096,0.029-0.148v-5.359   C48.271,67.994,47.823,67.539,47.271,67.539z" stroke="none" fill="url('#linearGradientSkehqmy0qa')" style=""></path>
        </g>
      </svg>
    </g>
    <g transform="matrix(0.0881,0,0,0.0881,188.5166,66.4206)">
      <svg width="490.2484601968327" height="490.16909193795186" viewBox="10.876520425668637,10.916454031024053,490.2484601968327,490.16909193795186">
        <defs>
          <linearGradient x1="0" y1="0.5" x2="1" y2="0.5" id="linearGradientSkehqmy0qg">
            <stop offset="0%" stop-color="#c72c71"></stop>
            <stop offset="100%" stop-color="#c72c71"></stop>
          </linearGradient>
        </defs>
        <g></g>
        <g></g>
        <g></g>
        <g></g>
        <g></g>
        <g></g>
        <g></g>
        <g>
          <path d="M440,216a56,56,0,1,0-43.452-91.275L311.892,75.342c.065-1.107.108-2.219.108-3.342a56,56,0,0,0-112,0c0,1.123.043,2.235.108,3.342l-84.656,49.383A55.971,55.971,0,1,0,83.161,214.88l30.849,41.107L88.2,290.4a56.008,56.008,0,1,0,22.444,94.073l89.463,52.187c-.065,1.107-.108,2.219-.108,3.342a56,56,0,0,0,112,0c0-1.123-.043-2.235-.108-3.342l89.463-52.187A55.979,55.979,0,1,0,423.8,290.4L397.99,255.987l30.849-41.107A56.012,56.012,0,0,0,440,216Zm0-96a40,40,0,1,1-40,40A40.045,40.045,0,0,1,440,120Zm-51.681,18.448a55.892,55.892,0,0,0-3.266,32.342L349.6,191.47l-57.519-76.692A56.222,56.222,0,0,0,308.369,91.81ZM256,200a55.907,55.907,0,0,0-43.452,20.725l-36.237-21.139,57.228-76.3a55.824,55.824,0,0,0,44.922,0l57.228,76.3-36.237,21.139A55.907,55.907,0,0,0,256,200Zm40,56a40,40,0,1,1-40-40A40.045,40.045,0,0,1,296,256Zm-91.681-21.552a55.932,55.932,0,0,0,0,43.1l-37.644,21.959-32.663-43.526,32.634-43.513Zm8.229,56.827a55.913,55.913,0,0,0,86.9,0l36.2,21.12L278.4,388.69a55.842,55.842,0,0,0-44.8,0l-57.255-76.3Zm95.133-13.723a55.932,55.932,0,0,0,0-43.1l37.673-21.976,32.634,43.513-32.663,43.526ZM256,32a40,40,0,1,1-40,40A40.045,40.045,0,0,1,256,32ZM203.631,91.81a56.222,56.222,0,0,0,16.285,22.968L162.4,191.47l-35.45-20.68a55.892,55.892,0,0,0-3.266-32.342ZM72,200a40,40,0,1,1,40-40A40.045,40.045,0,0,1,72,200Zm26.849,9.129a56.39,56.39,0,0,0,22.655-22.99l31.229,18.217-28.725,38.3Zm25.164,60.188,28.749,38.31L124.369,324.19a56.3,56.3,0,0,0-21.4-26.817ZM72,384a40,40,0,1,1,40-40A40.045,40.045,0,0,1,72,384Zm48.605-12.242A55.635,55.635,0,0,0,128,344c0-1.123-.043-2.235-.108-3.342l34.538-20.147,57.536,76.668a56.216,56.216,0,0,0-16.335,23.011ZM256,480a40,40,0,1,1,40-40A40.045,40.045,0,0,1,256,480Zm52.369-59.81a56.216,56.216,0,0,0-16.335-23.011l57.536-76.668,34.538,20.147c-.065,1.107-.108,2.219-.108,3.342a55.635,55.635,0,0,0,7.395,27.758ZM440,304a40,40,0,1,1-40,40A40.045,40.045,0,0,1,440,304Zm-30.971-6.627a56.3,56.3,0,0,0-21.4,26.817l-28.393-16.563,28.749-38.31Zm-21.037-54.718-28.725-38.3L390.5,186.139a56.39,56.39,0,0,0,22.655,22.99Z" stroke="none" fill="url('#linearGradientSkehqmy0qg')" style=""></path>
        </g>
      </svg>
    </g>
    <g transform="matrix(0.9958,0,0,1.2303,111.9728,17.1008)">
      <svg width="32.4" height="173" style="overflow: visible;">
        <defs>
          <linearGradient x1="0" y1="0.5" x2="1" y2="0.5" id="linearGradientSkehqmy0qw">
            <stop offset="0%" stop-color="#c72c71"></stop>
            <stop offset="100%" stop-color="#c72c71"></stop>
          </linearGradient>
        </defs>
        <g transform="matrix(1,0,0,1,0,84.75)">
          <path d="M 3.6-29.5Q 2.1-29.5  2.1-31Q 2.1-32.5  3.6-32.5L 3.6-32.5L 4.6-32.5Q 14.1-32.7  14.1-42.5L 14.1-42.5L 14.1-65Q 14.1-71  17.6-74.5Q 21.1-78  27.1-78L 27.1-78L 28.6-78Q 30.1-78  30.1-76.5Q 30.1-75  28.6-75L 28.6-75L 27.1-75Q 17.1-75  17.1-65L 17.1-65L 17.1-42.5Q 17.1-33.7  10.1-31L 10.1-31Q 17.1-28.3  17.1-19.5L 17.1-19.5L 17.1 3Q 17.1 13  27.1 13L 27.1 13L 28.6 13Q 30.1 13  30.1 14.5Q 30.1 16  28.6 16L 28.6 16L 27.1 16Q 21.1 16  17.6 12.5Q 14.1 9  14.1 3L 14.1 3L 14.1-19.5Q 14.1-29.2  4.6-29.5L 4.6-29.5L 3.6-29.5Z" data-textpath="{" data-text-anchor="middle" data-font-size="100" data-letterspacing="0" data-side="left" data-offset="0.5" data-dx="0" data-dy="0" data-xmlspace="preserve" data-href="" data-font="Nixie One" data-font-src="/Content/clientfonts/nixieone.woff" data-font-scale="contain" transform="translate(0,0)" data-x="0" data-y="0" fill="url('#linearGradientSkehqmy0qw')"></path>
        </g>
      </svg>
    </g>
    <g transform="matrix(1.2344,0,0,1.2344,270.1227,16.7934)">
      <svg width="32.4" height="173" style="overflow: visible;">
        <defs>
          <linearGradient x1="0" y1="0.5" x2="1" y2="0.5" id="linearGradientSkehqmy0qz">
            <stop offset="0%" stop-color="#c72c71"></stop>
            <stop offset="100%" stop-color="#c72c71"></stop>
          </linearGradient>
        </defs>
        <g transform="matrix(1,0,0,1,0,84.75)">
          <path d="M 3.8 16Q 2.3 16  2.3 14.5Q 2.3 13  3.8 13L 3.8 13L 5.3 13Q 15.3 13  15.3 3L 15.3 3L 15.3-19.5Q 15.3-28.3  22.3-31L 22.3-31Q 15.3-33.7  15.3-42.5L 15.3-42.5L 15.3-65Q 15.3-75  5.3-75L 5.3-75L 3.8-75Q 2.3-75  2.3-76.5Q 2.3-78  3.8-78L 3.8-78L 5.3-78Q 11.3-78  14.8-74.5Q 18.3-71  18.3-65L 18.3-65L 18.3-42.5Q 18.3-32.7  27.8-32.5L 27.8-32.5L 28.8-32.5Q 30.3-32.5  30.3-31Q 30.3-29.5  28.8-29.5L 28.8-29.5L 27.8-29.5Q 18.3-29.2  18.3-19.5L 18.3-19.5L 18.3 3Q 18.3 9  14.8 12.5Q 11.3 16  5.3 16L 5.3 16L 3.8 16Z" data-textpath="}" data-text-anchor="middle" data-font-size="100" data-letterspacing="0" data-side="left" data-offset="0.5" data-dx="0" data-dy="0" data-xmlspace="preserve" data-href="" data-font="Nixie One" data-font-src="/Content/clientfonts/nixieone.woff" data-font-scale="contain" transform="translate(0,0)" data-x="0" data-y="0" fill="url('#linearGradientSkehqmy0qz')"></path>
        </g>
      </svg>
    </g>
    <g transform="matrix(0.2252,0,0,0.2266,194.6595,39.685)">
      <svg width="148.4375" height="202" style="overflow: visible;">
        <defs>
          <linearGradient x1="0" y1="0.5" x2="1" y2="0.5" id="linearGradientSkehqmy0q12">
            <stop offset="0%" stop-color="#c72c71"></stop>
            <stop offset="100%" stop-color="#c72c71"></stop>
          </linearGradient>
        </defs>
        <g transform="matrix(1,0,0,1,0,106.5)">
          <path d="M 24.060000000000002 1.07L 24.060000000000002 1.07Q 14.690000000000001 1.07  8.14-0.22Q 1.6000000000000014-1.51 -2.5-4.69Q-6.6-7.86 -8.46-13.18Q-10.309999999999999-18.51 -10.309999999999999-26.56L-10.309999999999999-26.56Q-10.309999999999999-35.79 -8.46-41.82Q-6.6-47.85 -2.5-51.42Q 1.6000000000000014-54.98  8.14-56.4Q 14.690000000000001-57.81  24.060000000000002-57.81L 24.060000000000002-57.81Q 30.75-57.81  35.66-56.84Q 40.57-55.86  44.06-54Q 47.55-52.15  49.72-49.51Q 51.89-46.88  53.14-43.97Q 54.379999999999995-41.06  54.849999999999994-37.16Q 55.31-33.25  55.31-28.91L 55.31-28.91L 54.53-25.78L-0.9399999999999995-25.78Q-0.9399999999999995-19.34  0.33000000000000007-15.21Q 1.6000000000000014-11.08  4.530000000000001-9.18Q 7.460000000000001-7.28  12.25-6.76Q 17.03-6.25  24.060000000000002-6.25L 24.060000000000002-6.25Q 30.509999999999998-6.25  34.73-6.62Q 38.96-6.98  41.45-8.01Q 43.94-9.03  44.94-10.86Q 45.94-12.7  45.94-15.63L 45.94-15.63L 55.31-15.63Q 55.31-11.08  53.730000000000004-7.89Q 52.14-4.69  48.48-2.71Q 44.81-0.73  38.83 0.17Q 32.85 1.07  24.060000000000002 1.07ZM 24.060000000000002-50L 24.060000000000002-50Q 19.380000000000003-50  15.690000000000001-49.8Q 12-49.61  9.239999999999998-48.95Q 6.48-48.29  4.530000000000001-47.05Q 2.5799999999999983-45.8  1.379999999999999-44.12Q 0.1899999999999995-42.43 -0.3800000000000008-39.38Q-0.9399999999999995-36.33 -0.9399999999999995-32.03L-0.9399999999999995-32.03L 45.94-32.03Q 45.94-37.74  44.72-40.99Q 43.5-44.24  40.86-46.34Q 38.22-48.44  34.07-49.22Q 29.92-50  24.060000000000002-50ZM 157.1925-56.25L 100.94250000000001-56.25L 100.94250000000001-49.37L 145.47250000000003-49.37L 97.81250000000001-7.81L 97.81250000000001 0L 157.1925 0L 157.1925-6.98L 110.2125-6.98L 157.1925-48.44L 157.1925-56.25Z" data-textpath="ez" data-text-anchor="middle" data-font-size="100" data-letterspacing="30" data-side="left" data-offset="0.5" data-dx="0" data-dy="0" data-xmlspace="preserve" data-href="" data-font="Michroma" data-font-src="/Content/clientfonts/michroma.woff" data-font-scale="contain" transform="translate(0,0)" data-x="0" data-y="0" fill="url('#linearGradientSkehqmy0q12')"></path>
        </g>
      </svg>
    </g>
  </g>
</svg>