<svg width="140" height="140" viewBox="0 0 2000 1510" fill="none" xmlns="http://www.w3.org/2000/svg">
<g clip-path="url(#clip0_4_19)">
<path d="M146.616 1379.99V1366.04C146.616 1363.8 148.415 1362 150.663 1362H201.934C204.183 1362 205.982 1363.8 205.982 1366.04V1394.38C205.982 1460.49 170.452 1488.37 103.441 1488.37C40.9265 1488.37 0 1463.64 0 1394.38V1276.1C0 1209.53 36.4291 1183 103.441 1183C166.854 1183 205.982 1207.29 205.982 1276.1V1285.54C205.982 1287.79 204.183 1289.59 201.934 1289.59H150.214C147.965 1289.59 146.166 1287.79 146.166 1285.54V1278.35C146.166 1253.61 127.727 1243.27 105.689 1243.27H100.292C85.4509 1243.27 75.5566 1247.31 68.8104 1256.31C62.5141 1264.85 60.2654 1276.1 60.2654 1290.94V1379.99C60.2654 1419.11 82.3027 1427.66 100.292 1427.66H105.689C134.023 1427.66 145.716 1408.77 146.616 1379.99ZM102.541 1210.88C54.4187 1210.88 26.5347 1227.97 26.5347 1282.84V1391.23C26.5347 1441.15 52.17 1459.59 102.541 1459.59C149.764 1459.59 178.098 1442.5 178.098 1390.78C178.098 1387.18 172.701 1387.18 172.701 1390.78C172.701 1436.2 147.965 1454.64 102.541 1454.64C58.4664 1454.64 31.4819 1439.35 31.4819 1391.23V1282.84C31.4819 1236.07 53.5192 1215.83 102.541 1215.83C166.404 1215.83 168.653 1256.31 168.653 1260.81C168.653 1264.85 174.949 1265.3 174.949 1260.81C174.949 1223.48 137.171 1210.88 102.541 1210.88ZM379.582 1183C418.26 1183 445.244 1191.55 462.334 1209.98C475.826 1224.83 482.123 1245.96 482.123 1276.1V1394.38C482.123 1425.41 475.826 1447 462.334 1461.39C444.794 1479.38 418.26 1488.37 379.582 1488.37C339.555 1488.37 313.47 1479.38 296.38 1461.39C283.337 1447 276.141 1425.41 276.141 1394.38V1276.1C276.141 1245.96 283.337 1224.83 296.38 1209.53C313.92 1191.55 340.454 1183 379.582 1183ZM422.307 1380.89V1290.94C422.307 1251.36 401.169 1243.27 381.83 1243.27H376.434C347.65 1243.27 336.407 1261.7 336.407 1290.94V1380.89C336.407 1420.46 357.544 1429.01 376.434 1429.01H381.83C410.614 1429.01 421.857 1409.67 422.307 1380.89ZM304.475 1279.24V1390.78C304.475 1411.92 309.872 1429.46 322.465 1442.5C334.158 1454.19 352.148 1460.49 374.185 1460.49H385.878C428.154 1460.49 455.588 1433.51 455.588 1390.78V1279.24C455.588 1233.37 431.302 1208.64 385.878 1208.64H374.185C328.311 1208.64 304.475 1233.37 304.475 1279.24ZM385.878 1454.64H374.185C353.047 1454.64 337.306 1449.25 326.063 1438C314.819 1426.76 308.972 1411.02 308.972 1390.78V1279.24C308.972 1236.52 331.909 1214.03 374.185 1214.03H385.878C428.604 1214.03 449.741 1236.07 449.741 1279.24V1390.78C449.741 1409.67 443.895 1426.76 431.752 1438.45C420.058 1448.35 404.318 1454.64 385.878 1454.64ZM683.607 1191.1C683.607 1188.85 685.406 1187.05 687.655 1187.05H739.375C741.624 1187.05 743.423 1188.85 743.423 1191.1V1479.83C743.423 1482.08 741.624 1483.88 739.375 1483.88H689.454C687.655 1483.88 685.856 1482.98 685.406 1481.63L619.744 1333.66V1479.83C619.744 1482.08 617.945 1483.88 615.696 1483.88H564.425C562.177 1483.88 560.828 1482.08 560.828 1479.83V1191.1C560.828 1188.85 562.177 1187.05 564.425 1187.05H617.495C619.294 1187.05 620.193 1188.4 620.643 1189.3L683.607 1334.56V1191.1ZM715.988 1456.89V1214.03C715.988 1210.88 710.142 1209.98 710.142 1214.03V1445.2L592.759 1213.13C591.41 1211.33 587.812 1211.33 587.812 1214.03V1456.44C587.812 1460.49 593.209 1460.49 593.209 1456.44V1225.73L710.142 1457.34C711.941 1460.49 715.988 1459.59 715.988 1456.89ZM831.572 1483.88C829.323 1483.88 827.974 1482.08 827.974 1479.83V1191.1C827.974 1188.85 829.323 1187.05 831.572 1187.05H984.484C986.733 1187.05 988.532 1188.85 988.532 1191.1V1239.22C988.532 1241.47 986.733 1243.27 984.484 1243.27H887.34V1304.43H962.896C965.145 1304.43 966.494 1306.23 966.494 1308.48V1357.5C966.494 1359.75 965.145 1361.55 962.896 1361.55H887.34V1427.66H984.484C986.733 1427.66 988.532 1429.46 988.532 1431.71V1479.83C988.532 1482.08 986.733 1483.88 984.484 1483.88H831.572ZM854.059 1215.38V1454.64C854.059 1457.34 855.858 1458.24 857.657 1458.24H961.097C965.145 1458.24 964.246 1452.84 961.097 1452.84H859.906V1335.46H942.658C945.357 1335.46 945.357 1329.17 942.658 1329.17H859.906V1217.63H961.097C964.246 1217.63 965.145 1211.78 961.097 1211.78H857.657C855.858 1211.78 854.059 1213.13 854.059 1215.38ZM1253.43 1187.05C1256.58 1187.05 1258.38 1190.65 1256.58 1193.34L1185.97 1290.94L1260.63 1478.93C1261.52 1481.18 1260.18 1483.88 1257.03 1483.88H1196.31C1194.96 1483.88 1193.61 1482.98 1193.16 1481.18L1146.39 1346.71L1123.45 1378.19V1479.83C1123.45 1482.08 1121.66 1483.88 1119.41 1483.88H1068.14C1065.89 1483.88 1064.54 1482.08 1064.54 1479.83V1191.1C1064.54 1188.85 1065.89 1187.05 1068.14 1187.05H1119.41C1121.66 1187.05 1123.45 1188.85 1123.45 1191.1V1284.19L1194.06 1188.85C1195.41 1187.05 1195.86 1187.05 1197.66 1187.05H1253.43ZM1091.52 1214.03V1456.44C1091.52 1459.59 1096.47 1459.59 1096.47 1456.44V1369.19L1152.69 1294.54L1215.65 1457.34C1216.55 1459.59 1221.95 1458.24 1220.6 1454.64L1156.73 1288.69L1215.2 1210.88C1217.45 1208.64 1213.4 1204.59 1210.7 1207.29L1096.47 1360.2V1214.03C1096.47 1210.88 1091.52 1210.88 1091.52 1214.03ZM1372.16 1243.27H1308.3C1306.05 1243.27 1304.25 1241.47 1304.25 1239.22V1191.1C1304.25 1188.85 1306.05 1187.05 1308.3 1187.05H1495.84C1498.09 1187.05 1499.89 1188.85 1499.89 1191.1V1239.22C1499.89 1241.47 1498.09 1243.27 1495.84 1243.27H1431.98V1479.83C1431.98 1482.08 1430.18 1483.88 1427.93 1483.88H1376.21C1373.96 1483.88 1372.16 1482.08 1372.16 1479.83V1243.27ZM1468.41 1211.78H1332.58C1329.44 1211.78 1329.44 1217.63 1332.58 1217.63H1399.15V1455.99C1399.15 1459.14 1404.99 1459.14 1404.99 1455.99V1217.63H1468.41C1472.9 1217.63 1472.45 1211.78 1468.41 1211.78ZM1609.17 1243.27H1545.31C1543.06 1243.27 1541.26 1241.47 1541.26 1239.22V1191.1C1541.26 1188.85 1543.06 1187.05 1545.31 1187.05H1732.85C1735.1 1187.05 1736.9 1188.85 1736.9 1191.1V1239.22C1736.9 1241.47 1735.1 1243.27 1732.85 1243.27H1668.99V1479.83C1668.99 1482.08 1667.19 1483.88 1664.94 1483.88H1613.22C1610.97 1483.88 1609.17 1482.08 1609.17 1479.83V1243.27ZM1705.42 1211.78H1569.6C1566.45 1211.78 1566.45 1217.63 1569.6 1217.63H1636.16V1455.99C1636.16 1459.14 1642.01 1459.14 1642.01 1455.99V1217.63H1705.42C1709.92 1217.63 1709.47 1211.78 1705.42 1211.78ZM1897.46 1183C1936.14 1183 1963.12 1191.55 1980.21 1209.98C1993.7 1224.83 2000 1245.96 2000 1276.1V1394.38C2000 1425.41 1993.7 1447 1980.21 1461.39C1962.67 1479.38 1936.14 1488.37 1897.46 1488.37C1857.43 1488.37 1831.35 1479.38 1814.26 1461.39C1801.21 1447 1794.02 1425.41 1794.02 1394.38V1276.1C1794.02 1245.96 1801.21 1224.83 1814.26 1209.53C1831.8 1191.55 1858.33 1183 1897.46 1183ZM1940.18 1380.89V1290.94C1940.18 1251.36 1919.05 1243.27 1899.71 1243.27H1894.31C1865.53 1243.27 1854.28 1261.7 1854.28 1290.94V1380.89C1854.28 1420.46 1875.42 1429.01 1894.31 1429.01H1899.71C1928.49 1429.01 1939.73 1409.67 1940.18 1380.89ZM1822.35 1279.24V1390.78C1822.35 1411.92 1827.75 1429.46 1840.34 1442.5C1852.04 1454.19 1870.02 1460.49 1892.06 1460.49H1903.76C1946.03 1460.49 1973.47 1433.51 1973.47 1390.78V1279.24C1973.47 1233.37 1949.18 1208.64 1903.76 1208.64H1892.06C1846.19 1208.64 1822.35 1233.37 1822.35 1279.24ZM1903.76 1454.64H1892.06C1870.92 1454.64 1855.18 1449.25 1843.94 1438C1832.7 1426.76 1826.85 1411.02 1826.85 1390.78V1279.24C1826.85 1236.52 1849.79 1214.03 1892.06 1214.03H1903.76C1946.48 1214.03 1967.62 1236.07 1967.62 1279.24V1390.78C1967.62 1409.67 1961.77 1426.76 1949.63 1438.45C1937.94 1448.35 1922.19 1454.64 1903.76 1454.64Z" fill="#C72C71"/>
<path d="M1298.82 312.825V312.875C1250.31 312.875 1204.54 330.063 1168.1 361.363L1152.78 346.038C1184.08 309.625 1201.12 263.712 1201.12 215.15C1201.15 104.275 1110.94 14 999.988 14C889.075 14 798.838 104.275 798.838 215.163C798.85 263.663 816.062 309.475 847.337 345.9L832.05 361.212C795.6 329.912 749.662 312.825 701.15 312.825C590.237 312.825 500 403.1 500 513.975C500 624.938 590.237 715.175 701.15 715.175V715.15C749.65 715.15 795.437 697.95 831.887 666.637L847.175 681.95C815.887 718.4 798.8 764.325 798.8 812.837C798.812 923.737 889.05 1014 999.988 1014C1110.93 1014 1201.15 923.737 1201.15 812.825H1201.12C1201.12 764.312 1183.91 718.562 1152.62 682.112L1167.95 666.775C1204.4 698.1 1250.3 715.163 1298.85 715.163C1409.76 715.175 1500 624.937 1500 514.025C1500 403.1 1409.76 312.825 1298.82 312.825Z" stroke="#2C71C7" stroke-width="30" stroke-miterlimit="10" stroke-linecap="round" stroke-linejoin="round"/>
<path d="M958.212 768.05C946.537 779.75 940.1 795.275 940.1 811.825C940.1 845.937 967.862 873.712 1001.99 873.712C1036.1 873.712 1063.86 845.975 1063.89 811.875H1063.86C1063.86 795.325 1057.41 779.825 1045.74 768.075L834.425 556.75L878.175 512.975L1089.47 724.325C1111.9 746.75 1125.75 777.688 1125.75 811.875L1125.77 811.825C1125.77 880.187 1070.31 935.6 1001.98 935.6C933.587 935.6 878.175 880.162 878.175 811.825C878.175 777.625 892.037 746.687 914.437 724.3L958.212 768.05Z" fill="#2C71C7" stroke="#2C71C7" stroke-width="30" stroke-miterlimit="10" stroke-linecap="round" stroke-linejoin="round"/>
<path d="M1254.07 557.562C1265.77 569.237 1281.3 575.675 1297.85 575.675C1331.96 575.675 1359.74 547.912 1359.74 513.787C1359.74 479.675 1332 451.912 1297.9 451.887V451.912C1281.35 451.912 1265.85 458.362 1254.1 470.037L1042.77 681.35L999 637.6L1210.35 426.3C1232.77 403.875 1263.71 390.025 1297.9 390.025L1297.85 390C1366.21 390 1421.62 445.462 1421.62 513.8C1421.62 582.187 1366.19 637.6 1297.85 637.6C1263.65 637.6 1232.71 623.738 1210.32 601.338L1254.07 557.562Z" fill="#2C71C7" stroke="#2C71C7" stroke-width="30" stroke-miterlimit="10" stroke-linecap="round" stroke-linejoin="round"/>
<path d="M1043.56 260.55C1055.24 248.85 1061.68 233.325 1061.68 216.775C1061.68 182.663 1033.91 154.887 999.788 154.887C965.675 154.887 937.913 182.625 937.888 216.725H937.913C937.913 233.275 944.363 248.775 956.038 260.525L1167.35 471.85L1123.6 515.625L912.3 304.275C889.875 281.85 876.025 250.912 876.025 216.725L876 216.775C876 148.413 931.463 93 999.8 93C1068.19 93 1123.6 148.438 1123.6 216.775C1123.6 250.975 1109.74 281.913 1087.34 304.3L1043.56 260.55Z" fill="#2C71C7" stroke="#2C71C7" stroke-width="30" stroke-miterlimit="10" stroke-linecap="round" stroke-linejoin="round"/>
<path d="M745.55 469.787C733.85 458.112 718.325 451.675 701.775 451.675C667.663 451.675 639.887 479.437 639.887 513.562C639.887 547.675 667.625 575.437 701.725 575.462V575.437C718.275 575.437 733.775 568.987 745.525 557.312L956.85 346L1000.62 389.75L789.275 601.05C766.85 623.475 735.912 637.325 701.725 637.325L701.775 637.35C633.413 637.35 578 581.887 578 513.55C578 445.162 633.438 389.75 701.775 389.75C735.975 389.75 766.913 403.612 789.3 426.012L745.55 469.787Z" fill="#2C71C7" stroke="#2C71C7" stroke-width="30" stroke-miterlimit="10" stroke-linecap="round" stroke-linejoin="round"/>
</g>
<defs>
<clipPath id="clip0_4_19">
<rect width="2000" height="1510" fill="white"/>
</clipPath>
</defs>
</svg>
