<svg width="260" height="44" viewBox="0 0 260 44" fill="none" xmlns="http://www.w3.org/2000/svg">
<rect width="260" height="44" rx="4" fill="black"/>
<path d="M94.5883 26.096C93.9483 26.096 93.3563 25.992 92.8123 25.784C92.2763 25.568 91.8083 25.268 91.4083 24.884C91.0163 24.492 90.7083 24.036 90.4843 23.516C90.2603 22.996 90.1483 22.424 90.1483 21.8C90.1483 21.176 90.2603 20.604 90.4843 20.084C90.7083 19.564 91.0203 19.112 91.4203 18.728C91.8203 18.336 92.2883 18.036 92.8243 17.828C93.3683 17.612 93.9603 17.504 94.6003 17.504C95.2483 17.504 95.8443 17.616 96.3883 17.84C96.9403 18.056 97.4083 18.38 97.7923 18.812L97.0123 19.568C96.6923 19.232 96.3323 18.984 95.9323 18.824C95.5323 18.656 95.1043 18.572 94.6483 18.572C94.1763 18.572 93.7363 18.652 93.3283 18.812C92.9283 18.972 92.5803 19.196 92.2843 19.484C91.9883 19.772 91.7563 20.116 91.5883 20.516C91.4283 20.908 91.3483 21.336 91.3483 21.8C91.3483 22.264 91.4283 22.696 91.5883 23.096C91.7563 23.488 91.9883 23.828 92.2843 24.116C92.5803 24.404 92.9283 24.628 93.3283 24.788C93.7363 24.948 94.1763 25.028 94.6483 25.028C95.1043 25.028 95.5323 24.948 95.9323 24.788C96.3323 24.62 96.6923 24.364 97.0123 24.02L97.7923 24.776C97.4083 25.208 96.9403 25.536 96.3883 25.76C95.8443 25.984 95.2443 26.096 94.5883 26.096ZM101.791 26.072C101.151 26.072 100.583 25.932 100.087 25.652C99.5906 25.372 99.1986 24.988 98.9106 24.5C98.6226 24.004 98.4786 23.444 98.4786 22.82C98.4786 22.188 98.6226 21.628 98.9106 21.14C99.1986 20.652 99.5906 20.272 100.087 20C100.583 19.72 101.151 19.58 101.791 19.58C102.423 19.58 102.987 19.72 103.483 20C103.987 20.272 104.379 20.652 104.659 21.14C104.947 21.62 105.091 22.18 105.091 22.82C105.091 23.452 104.947 24.012 104.659 24.5C104.379 24.988 103.987 25.372 103.483 25.652C102.987 25.932 102.423 26.072 101.791 26.072ZM101.791 25.064C102.199 25.064 102.563 24.972 102.883 24.788C103.211 24.604 103.467 24.344 103.651 24.008C103.835 23.664 103.927 23.268 103.927 22.82C103.927 22.364 103.835 21.972 103.651 21.644C103.467 21.308 103.211 21.048 102.883 20.864C102.563 20.68 102.199 20.588 101.791 20.588C101.383 20.588 101.019 20.68 100.699 20.864C100.379 21.048 100.123 21.308 99.9306 21.644C99.7386 21.972 99.6426 22.364 99.6426 22.82C99.6426 23.268 99.7386 23.664 99.9306 24.008C100.123 24.344 100.379 24.604 100.699 24.788C101.019 24.972 101.383 25.064 101.791 25.064ZM110.08 19.58C110.6 19.58 111.056 19.68 111.448 19.88C111.848 20.08 112.16 20.384 112.384 20.792C112.608 21.2 112.72 21.716 112.72 22.34V26H111.568V22.472C111.568 21.856 111.416 21.392 111.112 21.08C110.816 20.768 110.396 20.612 109.852 20.612C109.444 20.612 109.088 20.692 108.784 20.852C108.48 21.012 108.244 21.248 108.076 21.56C107.916 21.872 107.836 22.26 107.836 22.724V26H106.684V19.64H107.788V21.356L107.608 20.9C107.816 20.484 108.136 20.16 108.568 19.928C109 19.696 109.504 19.58 110.08 19.58ZM117.036 26.072C116.396 26.072 115.9 25.9 115.548 25.556C115.196 25.212 115.02 24.72 115.02 24.08V18.248H116.172V24.032C116.172 24.376 116.256 24.64 116.424 24.824C116.6 25.008 116.848 25.1 117.168 25.1C117.528 25.1 117.828 25 118.068 24.8L118.428 25.628C118.252 25.78 118.04 25.892 117.792 25.964C117.552 26.036 117.3 26.072 117.036 26.072ZM113.94 20.588V19.64H117.996V20.588H113.94ZM119.821 26V19.64H120.973V26H119.821ZM120.397 18.416C120.173 18.416 119.985 18.344 119.833 18.2C119.689 18.056 119.617 17.88 119.617 17.672C119.617 17.456 119.689 17.276 119.833 17.132C119.985 16.988 120.173 16.916 120.397 16.916C120.621 16.916 120.805 16.988 120.949 17.132C121.101 17.268 121.177 17.44 121.177 17.648C121.177 17.864 121.105 18.048 120.961 18.2C120.817 18.344 120.629 18.416 120.397 18.416ZM126.568 19.58C127.088 19.58 127.544 19.68 127.936 19.88C128.336 20.08 128.648 20.384 128.872 20.792C129.096 21.2 129.208 21.716 129.208 22.34V26H128.056V22.472C128.056 21.856 127.904 21.392 127.6 21.08C127.304 20.768 126.884 20.612 126.34 20.612C125.932 20.612 125.576 20.692 125.272 20.852C124.968 21.012 124.732 21.248 124.564 21.56C124.404 21.872 124.324 22.26 124.324 22.724V26H123.172V19.64H124.276V21.356L124.096 20.9C124.304 20.484 124.624 20.16 125.056 19.928C125.488 19.696 125.992 19.58 126.568 19.58ZM134.016 26.072C133.472 26.072 132.992 25.972 132.576 25.772C132.168 25.572 131.848 25.268 131.616 24.86C131.392 24.444 131.28 23.924 131.28 23.3V19.64H132.432V23.168C132.432 23.792 132.58 24.26 132.876 24.572C133.18 24.884 133.604 25.04 134.148 25.04C134.548 25.04 134.896 24.96 135.192 24.8C135.488 24.632 135.716 24.392 135.876 24.08C136.036 23.76 136.116 23.376 136.116 22.928V19.64H137.268V26H136.176V24.284L136.356 24.74C136.148 25.164 135.836 25.492 135.42 25.724C135.004 25.956 134.536 26.072 134.016 26.072ZM142.293 26.072C141.613 26.072 141.013 25.932 140.493 25.652C139.981 25.372 139.581 24.988 139.293 24.5C139.013 24.012 138.873 23.452 138.873 22.82C138.873 22.188 139.009 21.628 139.281 21.14C139.561 20.652 139.941 20.272 140.421 20C140.909 19.72 141.457 19.58 142.065 19.58C142.681 19.58 143.225 19.716 143.697 19.988C144.169 20.26 144.537 20.644 144.801 21.14C145.073 21.628 145.209 22.2 145.209 22.856C145.209 22.904 145.205 22.96 145.197 23.024C145.197 23.088 145.193 23.148 145.185 23.204H139.773V22.376H144.585L144.117 22.664C144.125 22.256 144.041 21.892 143.865 21.572C143.689 21.252 143.445 21.004 143.133 20.828C142.829 20.644 142.473 20.552 142.065 20.552C141.665 20.552 141.309 20.644 140.997 20.828C140.685 21.004 140.441 21.256 140.265 21.584C140.089 21.904 140.001 22.272 140.001 22.688V22.88C140.001 23.304 140.097 23.684 140.289 24.02C140.489 24.348 140.765 24.604 141.117 24.788C141.469 24.972 141.873 25.064 142.329 25.064C142.705 25.064 143.045 25 143.349 24.872C143.661 24.744 143.933 24.552 144.165 24.296L144.801 25.04C144.513 25.376 144.153 25.632 143.721 25.808C143.297 25.984 142.821 26.072 142.293 26.072ZM151.375 26L149.011 19.64H150.103L152.203 25.4H151.687L153.871 19.64H154.843L156.979 25.4H156.475L158.623 19.64H159.655L157.279 26H156.175L154.171 20.744H154.507L152.479 26H151.375ZM160.824 26V19.64H161.976V26H160.824ZM161.4 18.416C161.176 18.416 160.988 18.344 160.836 18.2C160.692 18.056 160.62 17.88 160.62 17.672C160.62 17.456 160.692 17.276 160.836 17.132C160.988 16.988 161.176 16.916 161.4 16.916C161.624 16.916 161.808 16.988 161.952 17.132C162.104 17.268 162.18 17.44 162.18 17.648C162.18 17.864 162.108 18.048 161.964 18.2C161.82 18.344 161.632 18.416 161.4 18.416ZM166.36 26.072C165.72 26.072 165.224 25.9 164.872 25.556C164.52 25.212 164.344 24.72 164.344 24.08V18.248H165.496V24.032C165.496 24.376 165.58 24.64 165.748 24.824C165.924 25.008 166.172 25.1 166.492 25.1C166.852 25.1 167.152 25 167.392 24.8L167.752 25.628C167.576 25.78 167.364 25.892 167.116 25.964C166.876 26.036 166.624 26.072 166.36 26.072ZM163.264 20.588V19.64H167.32V20.588H163.264ZM172.541 19.58C173.061 19.58 173.517 19.68 173.909 19.88C174.309 20.08 174.621 20.384 174.845 20.792C175.069 21.2 175.181 21.716 175.181 22.34V26H174.029V22.472C174.029 21.856 173.877 21.392 173.573 21.08C173.277 20.768 172.857 20.612 172.313 20.612C171.905 20.612 171.549 20.692 171.245 20.852C170.941 21.012 170.705 21.248 170.537 21.56C170.377 21.872 170.297 22.26 170.297 22.724V26H169.145V17.096H170.297V21.356L170.069 20.9C170.277 20.484 170.597 20.16 171.029 19.928C171.461 19.696 171.965 19.58 172.541 19.58ZM183.151 26.096C182.511 26.096 181.899 26 181.315 25.808C180.731 25.608 180.271 25.352 179.935 25.04L180.379 24.104C180.699 24.384 181.107 24.616 181.603 24.8C182.099 24.984 182.615 25.076 183.151 25.076C183.639 25.076 184.035 25.02 184.339 24.908C184.643 24.796 184.867 24.644 185.011 24.452C185.155 24.252 185.227 24.028 185.227 23.78C185.227 23.492 185.131 23.26 184.939 23.084C184.755 22.908 184.511 22.768 184.207 22.664C183.911 22.552 183.583 22.456 183.223 22.376C182.863 22.296 182.499 22.204 182.131 22.1C181.771 21.988 181.439 21.848 181.135 21.68C180.839 21.512 180.599 21.288 180.415 21.008C180.231 20.72 180.139 20.352 180.139 19.904C180.139 19.472 180.251 19.076 180.475 18.716C180.707 18.348 181.059 18.056 181.531 17.84C182.011 17.616 182.619 17.504 183.355 17.504C183.843 17.504 184.327 17.568 184.807 17.696C185.287 17.824 185.703 18.008 186.055 18.248L185.659 19.208C185.299 18.968 184.919 18.796 184.519 18.692C184.119 18.58 183.731 18.524 183.355 18.524C182.883 18.524 182.495 18.584 182.191 18.704C181.887 18.824 181.663 18.984 181.519 19.184C181.383 19.384 181.315 19.608 181.315 19.856C181.315 20.152 181.407 20.388 181.591 20.564C181.783 20.74 182.027 20.88 182.323 20.984C182.627 21.088 182.959 21.184 183.319 21.272C183.679 21.352 184.039 21.444 184.399 21.548C184.767 21.652 185.099 21.788 185.395 21.956C185.699 22.124 185.943 22.348 186.127 22.628C186.311 22.908 186.403 23.268 186.403 23.708C186.403 24.132 186.287 24.528 186.055 24.896C185.823 25.256 185.463 25.548 184.975 25.772C184.495 25.988 183.887 26.096 183.151 26.096ZM190.604 26.096C189.964 26.096 189.352 26 188.768 25.808C188.184 25.608 187.724 25.352 187.388 25.04L187.832 24.104C188.152 24.384 188.56 24.616 189.056 24.8C189.552 24.984 190.068 25.076 190.604 25.076C191.092 25.076 191.488 25.02 191.792 24.908C192.096 24.796 192.32 24.644 192.464 24.452C192.608 24.252 192.68 24.028 192.68 23.78C192.68 23.492 192.584 23.26 192.392 23.084C192.208 22.908 191.964 22.768 191.66 22.664C191.364 22.552 191.036 22.456 190.676 22.376C190.316 22.296 189.952 22.204 189.584 22.1C189.224 21.988 188.892 21.848 188.588 21.68C188.292 21.512 188.052 21.288 187.868 21.008C187.684 20.72 187.592 20.352 187.592 19.904C187.592 19.472 187.704 19.076 187.928 18.716C188.16 18.348 188.512 18.056 188.984 17.84C189.464 17.616 190.072 17.504 190.808 17.504C191.296 17.504 191.78 17.568 192.26 17.696C192.74 17.824 193.156 18.008 193.508 18.248L193.112 19.208C192.752 18.968 192.372 18.796 191.972 18.692C191.572 18.58 191.184 18.524 190.808 18.524C190.336 18.524 189.948 18.584 189.644 18.704C189.34 18.824 189.116 18.984 188.972 19.184C188.836 19.384 188.768 19.608 188.768 19.856C188.768 20.152 188.86 20.388 189.044 20.564C189.236 20.74 189.48 20.88 189.776 20.984C190.08 21.088 190.412 21.184 190.772 21.272C191.132 21.352 191.492 21.444 191.852 21.548C192.22 21.652 192.552 21.788 192.848 21.956C193.152 22.124 193.396 22.348 193.58 22.628C193.764 22.908 193.856 23.268 193.856 23.708C193.856 24.132 193.74 24.528 193.508 24.896C193.276 25.256 192.916 25.548 192.428 25.772C191.948 25.988 191.34 26.096 190.604 26.096ZM199.402 26.096C198.762 26.096 198.166 25.988 197.614 25.772C197.07 25.556 196.598 25.256 196.198 24.872C195.798 24.48 195.486 24.024 195.262 23.504C195.038 22.984 194.926 22.416 194.926 21.8C194.926 21.184 195.038 20.616 195.262 20.096C195.486 19.576 195.798 19.124 196.198 18.74C196.598 18.348 197.07 18.044 197.614 17.828C198.158 17.612 198.754 17.504 199.402 17.504C200.042 17.504 200.63 17.612 201.166 17.828C201.71 18.036 202.182 18.336 202.582 18.728C202.99 19.112 203.302 19.564 203.518 20.084C203.742 20.604 203.854 21.176 203.854 21.8C203.854 22.424 203.742 22.996 203.518 23.516C203.302 24.036 202.99 24.492 202.582 24.884C202.182 25.268 201.71 25.568 201.166 25.784C200.63 25.992 200.042 26.096 199.402 26.096ZM199.402 25.028C199.866 25.028 200.294 24.948 200.686 24.788C201.086 24.628 201.43 24.404 201.718 24.116C202.014 23.82 202.242 23.476 202.402 23.084C202.57 22.692 202.654 22.264 202.654 21.8C202.654 21.336 202.57 20.908 202.402 20.516C202.242 20.124 202.014 19.784 201.718 19.496C201.43 19.2 201.086 18.972 200.686 18.812C200.294 18.652 199.866 18.572 199.402 18.572C198.93 18.572 198.494 18.652 198.094 18.812C197.702 18.972 197.358 19.2 197.062 19.496C196.766 19.784 196.534 20.124 196.366 20.516C196.206 20.908 196.126 21.336 196.126 21.8C196.126 22.264 196.206 22.692 196.366 23.084C196.534 23.476 196.766 23.82 197.062 24.116C197.358 24.404 197.702 24.628 198.094 24.788C198.494 24.948 198.93 25.028 199.402 25.028Z" fill="white"/>
<path d="M5 6C5 4.89543 5.89543 4 7 4H46C47.1046 4 48 4.89543 48 6V38C48 39.1046 47.1046 40 46 40H7C5.89543 40 5 39.1046 5 38V6Z" fill="white"/>
<path d="M21.9965 21.5192C23.4964 21.1402 25.0117 21.6681 25.9665 22.7563L33.4074 20.8765L35.5418 21.9356L33.5923 24.5631L32.2735 23.7763L31.4867 25.0951L30.1679 24.3083L29.3812 25.627L26.8531 26.2656C26.5297 27.6767 25.4469 28.8608 23.9471 29.2398C21.8151 29.7783 19.6501 28.4867 19.1114 26.3548C18.5727 24.2228 19.8645 22.0578 21.9964 21.5191L21.9965 21.5192ZM21.4774 24.6368C20.896 24.7838 20.5437 25.3742 20.6906 25.9556C20.8376 26.537 21.428 26.8894 22.0094 26.7424C22.5909 26.5954 22.9432 26.0051 22.7962 25.4236C22.6492 24.8422 22.0589 24.4899 21.4774 24.6368Z" fill="black"/>
<path d="M29.5147 12.9141C33.6737 12.9141 37.0576 16.2982 37.0576 20.457C37.0576 20.4886 37.0547 20.5198 37.0519 20.5509C37.0483 20.6 37.0454 20.6502 37.044 20.6991L37.0174 21.5389L37.8515 21.6368C40.2658 21.9202 42.0862 23.9686 42.0862 26.4002C42.0862 29.047 39.9326 31.2002 37.2862 31.2002C37.2603 31.2002 37.2342 31.1973 37.2083 31.1956C37.171 31.1934 37.1326 31.1906 37.0953 31.1898L36.1431 31.1625V31.1998H16.8992L16.5864 31.1654C13.9233 30.8702 11.9144 28.625 11.9144 25.9425C11.9144 23.7218 13.3249 21.7309 15.4237 20.9898L16.0178 20.78L16.0335 20.15C16.0755 18.3997 17.4792 17.0283 19.2285 17.0283C19.96 17.0283 20.6489 17.2708 21.2232 17.7293L22.1466 18.4679L22.6283 17.3877C23.8426 14.6713 26.5455 12.9145 29.5143 12.9145L29.5147 12.9141ZM29.5143 12C26.0704 12 23.1134 14.0618 21.7936 17.0153C21.09 16.4525 20.1989 16.1141 19.2283 16.1141C16.99 16.1141 15.1731 17.9024 15.1188 20.128C12.7216 20.9757 11 23.2551 11 25.9433C11 29.1195 13.4004 31.733 16.4857 32.0745V32.1147H37.0571V32.1036C37.1332 32.1061 37.2079 32.1147 37.2857 32.1147C40.442 32.1147 43 29.5561 43 26.4004C43 23.4727 40.7966 21.0619 37.9577 20.7296C37.9609 20.6385 37.9716 20.5494 37.9716 20.4576C37.9716 15.7874 34.185 12.0004 29.5145 12.0004" fill="black"/>
</svg>
