<svg width="40" height="40" viewBox="0 0 40 40" fill="none" xmlns="http://www.w3.org/2000/svg">
<path d="M13.4156 22.1753C11.0252 22.1753 9.09082 23.0432 9.09082 24.1146C9.09082 25.1861 11.0301 26.0539 13.4156 26.0539C15.806 26.0539 17.7404 25.1861 17.7404 24.1146C17.7406 23.0432 15.806 22.1753 13.4156 22.1753Z" fill="#C72C71"/>
<path d="M26.608 22.1753C24.2176 22.1753 22.2832 23.0432 22.2832 24.1146C22.2832 25.1861 24.2225 26.0539 26.608 26.0539C28.9984 26.0539 30.9328 25.1861 30.9328 24.1146C30.9377 23.0432 28.9982 22.1753 26.608 22.1753Z" fill="#C72C71"/>
<path d="M20.4798 19.0867C20.4847 19.0577 20.4992 19.0285 20.4992 18.9946V17.8504C20.4992 17.8455 20.4943 17.8408 20.4943 17.8359C22.6325 17.7196 24.2907 16.9051 24.2907 15.9158V14.985C23.2823 15.751 21.6144 16.1436 19.9659 16.1436C18.3126 16.1436 16.6497 15.751 15.6362 14.985V15.9158C15.6362 16.9193 17.3429 17.7486 19.5295 17.8455V17.8551V18.9992C19.5295 19.0332 19.5441 19.0622 19.549 19.0914C19.0883 19.2756 18.7635 19.7265 18.7635 20.2501C18.7635 20.9434 19.326 21.501 20.0144 21.501C20.7028 21.501 21.2653 20.9385 21.2653 20.2501C21.2653 19.722 20.9405 19.2711 20.4798 19.0867L20.4798 19.0867Z" fill="#C72C71"/>
<path d="M24.2912 10.5536C24.2912 9.48217 22.3519 8.61428 19.9664 8.61428C17.576 8.61428 15.6416 9.48217 15.6416 10.5536C15.6416 11.625 17.5809 12.4929 19.9664 12.4929C22.3519 12.4931 24.2912 11.625 24.2912 10.5536V10.5536Z" fill="#C72C71"/>
<path d="M15.6363 13.2302C15.6363 14.3016 17.5756 15.1695 19.9611 15.1695C22.3515 15.1695 24.2859 14.3016 24.2859 13.2302V12.2994C23.2774 13.0654 21.6095 13.4581 19.9611 13.4581C18.3077 13.4581 16.6448 13.0654 15.6313 12.2994V13.2302H15.6363Z" fill="#C72C71"/>
<path d="M22.2837 25.865V26.7958C22.2837 27.8673 24.223 28.7351 26.6085 28.7351C28.9989 28.7351 30.9333 27.8673 30.9333 26.7958V25.865C29.9248 26.6311 28.2569 27.0237 26.6036 27.0237C24.9551 27.0237 23.2922 26.6311 22.2837 25.865Z" fill="#C72C71"/>
<path d="M22.2837 28.5416V29.4724C22.2837 30.5438 24.223 31.4117 26.6085 31.4117C28.9989 31.4117 30.9333 30.5438 30.9333 29.4724V28.5416C29.9248 29.3077 28.2569 29.7003 26.6036 29.7003C24.9551 29.7052 23.2922 29.3077 22.2837 28.5416V28.5416Z" fill="#C72C71"/>
<path d="M9.08594 25.865V26.7958C9.08594 27.8673 11.0253 28.7351 13.4107 28.7351C15.8011 28.7351 17.7355 27.8673 17.7355 26.7958V25.865C16.7271 26.6311 15.0592 27.0237 13.4107 27.0237C11.7623 27.0237 10.0994 26.6311 9.08594 25.865Z" fill="#C72C71"/>
<path d="M9.08594 28.5416V29.4724C9.08594 30.5438 11.0253 31.4117 13.4107 31.4117C15.8011 31.4117 17.7355 30.5438 17.7355 29.4724V28.5416C16.7271 29.3077 15.0592 29.7003 13.4107 29.7003C11.7623 29.7052 10.0994 29.3077 9.08594 28.5416V28.5416Z" fill="#C72C71"/>
<path d="M13.4155 19.761C13.1487 19.761 12.9307 19.9791 12.9307 20.2458V21.2204C13.0907 21.2108 13.2554 21.2108 13.4155 21.2108C13.5755 21.2108 13.7403 21.2157 13.9003 21.2204V20.7307H17.842C17.8081 20.5756 17.7887 20.4106 17.7887 20.2459C17.7887 20.0809 17.8081 19.9162 17.842 19.761L13.4155 19.761Z" fill="#C72C71"/>
<path d="M26.1239 20.7307V21.2205C26.2839 21.2109 26.4487 21.2109 26.6087 21.2109C26.7687 21.2109 26.9335 21.2158 27.0935 21.2205V20.2459C27.0935 19.9792 26.8754 19.7611 26.6087 19.7611H22.1821C22.2161 19.9162 22.2355 20.0812 22.2355 20.2459C22.2355 20.4109 22.2161 20.5756 22.1821 20.7307L26.1239 20.7307Z" fill="#C72C71"/>
</svg>
