<svg width="24" height="24" viewBox="0 0 24 24" fill="none" xmlns="http://www.w3.org/2000/svg">
<path d="M3.61851 3.26719C3.53414 3.30938 3.40757 3.41719 3.33726 3.50625L3.2107 3.67031L3.19664 11.9437C3.18726 21.1547 3.15914 20.3953 3.50601 20.6625L3.67007 20.7891L5.54976 20.8031C7.42945 20.8125 7.42945 20.8125 7.61695 20.7047C8.1982 20.3766 8.11851 19.4625 7.4857 19.2234C7.40601 19.1906 6.86695 19.1719 6.08882 19.1719H4.82789V12V4.82813H6.09351C7.47164 4.82813 7.55601 4.81406 7.79039 4.56563C8.15132 4.17656 8.06695 3.54844 7.61695 3.29531C7.42945 3.19219 7.4107 3.1875 5.60132 3.1875C4.00288 3.1875 3.75445 3.20156 3.61851 3.26719Z" fill="#C72C71"/>
<path d="M16.3824 3.29531C15.9324 3.54844 15.848 4.17656 16.2089 4.56563C16.4433 4.81406 16.5277 4.82813 17.9058 4.82813H19.1714V12V19.1719H17.9105C17.1324 19.1719 16.5933 19.1906 16.5136 19.2234C15.8808 19.4625 15.8011 20.3766 16.3824 20.7047C16.5699 20.8125 16.5699 20.8125 18.4495 20.8031L20.3292 20.7891L20.4933 20.6625C20.8402 20.4 20.812 21.1453 20.812 12C20.812 2.85469 20.8402 3.6 20.4933 3.3375L20.3292 3.21094L18.4495 3.19688C16.5699 3.1875 16.5699 3.1875 16.3824 3.29531Z" fill="#C72C71"/>
<path d="M7.96875 12V12.8438H8.78906H9.60938V12V11.1562H8.78906H7.96875V12Z" fill="#C72C71"/>
<path d="M11.1562 12V12.8438H12H12.8438V12V11.1562H12H11.1562V12Z" fill="#C72C71"/>
<path d="M14.3906 12V12.8438H15.2109H16.0313V12V11.1562H15.2109H14.3906V12Z" fill="#C72C71"/>
</svg>
