<svg width="24" height="24" viewBox="0 0 24 24" fill="none" xmlns="http://www.w3.org/2000/svg">
<path d="M2.6748 12C2.6748 14.4732 3.65726 16.845 5.40606 18.5939C7.15486 20.3427 9.52667 21.3252 12 21.3252C14.4732 21.3252 16.845 20.3427 18.5939 18.5939C20.3427 16.8451 21.3252 14.4733 21.3252 12C21.3252 9.52682 20.3427 7.15501 18.5939 5.40605C16.8451 3.65725 14.4733 2.67479 12 2.67479C9.52683 2.67479 7.15502 3.65725 5.40606 5.40605C3.65726 7.15484 2.6748 9.52666 2.6748 12V12Z" stroke="#C72C71" stroke-width="1.5"/>
<path d="M6.97985 14.9268V9.51278H8.52033V10.1051H7.72132V14.3366H8.52033V14.9268H6.97985Z" fill="#C72C71"/>
<path d="M9 13C9 13.2399 9.1279 13.4615 9.33563 13.5814C9.54335 13.7014 9.79927 13.7014 10.007 13.5814C10.2147 13.4615 10.3428 13.2399 10.3428 13C10.3428 12.7601 10.2147 12.5385 10.007 12.4186C9.79929 12.2986 9.54336 12.2986 9.33563 12.4186C9.1279 12.5385 9 12.7601 9 13Z" fill="#C72C71"/>
<path d="M11.0928 13C11.0928 13.2399 11.2207 13.4615 11.4284 13.5814C11.6361 13.7014 11.892 13.7014 12.0998 13.5814C12.3075 13.4615 12.4355 13.2399 12.4355 13C12.4355 12.7601 12.3075 12.5385 12.0998 12.4186C11.8921 12.2986 11.6361 12.2986 11.4284 12.4186C11.2207 12.5385 11.0928 12.7601 11.0928 13Z" fill="#C72C71"/>
<path d="M13.1855 13C13.1855 13.2399 13.3134 13.4615 13.5212 13.5814C13.7289 13.7014 13.9848 13.7014 14.1926 13.5814C14.4003 13.4615 14.5283 13.2399 14.5283 13C14.5283 12.7601 14.4003 12.5385 14.1926 12.4186C13.9848 12.2986 13.7289 12.2986 13.5212 12.4186C13.3134 12.5385 13.1855 12.7601 13.1855 13Z" fill="#C72C71"/>
<path d="M16.5485 14.9268V9.51278H15.008V10.1051H15.807V14.3366H15.008V14.9268H16.5485Z" fill="#C72C71"/>
</svg>
