<svg width="16" height="16" viewBox="0 0 16 16" fill="none" xmlns="http://www.w3.org/2000/svg">
<path fill-rule="evenodd" clip-rule="evenodd" d="M2.72415 0.666992C2.3981 0.666992 2.13379 0.929652 2.13379 1.25366V14.747C2.13379 15.071 2.3981 15.3337 2.72415 15.3337H13.2768C13.6028 15.3337 13.8671 15.071 13.8671 14.747V1.25366C13.8671 0.929652 13.6028 0.666992 13.2768 0.666992H2.72415Z" fill="#2C71C7"/>
<path opacity="0.7" fill-rule="evenodd" clip-rule="evenodd" d="M3.05566 2.53677C3.05566 2.25326 3.28694 2.02344 3.57223 2.02344H12.4276C12.7129 2.02344 12.9441 2.25326 12.9441 2.53677C12.9441 2.82028 12.7129 3.0501 12.4276 3.0501H3.57223C3.28694 3.0501 3.05566 2.82028 3.05566 2.53677ZM6.37642 5.54344C6.37642 5.36118 6.52509 5.21344 6.70849 5.21344H11.9848C12.1682 5.21344 12.3169 5.36118 12.3169 5.54344C12.3169 5.72569 12.1682 5.87344 11.9848 5.87344H6.70849C6.52509 5.87344 6.37642 5.72569 6.37642 5.54344ZM3.9781 4.66344C3.81507 4.66344 3.68292 4.79477 3.68292 4.95677V6.1301C3.68292 6.29211 3.81507 6.42344 3.9781 6.42344H5.15881C5.32183 6.42344 5.45399 6.29211 5.45399 6.1301V4.95677C5.45399 4.79477 5.32183 4.66344 5.15881 4.66344H3.9781ZM6.37642 9.17344C6.37642 8.99118 6.52509 8.84344 6.70849 8.84344H11.9848C12.1682 8.84344 12.3169 8.99118 12.3169 9.17344C12.3169 9.35569 12.1682 9.50344 11.9848 9.50344H6.70849C6.52509 9.50344 6.37642 9.35569 6.37642 9.17344ZM3.9781 8.29344C3.81507 8.29344 3.68292 8.42477 3.68292 8.58677V9.7601C3.68292 9.92211 3.81507 10.0534 3.9781 10.0534H5.15881C5.32183 10.0534 5.45399 9.92211 5.45399 9.7601V8.58677C5.45399 8.42477 5.32183 8.29344 5.15881 8.29344H3.9781ZM6.37642 12.8034C6.37642 12.6212 6.52509 12.4734 6.70849 12.4734H11.9848C12.1682 12.4734 12.3169 12.6212 12.3169 12.8034C12.3169 12.9857 12.1682 13.1334 11.9848 13.1334H6.70849C6.52509 13.1334 6.37642 12.9857 6.37642 12.8034ZM3.9781 11.9234C3.81507 11.9234 3.68292 12.0548 3.68292 12.2168V13.3901C3.68292 13.5521 3.81507 13.6834 3.9781 13.6834H5.15881C5.32183 13.6834 5.45399 13.5521 5.45399 13.3901V12.2168C5.45399 12.0548 5.32183 11.9234 5.15881 11.9234H3.9781Z" fill="white"/>
</svg>
