<svg width="24" height="24" viewBox="0 0 24 24" fill="none" xmlns="http://www.w3.org/2000/svg">
<path d="M18.75 12L21 14.25L23.25 12" stroke="#5A6679" stroke-linecap="round" stroke-linejoin="round"/>
<path d="M0.75 12L3 9.75L5.25 12" stroke="#5A6679" stroke-linecap="round" stroke-linejoin="round"/>
<path d="M21.0002 14.25V12C21.0023 10.0555 20.3746 8.16261 19.211 6.60467C18.0475 5.04672 16.4106 3.90753 14.5455 3.3576C12.6804 2.80767 10.6873 2.87659 8.86467 3.55404C7.04199 4.23149 5.48774 5.48103 4.43457 7.11562" stroke="#5A6679" stroke-linecap="round" stroke-linejoin="round"/>
<path d="M3.00001 9.75V12C2.99788 13.9445 3.62558 15.8374 4.78915 17.3953C5.95272 18.9533 7.58957 20.0925 9.45469 20.6424C11.3198 21.1923 13.3129 21.1234 15.1355 20.446C16.9582 19.7685 18.5125 18.519 19.5656 16.8844" stroke="#5A6679" stroke-linecap="round" stroke-linejoin="round"/>
<path d="M12 14.25C13.2426 14.25 14.25 13.2426 14.25 12C14.25 10.7574 13.2426 9.75 12 9.75C10.7574 9.75 9.75 10.7574 9.75 12C9.75 13.2426 10.7574 14.25 12 14.25Z" stroke="#5A6679" stroke-linecap="round" stroke-linejoin="round"/>
<path d="M15.2531 9.78282C15.3659 9.94438 15.4647 10.1153 15.5484 10.2938L16.7625 10.9688C16.914 11.6477 16.9156 12.3516 16.7671 13.0313L15.5484 13.7063C15.4647 13.8847 15.3659 14.0556 15.2531 14.2172L15.2765 15.6094C14.762 16.0782 14.153 16.4315 13.4906 16.6453L12.2953 15.9281C12.0986 15.9422 11.9013 15.9422 11.7046 15.9281L10.514 16.6406C9.84947 16.4307 9.2385 16.0788 8.72339 15.6094L8.74683 14.2219C8.63492 14.0581 8.53618 13.8857 8.45152 13.7063L7.23745 13.0313C7.08586 12.3523 7.08426 11.6484 7.23277 10.9688L8.45152 10.2938C8.53518 10.1153 8.63398 9.94438 8.74683 9.78282L8.72339 8.39063C9.23791 7.92177 9.84688 7.56853 10.5093 7.35469L11.7046 8.07188C11.9013 8.05781 12.0986 8.05781 12.2953 8.07188L13.4859 7.35938C14.1504 7.56933 14.7614 7.9212 15.2765 8.39063L15.2531 9.78282Z" stroke="#5A6679" stroke-linecap="round" stroke-linejoin="round"/>
</svg>
