<svg width="91" height="24" viewBox="0 0 91 24" fill="none" xmlns="http://www.w3.org/2000/svg">
<path d="M0 0H91V24L45.7828 17.5404C45.5952 17.5136 45.4048 17.5136 45.2172 17.5404L0 24V0Z" fill="#C72C71"/>
<path d="M12.233 13V2.81818H15.7926C16.5019 2.81818 17.0869 2.94081 17.5476 3.18608C18.0083 3.42803 18.3513 3.7545 18.5767 4.16548C18.8021 4.57315 18.9148 5.02557 18.9148 5.52273C18.9148 5.96023 18.8369 6.3215 18.6811 6.60653C18.5286 6.89157 18.3265 7.11695 18.0746 7.28267C17.826 7.44839 17.5559 7.57102 17.2642 7.65057V7.75C17.5758 7.76989 17.889 7.87926 18.2038 8.07812C18.5187 8.27699 18.7822 8.56203 18.9943 8.93324C19.2064 9.30445 19.3125 9.75852 19.3125 10.2955C19.3125 10.8059 19.1965 11.2649 18.9645 11.6726C18.7325 12.0803 18.3662 12.4034 17.8658 12.642C17.3653 12.8807 16.714 13 15.9119 13H12.233ZM13.4659 11.9062H15.9119C16.7173 11.9062 17.2891 11.7505 17.6271 11.4389C17.9685 11.1241 18.1392 10.7429 18.1392 10.2955C18.1392 9.95076 18.0514 9.63258 17.8757 9.34091C17.7 9.04593 17.4498 8.81061 17.125 8.63494C16.8002 8.45597 16.4157 8.36648 15.9716 8.36648H13.4659V11.9062ZM13.4659 7.29261H15.7528C16.1241 7.29261 16.4588 7.2197 16.7571 7.07386C17.0587 6.92803 17.2973 6.72254 17.473 6.45739C17.652 6.19223 17.7415 5.88068 17.7415 5.52273C17.7415 5.07528 17.5857 4.69579 17.2741 4.38423C16.9626 4.06937 16.4688 3.91193 15.7926 3.91193H13.4659V7.29261ZM24.381 13.1591C23.6452 13.1591 23.0105 12.9967 22.4769 12.6719C21.9466 12.3438 21.5373 11.8864 21.2489 11.2997C20.9639 10.7098 20.8214 10.0237 20.8214 9.24148C20.8214 8.45928 20.9639 7.76989 21.2489 7.1733C21.5373 6.57339 21.9383 6.10606 22.4521 5.77131C22.9691 5.43324 23.5723 5.2642 24.2617 5.2642C24.6594 5.2642 25.0522 5.33049 25.44 5.46307C25.8278 5.59564 26.1808 5.81108 26.4989 6.10938C26.8171 6.40436 27.0707 6.79545 27.2596 7.28267C27.4485 7.76989 27.543 8.36979 27.543 9.08239V9.57955H21.6566V8.56534H26.3498C26.3498 8.13447 26.2636 7.75 26.0913 7.41193C25.9222 7.07386 25.6803 6.80705 25.3654 6.61151C25.0539 6.41596 24.686 6.31818 24.2617 6.31818C23.7944 6.31818 23.39 6.43419 23.0487 6.66619C22.7106 6.89489 22.4504 7.19318 22.2681 7.56108C22.0858 7.92898 21.9947 8.32339 21.9947 8.74432V9.42045C21.9947 9.99716 22.0941 10.486 22.293 10.8871C22.4951 11.2848 22.7752 11.5881 23.1332 11.7969C23.4911 12.0024 23.9071 12.1051 24.381 12.1051C24.6893 12.1051 24.9677 12.062 25.2163 11.9759C25.4682 11.8864 25.6853 11.7538 25.8675 11.5781C26.0498 11.3991 26.1907 11.1771 26.2901 10.9119L27.4237 11.2301C27.3043 11.6146 27.1038 11.9527 26.8221 12.2443C26.5404 12.5327 26.1924 12.758 25.7781 12.9205C25.3638 13.0795 24.8981 13.1591 24.381 13.1591ZM34.7369 7.07386L33.6829 7.37216C33.6166 7.1965 33.5188 7.0258 33.3896 6.86009C33.2636 6.69105 33.0913 6.55185 32.8725 6.44247C32.6538 6.3331 32.3737 6.27841 32.0323 6.27841C31.565 6.27841 31.1755 6.38613 30.864 6.60156C30.5558 6.81368 30.4016 7.08381 30.4016 7.41193C30.4016 7.7036 30.5077 7.93395 30.7198 8.10298C30.9319 8.27202 31.2634 8.41288 31.7141 8.52557L32.8477 8.80398C33.5304 8.9697 34.0392 9.22325 34.3739 9.56463C34.7087 9.9027 34.8761 10.3385 34.8761 10.8722C34.8761 11.3097 34.7501 11.7008 34.4982 12.0455C34.2496 12.3902 33.9016 12.6619 33.4542 12.8608C33.0067 13.0597 32.4864 13.1591 31.8931 13.1591C31.1142 13.1591 30.4696 12.9901 29.9592 12.652C29.4487 12.3139 29.1256 11.8201 28.9897 11.1705L30.1033 10.892C30.2094 11.303 30.4099 11.6113 30.7049 11.8168C31.0032 12.0223 31.3926 12.125 31.8732 12.125C32.4201 12.125 32.8543 12.009 33.1758 11.777C33.5006 11.5417 33.663 11.2599 33.663 10.9318C33.663 10.6667 33.5702 10.4446 33.3846 10.2656C33.199 10.0833 32.9139 9.94744 32.5295 9.85795L31.2567 9.55966C30.5574 9.39394 30.0437 9.13707 29.7156 8.78906C29.3907 8.43774 29.2283 7.99858 29.2283 7.47159C29.2283 7.04072 29.3493 6.65956 29.5913 6.32812C29.8365 5.99669 30.1696 5.73651 30.5906 5.54758C31.0148 5.35866 31.4954 5.2642 32.0323 5.2642C32.788 5.2642 33.3813 5.42992 33.8121 5.76136C34.2463 6.0928 34.5546 6.5303 34.7369 7.07386ZM39.9632 5.36364V6.35795H36.0059V5.36364H39.9632ZM37.1593 3.53409H38.3326V10.8125C38.3326 11.1439 38.3806 11.3925 38.4767 11.5582C38.5762 11.7206 38.7021 11.83 38.8546 11.8864C39.0104 11.9394 39.1744 11.9659 39.3468 11.9659C39.476 11.9659 39.5821 11.9593 39.665 11.946C39.7478 11.9295 39.8141 11.9162 39.8638 11.9062L40.1025 12.9602C40.0229 12.9901 39.9119 13.0199 39.7694 13.0497C39.6268 13.0829 39.4462 13.0994 39.2275 13.0994C38.896 13.0994 38.5712 13.0282 38.253 12.8857C37.9382 12.7431 37.6763 12.526 37.4675 12.2344C37.262 11.9427 37.1593 11.5748 37.1593 11.1307V3.53409ZM51.91 5.36364L49.0861 13H47.8929L45.0691 5.36364H46.3418L48.4498 11.4489H48.5293L50.6373 5.36364H51.91ZM55.4734 13.179C54.9895 13.179 54.5503 13.0878 54.1559 12.9055C53.7615 12.7199 53.4483 12.4531 53.2163 12.1051C52.9843 11.7538 52.8683 11.3295 52.8683 10.8324C52.8683 10.3949 52.9544 10.0402 53.1268 9.76847C53.2991 9.49337 53.5295 9.27794 53.8178 9.12216C54.1062 8.96638 54.4244 8.85038 54.7724 8.77415C55.1237 8.6946 55.4767 8.63163 55.8313 8.58523C56.2953 8.52557 56.6715 8.48082 56.9599 8.45099C57.2515 8.41785 57.4637 8.36316 57.5962 8.28693C57.7321 8.2107 57.8001 8.07812 57.8001 7.8892V7.84943C57.8001 7.3589 57.6658 6.97775 57.3974 6.70597C57.1322 6.43419 56.7295 6.2983 56.1893 6.2983C55.6291 6.2983 55.19 6.42093 54.8718 6.66619C54.5536 6.91146 54.3299 7.1733 54.2006 7.4517L53.087 7.05398C53.2859 6.58996 53.551 6.22869 53.8825 5.97017C54.2172 5.70833 54.5818 5.52604 54.9762 5.4233C55.3739 5.31723 55.765 5.2642 56.1495 5.2642C56.3948 5.2642 56.6765 5.29403 56.9947 5.35369C57.3162 5.41004 57.6261 5.5277 57.9244 5.70668C58.226 5.88565 58.4762 6.15578 58.6751 6.51705C58.8739 6.87831 58.9734 7.36222 58.9734 7.96875V13H57.8001V11.9659H57.7404C57.6609 12.1316 57.5283 12.3089 57.3427 12.4979C57.1571 12.6868 56.9102 12.8475 56.6019 12.9801C56.2937 13.1127 55.9175 13.179 55.4734 13.179ZM55.6523 12.125C56.1164 12.125 56.5075 12.0339 56.8256 11.8516C57.1471 11.6693 57.3891 11.4339 57.5515 11.1456C57.7172 10.8572 57.8001 10.554 57.8001 10.2358V9.16193C57.7504 9.22159 57.641 9.27628 57.4719 9.32599C57.3062 9.3724 57.114 9.41383 56.8952 9.45028C56.6798 9.48343 56.4693 9.51326 56.2638 9.53977C56.0617 9.56297 55.8976 9.58286 55.7717 9.59943C55.4667 9.6392 55.1817 9.70384 54.9165 9.79332C54.6547 9.8795 54.4426 10.0104 54.2802 10.1861C54.1211 10.3584 54.0415 10.5937 54.0415 10.892C54.0415 11.2997 54.1924 11.608 54.494 11.8168C54.7989 12.0223 55.185 12.125 55.6523 12.125ZM62.2882 2.81818V13H61.1149V2.81818H62.2882ZM69.2496 9.87784V5.36364H70.4229V13H69.2496V11.7074H69.1701C68.9911 12.0952 68.7127 12.425 68.3349 12.6967C67.957 12.9652 67.4798 13.0994 66.9031 13.0994C66.4258 13.0994 66.0015 12.995 65.6303 12.7862C65.2591 12.5741 64.9674 12.2559 64.7553 11.8317C64.5432 11.4041 64.4371 10.8655 64.4371 10.2159V5.36364H65.6104V10.1364C65.6104 10.6932 65.7662 11.1373 66.0778 11.4688C66.3926 11.8002 66.7937 11.9659 67.2809 11.9659C67.5726 11.9659 67.8692 11.8913 68.1708 11.7422C68.4757 11.593 68.7309 11.3643 68.9364 11.0561C69.1452 10.7479 69.2496 10.3551 69.2496 9.87784ZM75.7736 13.1591C75.0378 13.1591 74.4031 12.9967 73.8695 12.6719C73.3392 12.3438 72.9299 11.8864 72.6415 11.2997C72.3565 10.7098 72.214 10.0237 72.214 9.24148C72.214 8.45928 72.3565 7.76989 72.6415 7.1733C72.9299 6.57339 73.3309 6.10606 73.8446 5.77131C74.3617 5.43324 74.9649 5.2642 75.6543 5.2642C76.052 5.2642 76.4448 5.33049 76.8326 5.46307C77.2203 5.59564 77.5733 5.81108 77.8915 6.10938C78.2097 6.40436 78.4632 6.79545 78.6522 7.28267C78.8411 7.76989 78.9355 8.36979 78.9355 9.08239V9.57955H73.0492V8.56534H77.7424C77.7424 8.13447 77.6562 7.75 77.4838 7.41193C77.3148 7.07386 77.0729 6.80705 76.758 6.61151C76.4464 6.41596 76.0785 6.31818 75.6543 6.31818C75.187 6.31818 74.7826 6.43419 74.4412 6.66619C74.1032 6.89489 73.843 7.19318 73.6607 7.56108C73.4784 7.92898 73.3873 8.32339 73.3873 8.74432V9.42045C73.3873 9.99716 73.4867 10.486 73.6855 10.8871C73.8877 11.2848 74.1678 11.5881 74.5257 11.7969C74.8837 12.0024 75.2997 12.1051 75.7736 12.1051C76.0819 12.1051 76.3603 12.062 76.6088 11.9759C76.8607 11.8864 77.0778 11.7538 77.2601 11.5781C77.4424 11.3991 77.5833 11.1771 77.6827 10.9119L78.8162 11.2301C78.6969 11.6146 78.4964 11.9527 78.2147 12.2443C77.9329 12.5327 77.5849 12.758 77.1706 12.9205C76.7563 13.0795 76.2907 13.1591 75.7736 13.1591Z" fill="white"/>
</svg>
