<svg width="24" height="24" viewBox="0 0 24 24" fill="none" xmlns="http://www.w3.org/2000/svg">
<path d="M17.1938 19.2581H9.06477C8.44878 19.2581 7.85802 19.0134 7.42246 18.5778C6.98689 18.1422 6.74219 17.5515 6.74219 16.9355V5.32258C6.74219 4.70659 6.98689 4.11584 7.42246 3.68027C7.85802 3.2447 8.44878 3 9.06477 3H13.7099L19.5164 8.80645V16.9355C19.5164 17.5515 19.2717 18.1422 18.8361 18.5778C18.4005 19.0134 17.8098 19.2581 17.1938 19.2581Z" stroke="#C72C71" stroke-linecap="round" stroke-linejoin="round"/>
<path d="M15.4516 20.9999H7.32258C6.70659 20.9999 6.11584 20.7552 5.68027 20.3197C5.2447 19.8841 5 19.2933 5 18.6774V7.06445" stroke="#C72C71" stroke-linecap="round" stroke-linejoin="round"/>
<path d="M8.93417 12.4126V12.0162C9.28999 12.0162 9.53822 11.9417 9.67884 11.7925C9.8216 11.6434 9.89298 11.3941 9.89298 11.0447V10.0219C9.89298 9.72789 9.92067 9.47328 9.97607 9.25808C10.0336 9.04288 10.1263 8.86497 10.2541 8.72434C10.382 8.58372 10.5524 8.47931 10.7655 8.41113C10.9786 8.34295 11.2417 8.30886 11.5549 8.30886V8.93528C11.3077 8.93528 11.1128 8.97363 10.97 9.05034C10.8294 9.12704 10.7293 9.24636 10.6696 9.40829C10.6121 9.56809 10.5833 9.77264 10.5833 10.0219V11.3003C10.5833 11.4665 10.5609 11.6178 10.5162 11.7542C10.4736 11.8905 10.3937 12.0077 10.2765 12.1057C10.1593 12.2037 9.99205 12.2794 9.77472 12.3327C9.55952 12.3859 9.27934 12.4126 8.93417 12.4126ZM11.5549 16.4907C11.2417 16.4907 10.9786 16.4566 10.7655 16.3884C10.5524 16.3202 10.382 16.2158 10.2541 16.0752C10.1263 15.9346 10.0336 15.7567 9.97607 15.5415C9.92067 15.3263 9.89298 15.0716 9.89298 14.7776V13.7549C9.89298 13.4055 9.8216 13.1562 9.67884 13.007C9.53822 12.8579 9.28999 12.7833 8.93417 12.7833V12.387C9.27934 12.387 9.55952 12.4136 9.77472 12.4669C9.99205 12.5202 10.1593 12.5958 10.2765 12.6938C10.3937 12.7918 10.4736 12.909 10.5162 13.0454C10.5609 13.1817 10.5833 13.333 10.5833 13.4992V14.7776C10.5833 15.0269 10.6121 15.2314 10.6696 15.3912C10.7293 15.551 10.8294 15.6693 10.97 15.746C11.1128 15.8248 11.3077 15.8643 11.5549 15.8643V16.4907ZM8.93417 12.7833V12.0162H9.68843V12.7833H8.93417ZM17.3213 12.387V12.7833C16.9655 12.7833 16.7162 12.8579 16.5735 13.007C16.4328 13.1562 16.3625 13.4055 16.3625 13.7549V14.7776C16.3625 15.0716 16.3338 15.3263 16.2762 15.5415C16.2208 15.7567 16.1292 15.9346 16.0014 16.0752C15.8735 16.2158 15.7031 16.3202 15.49 16.3884C15.2769 16.4566 15.0138 16.4907 14.7006 16.4907V15.8643C14.9478 15.8643 15.1416 15.8248 15.2823 15.746C15.425 15.6693 15.5252 15.551 15.5827 15.3912C15.6424 15.2314 15.6722 15.0269 15.6722 14.7776V13.4992C15.6722 13.333 15.6935 13.1817 15.7361 13.0454C15.7808 12.909 15.8618 12.7918 15.979 12.6938C16.0962 12.5958 16.2624 12.5202 16.4776 12.4669C16.6949 12.4136 16.9762 12.387 17.3213 12.387ZM14.7006 8.30886C15.0138 8.30886 15.2769 8.34295 15.49 8.41113C15.7031 8.47931 15.8735 8.58372 16.0014 8.72434C16.1292 8.86497 16.2208 9.04288 16.2762 9.25808C16.3338 9.47328 16.3625 9.72789 16.3625 10.0219V11.0447C16.3625 11.3941 16.4328 11.6434 16.5735 11.7925C16.7162 11.9417 16.9655 12.0162 17.3213 12.0162V12.4126C16.9762 12.4126 16.6949 12.3859 16.4776 12.3327C16.2624 12.2794 16.0962 12.2037 15.979 12.1057C15.8618 12.0077 15.7808 11.8905 15.7361 11.7542C15.6935 11.6178 15.6722 11.4665 15.6722 11.3003V10.0219C15.6722 9.77264 15.6424 9.56809 15.5827 9.40829C15.5252 9.24636 15.425 9.12704 15.2823 9.05034C15.1416 8.97363 14.9478 8.93528 14.7006 8.93528V8.30886ZM17.3213 12.0162V12.7833H16.5671V12.0162H17.3213Z" fill="#C72C71"/>
</svg>
