<svg width="24" height="24" viewBox="0 0 24 24" fill="none" xmlns="http://www.w3.org/2000/svg">
<path opacity="0.4" d="M2.5 2.83333C2.5 2.64948 2.64948 2.5 2.83333 2.5H21.1641C21.3479 2.5 21.4974 2.64948 21.4974 2.83333V21.1667C21.4974 21.3505 21.3479 21.5 21.1641 21.5H2.83333C2.64948 21.5 2.5 21.3505 2.5 21.1667V2.83333Z" stroke="#2C71C7"/>
<path d="M9 2.83333V21.1667C9 21.6267 9.384 22 9.85714 22H14.1429C14.616 22 15 21.6267 15 21.1667V2.83333C15 2.37333 14.616 2 14.1429 2H9.85714C9.384 2 9 2.37333 9 2.83333Z" fill="#2C71C7"/>
</svg>
