<svg width="112" height="112" viewBox="0 0 112 112" fill="none" xmlns="http://www.w3.org/2000/svg">
<path fill-rule="evenodd" clip-rule="evenodd" d="M30.8503 79.1377H86.515C89.1077 79.1377 91.2096 77.0359 91.2096 74.4431C91.2096 71.8503 89.1077 69.7485 86.515 69.7485C86.515 69.7485 82.491 67.6466 82.491 65.0539C82.491 62.4611 85.1412 60.3593 88.4103 60.3593H95.2335C97.8263 60.3593 99.9281 58.2574 99.9281 55.6646C99.9281 53.0719 97.8263 50.97 95.2335 50.97H80.479C83.0718 50.97 85.1737 48.8682 85.1737 46.2754C85.1737 43.6827 83.0718 41.5808 80.479 41.5808H107.305C109.898 41.5808 112 39.479 112 36.8862C112 34.2934 109.898 32.1916 107.305 32.1916H41.5808C38.9881 32.1916 36.8862 34.2934 36.8862 36.8862C36.8862 39.479 38.9881 41.5808 41.5808 41.5808H14.7545C12.1617 41.5808 10.0599 43.6827 10.0599 46.2754C10.0599 48.8682 12.1617 50.97 14.7545 50.97H31.521C34.1137 50.97 36.2156 53.0719 36.2156 55.6646C36.2156 58.2574 34.1137 60.3593 31.521 60.3593H4.69461C2.10185 60.3593 0 62.4611 0 65.0539C0 67.6466 2.10185 69.7485 4.69461 69.7485H30.8503C28.2575 69.7485 26.1557 71.8503 26.1557 74.4431C26.1557 77.0359 28.2575 79.1377 30.8503 79.1377ZM102.611 55.6647C102.611 58.2575 104.713 60.3593 107.305 60.3593C109.898 60.3593 112 58.2575 112 55.6647C112 53.0719 109.898 50.9701 107.305 50.9701C104.713 50.9701 102.611 53.0719 102.611 55.6647Z" fill="#F3F7FF"/>
<g clip-path="url(#clip0)">
<path d="M77.3309 51.6667H59.5576C55.1087 51.6667 52.8887 53.776 52.8887 57.9947V70.6635C52.8887 74.8906 55.1087 77 59.5576 77H77.3309C81.7798 77 83.9998 74.8906 83.9998 70.6635V57.9947C83.9998 53.776 81.7798 51.6667 77.3309 51.6667ZM79.5509 70.6635C79.5509 71.6546 78.3963 72.7728 77.3309 72.7728H63.9976V55.8218H77.3309C78.3963 55.8218 79.5509 57.0036 79.5509 57.9947V70.6635Z" fill="#75A4FE"/>
<path d="M47.1767 52.8108C47.1767 48.5921 49.4462 46.4023 53.9401 46.4023H71.5558C70.8669 43.628 68.782 42.1667 65.1346 42.1667H47.1812C42.6872 42.1667 40.4447 44.276 40.4447 48.4947V61.1635C40.4447 65.3906 42.6872 67.5 47.1812 67.5L47.1767 52.8108Z" fill="#A4C3FE"/>
<path d="M34.0588 43.3108C34.0588 39.0921 36.1013 36.9023 40.1459 36.9023H56C55.3799 34.128 53.5035 32.6667 50.2209 32.6667H34.0628C30.0182 32.6667 28 34.776 28 38.9947V51.6635C28 55.8906 30.0182 58 34.0628 58L34.0588 43.3108Z" fill="#A4C3FE"/>
</g>
<defs>
<clipPath id="clip0">
<rect width="56" height="44.3333" fill="white" transform="translate(28 32.6667)"/>
</clipPath>
</defs>
</svg>
