<svg width="168" height="168" viewBox="0 0 168 168" fill="none" xmlns="http://www.w3.org/2000/svg">
<path fill-rule="evenodd" clip-rule="evenodd" d="M46.2754 118.707H129.772C133.662 118.707 136.814 115.554 136.814 111.665C136.814 107.775 133.662 104.623 129.772 104.623C129.772 104.623 123.737 101.47 123.737 97.5808C123.737 93.6916 127.712 90.5388 132.615 90.5388H142.85C146.739 90.5388 149.892 87.3861 149.892 83.4969C149.892 79.6078 146.739 76.455 142.85 76.455H120.719C124.608 76.455 127.76 73.3022 127.76 69.4131C127.76 65.524 124.608 62.3712 120.719 62.3712H160.958C164.847 62.3712 168 59.2184 168 55.3293C168 51.4401 164.847 48.2874 160.958 48.2874H62.3713C58.4821 48.2874 55.3293 51.4401 55.3293 55.3293C55.3293 59.2184 58.4821 62.3712 62.3713 62.3712H22.1317C18.2426 62.3712 15.0898 65.524 15.0898 69.4131C15.0898 73.3022 18.2426 76.455 22.1317 76.455H47.2814C51.1706 76.455 54.3234 79.6078 54.3234 83.4969C54.3234 87.3861 51.1706 90.5388 47.2814 90.5388H7.04192C3.15277 90.5388 0 93.6916 0 97.5808C0 101.47 3.15277 104.623 7.04192 104.623H46.2754C42.3863 104.623 39.2335 107.775 39.2335 111.665C39.2335 115.554 42.3863 118.707 46.2754 118.707ZM153.916 83.4969C153.916 87.3861 157.069 90.5388 160.958 90.5388C164.847 90.5388 168 87.3861 168 83.4969C168 79.6078 164.847 76.455 160.958 76.455C157.069 76.455 153.916 79.6078 153.916 83.4969Z" fill="#F3F7FF"/>
<path fill-rule="evenodd" clip-rule="evenodd" d="M107.311 47.2814L116.668 115.53L117.509 122.377C117.78 124.583 116.211 126.591 114.005 126.862L55.0945 134.095C52.8887 134.366 50.881 132.797 50.6101 130.592L41.5404 56.7244C41.4049 55.6215 42.1892 54.6176 43.2921 54.4822C43.2991 54.4814 43.3061 54.4805 43.3131 54.4798L48.2005 53.9315M52.1526 53.4882L56.7671 52.9706L52.1526 53.4882Z" fill="white"/>
<path d="M108.549 47.1116C108.455 46.4277 107.825 45.9492 107.141 46.043C106.457 46.1368 105.978 46.7673 106.072 47.4512L108.549 47.1116ZM116.668 115.53L117.909 115.378L117.908 115.369L117.907 115.361L116.668 115.53ZM117.509 122.377L118.75 122.225L117.509 122.377ZM114.005 126.862L114.158 128.102L114.005 126.862ZM55.0945 134.095L55.2468 135.336L55.0945 134.095ZM50.6101 130.592L51.8508 130.439L50.6101 130.592ZM41.5404 56.7244L42.781 56.5721L41.5404 56.7244ZM43.3131 54.4798L43.4524 55.722L43.3131 54.4798ZM48.3399 55.1737C49.0259 55.0968 49.5197 54.4782 49.4427 53.7922C49.3658 53.1061 48.7472 52.6124 48.0612 52.6893L48.3399 55.1737ZM52.0132 52.246C51.3272 52.3229 50.8334 52.9415 50.9104 53.6275C50.9873 54.3136 51.6059 54.8073 52.2919 54.7304L52.0132 52.246ZM56.9064 54.2128C57.5925 54.1358 58.0862 53.5173 58.0093 52.8312C57.9323 52.1452 57.3138 51.6514 56.6277 51.7283L56.9064 54.2128ZM106.072 47.4512L115.43 115.7L117.907 115.361L108.549 47.1116L106.072 47.4512ZM115.428 115.683L116.268 122.53L118.75 122.225L117.909 115.378L115.428 115.683ZM116.268 122.53C116.455 124.05 115.374 125.434 113.853 125.621L114.158 128.102C117.049 127.748 119.105 125.116 118.75 122.225L116.268 122.53ZM113.853 125.621L54.9421 132.854L55.2468 135.336L114.158 128.102L113.853 125.621ZM54.9421 132.854C53.4215 133.041 52.0375 131.96 51.8508 130.439L49.3694 130.744C49.7244 133.635 52.3558 135.691 55.2468 135.336L54.9421 132.854ZM51.8508 130.439L42.781 56.5721L40.2997 56.8767L49.3694 130.744L51.8508 130.439ZM42.781 56.5721C42.7298 56.1544 43.0268 55.7742 43.4445 55.7229L43.1398 53.2415C41.3517 53.4611 40.0801 55.0886 40.2997 56.8767L42.781 56.5721ZM43.4445 55.7229C43.4471 55.7226 43.4498 55.7223 43.4524 55.722L43.1737 53.2376C43.1624 53.2388 43.1511 53.2401 43.1398 53.2415L43.4445 55.7229ZM43.4524 55.722L48.3399 55.1737L48.0612 52.6893L43.1737 53.2376L43.4524 55.722ZM52.2919 54.7304L56.9064 54.2128L56.6277 51.7283L52.0132 52.246L52.2919 54.7304Z" fill="#75A4FE"/>
<path fill-rule="evenodd" clip-rule="evenodd" d="M104.764 51.5762L113.234 113.428L113.995 119.633C114.241 121.632 112.839 123.449 110.863 123.692L58.1072 130.17C56.1319 130.412 54.3315 128.988 54.0861 126.989L45.8858 60.2034C45.7512 59.107 46.5308 58.1091 47.6272 57.9745L54.1655 57.1717" fill="#E8F0FE"/>
<path d="M61.2792 37.1976C61.2792 35.6789 62.5104 34.4476 64.0292 34.4476H109.893C110.622 34.4476 111.321 34.7371 111.837 35.2525L125.374 48.7819C125.89 49.2977 126.18 49.9974 126.18 50.727V113.701C126.18 115.219 124.949 116.451 123.43 116.451H64.0292C62.5104 116.451 61.2792 115.219 61.2792 113.701V37.1976Z" fill="white" stroke="#75A4FE" stroke-width="2.5"/>
<path d="M110.329 35.6149V47.2815C110.329 48.9483 111.68 50.2995 113.347 50.2995H121.328" stroke="#75A4FE" stroke-width="2.5" stroke-linecap="round" stroke-linejoin="round"/>
<path d="M72.1011 47.7994C70.7203 47.7994 69.6011 48.9187 69.6011 50.2994H72.1011V47.7994ZM98.2567 47.7994H72.1011V50.2994H98.2567V47.7994ZM100.757 50.2994C100.757 48.9187 99.6374 47.7994 98.2567 47.7994V50.2994H100.757ZM98.2567 52.7994C99.6374 52.7994 100.757 51.6801 100.757 50.2994H98.2567V52.7994ZM72.1011 52.7994H98.2567V50.2994H72.1011V52.7994ZM69.6011 50.2994C69.6011 51.6802 70.7203 52.7994 72.1011 52.7994V50.2994H69.6011ZM72.1011 59.8713C70.7203 59.8713 69.6011 60.9906 69.6011 62.3713H72.1011V59.8713ZM115.359 59.8713H72.1011V62.3713H115.359V59.8713ZM117.859 62.3713C117.859 60.9906 116.739 59.8713 115.359 59.8713V62.3713H117.859ZM115.359 64.8713C116.739 64.8713 117.859 63.7521 117.859 62.3713H115.359V64.8713ZM72.1011 64.8713H115.359V62.3713H72.1011V64.8713ZM69.6011 62.3713C69.6011 63.752 70.7203 64.8713 72.1011 64.8713V62.3713H69.6011ZM72.1011 75.4492V72.9492C70.7203 72.9492 69.6011 74.0684 69.6011 75.4492H72.1011ZM72.1011 75.4492H69.6011C69.6011 76.8299 70.7203 77.9492 72.1011 77.9492V75.4492ZM115.359 75.4492H72.1011V77.9492H115.359V75.4492ZM115.359 75.4492V77.9492C116.739 77.9492 117.859 76.8299 117.859 75.4492H115.359ZM115.359 75.4492H117.859C117.859 74.0684 116.739 72.9492 115.359 72.9492V75.4492ZM72.1011 75.4492H115.359V72.9492H72.1011V75.4492ZM72.1011 86.027C70.7203 86.027 69.6011 87.1463 69.6011 88.527H72.1011V86.027ZM115.359 86.027H72.1011V88.527H115.359V86.027ZM117.859 88.527C117.859 87.1463 116.739 86.027 115.359 86.027V88.527H117.859ZM115.359 91.027C116.739 91.027 117.859 89.9077 117.859 88.527H115.359V91.027ZM72.1011 91.027H115.359V88.527H72.1011V91.027ZM69.6011 88.527C69.6011 89.9077 70.7203 91.027 72.1011 91.027V88.527H69.6011ZM72.1011 101.605V99.1048C70.7203 99.1048 69.6011 100.224 69.6011 101.605H72.1011ZM72.1011 101.605H69.6011C69.6011 102.986 70.7203 104.105 72.1011 104.105V101.605ZM98.2567 101.605H72.1011V104.105H98.2567V101.605ZM98.2567 101.605V104.105C99.6374 104.105 100.757 102.986 100.757 101.605H98.2567ZM98.2567 101.605H100.757C100.757 100.224 99.6374 99.1048 98.2567 99.1048V101.605ZM72.1011 101.605H98.2567V99.1048H72.1011V101.605Z" fill="#A4C3FE"/>
</svg>
