<svg width="40" height="40" viewBox="0 0 40 40" fill="none" xmlns="http://www.w3.org/2000/svg">
<path d="M39.8042 21.3324L37.4472 17.5884L38.8472 13.3884C38.9389 13.1113 38.9326 12.811 38.8293 12.538C38.7261 12.265 38.5323 12.0356 38.2802 11.8884L34.4632 9.6694L33.7632 5.2944C33.7167 5.00553 33.5719 4.74159 33.3533 4.54718C33.1346 4.35276 32.8556 4.2398 32.5632 4.2274L28.1632 4.0544L25.5242 0.511397C25.3514 0.276412 25.1021 0.109013 24.8192 0.0380133C24.5363 -0.0329868 24.2375 -0.00314712 23.9742 0.122397L19.9972 2.0254L16.0222 0.120397C15.7584 -0.00403687 15.4596 -0.0330784 15.1767 0.0382263C14.8939 0.109531 14.6445 0.276764 14.4712 0.511397L11.8312 4.0584L7.43128 4.2314C7.13882 4.24283 6.85937 4.35532 6.64056 4.5497C6.42174 4.74408 6.2771 5.00832 6.23128 5.2974L5.53128 9.6724L1.71828 11.8824C1.46619 12.0296 1.27225 12.2589 1.16887 12.5319C1.06549 12.8049 1.05893 13.1051 1.15028 13.3824L2.55028 17.5824L0.197286 21.3324C0.0409796 21.5808 -0.0250577 21.8755 0.0102707 22.1668C0.0455991 22.4582 0.18014 22.7285 0.391286 22.9324L3.56828 25.9994L3.20728 30.4114C3.18285 30.7028 3.25962 30.9936 3.42466 31.235C3.58969 31.4764 3.8329 31.6535 4.11328 31.7364L8.34328 32.9634L10.0642 37.0434C10.1761 37.3131 10.3785 37.5353 10.6366 37.6719C10.8947 37.8084 11.1923 37.8507 11.4782 37.7914L15.7932 36.9004L19.1972 39.7114C19.4223 39.8976 19.7052 39.9994 19.9972 39.9994C20.2893 39.9994 20.5722 39.8976 20.7972 39.7114L24.2022 36.9034L28.5172 37.7944C28.8031 37.8533 29.1006 37.8108 29.3586 37.6744C29.6166 37.5379 29.8191 37.3158 29.9312 37.0464L31.6522 32.9664L35.8822 31.7394C36.1627 31.6566 36.406 31.4796 36.5711 31.2382C36.7362 30.9968 36.8129 30.7058 36.7882 30.4144L36.4312 25.9984L39.6082 22.9314C39.8195 22.7278 39.9542 22.4578 39.9899 22.1667C40.0256 21.8755 39.96 21.5809 39.8042 21.3324Z" fill="#DB3636"/>
<path d="M25.9971 13.998L13.9971 25.998" stroke="white" stroke-width="1.5" stroke-linecap="round" stroke-linejoin="round"/>
<path d="M13.9971 13.998L25.9971 25.998" stroke="white" stroke-width="1.5" stroke-linecap="round" stroke-linejoin="round"/>
</svg>
