<svg width="24" height="24" viewBox="0 0 24 24" fill="none" xmlns="http://www.w3.org/2000/svg">
<path d="M9.08887 12.9122H6.3689C6.13436 12.9122 5.94385 13.1027 5.94385 13.3373C5.94385 13.5718 6.13436 13.7623 6.3689 13.7623H9.08887C9.3234 13.7623 9.51392 13.5718 9.51392 13.3373C9.51392 13.1026 9.32359 12.9122 9.08887 12.9122Z" fill="#5A6679"/>
<path d="M9.08887 14.4658H6.3689C6.13436 14.4658 5.94385 14.6563 5.94385 14.8908C5.94385 15.1254 6.13436 15.3159 6.3689 15.3159H9.08887C9.3234 15.3159 9.51392 15.1254 9.51392 14.8908C9.51392 14.6563 9.32359 14.4658 9.08887 14.4658Z" fill="#5A6679"/>
<path d="M6.27027 9.91693C6.03573 9.91693 5.84521 10.1074 5.84521 10.342C5.84521 10.5765 6.03573 10.767 6.27027 10.767H8.99023C9.22477 10.767 9.41529 10.5765 9.41529 10.342C9.41529 10.1074 9.22477 9.91693 8.99023 9.91693H6.27027Z" fill="#5A6679"/>
<path d="M16.0173 9.21498H18.7373C18.9718 9.21498 19.1624 9.02446 19.1624 8.78992C19.1624 8.55539 18.9718 8.36487 18.7373 8.36487H16.0173C15.7828 8.36487 15.5923 8.55539 15.5923 8.78992C15.5923 9.02446 15.7824 9.21498 16.0173 9.21498Z" fill="#5A6679"/>
<path d="M15.9182 5.36958C15.6837 5.36958 15.4932 5.5601 15.4932 5.79464C15.4932 6.02918 15.6837 6.21969 15.9182 6.21969H18.6382C18.8727 6.21969 19.0632 6.02918 19.0632 5.79464C19.0632 5.5601 18.8727 5.36958 18.6382 5.36958H15.9182Z" fill="#5A6679"/>
<path d="M20.5747 14.1529H19.8199C19.5854 14.1529 19.3948 14.3434 19.3948 14.578C19.3948 14.8125 19.5854 15.003 19.8199 15.003H20.1497V17.2816L14.59 17.2814V15.003H18.5255C18.7601 15.003 18.9506 14.8125 18.9506 14.578C18.9506 14.3434 18.7601 14.1529 18.5255 14.1529H14.1649C13.9304 14.1529 13.7399 14.3434 13.7399 14.578V17.6086C13.7325 17.6401 13.7273 17.6727 13.7273 17.7065C13.7273 17.7403 13.7323 17.7731 13.7399 17.8044V18.7303H12.9237V14.8909C12.9237 14.6564 12.7332 14.4659 12.4987 14.4659H11.2725V13.7621H12.4987C12.7332 13.7621 12.9237 13.5716 12.9237 13.337V9.2151H13.6607V10.41C13.6607 10.6446 13.8512 10.8351 14.0858 10.8351H20.4956C20.7302 10.8351 20.9207 10.6446 20.9207 10.41V4.42524C20.9207 4.19071 20.7302 4.00019 20.4956 4.00019H19.7408C19.5062 4.00019 19.3157 4.19071 19.3157 4.42524C19.3157 4.65978 19.5062 4.8503 19.7408 4.8503H20.0706V6.91636H14.5108V4.8503H18.4464C18.681 4.8503 18.8715 4.65978 18.8715 4.42524C18.8715 4.19071 18.681 4.00019 18.4464 4.00019L14.0858 4C13.8513 4 13.6607 4.19052 13.6607 4.42505V8.36495H12.4987C12.2641 8.36495 12.0736 8.55547 12.0736 8.79001V12.9123H11.2725V8.97198C11.2725 8.73744 11.0819 8.54692 10.8474 8.54692H10.0926C9.85802 8.54692 9.6675 8.73744 9.6675 8.97198C9.6675 9.20652 9.85802 9.39703 10.0926 9.39703H10.4224V11.4631H4.86263V9.39703H8.79821C9.03274 9.39703 9.22326 9.20652 9.22326 8.97198C9.22326 8.73744 9.03274 8.54692 8.79821 8.54692H4.43758C4.20304 8.54692 4.01252 8.73744 4.01252 8.97198V11.7901C4.00512 11.8216 4 11.8542 4 11.888C4 11.9218 4.00493 11.9546 4.01252 11.9859V16.6571C4.01252 16.8917 4.20304 17.0822 4.43758 17.0822H10.8474C11.0819 17.0822 11.2725 16.8917 11.2725 16.6571L11.2727 15.3159H12.0738V19.1553C12.0738 19.3898 12.2643 19.5803 12.4989 19.5803H13.7401V20.5627C13.7401 20.7973 13.9306 20.9878 14.1651 20.9878H20.5749C20.8095 20.9878 21 20.7973 21 20.5627V14.578C21 14.343 20.8095 14.1529 20.5749 14.1529L20.5747 14.1529ZM20.0706 7.76592V9.98456H14.5108V7.76592H20.0706ZM4.86233 16.232V12.3132H10.422L10.4222 13.2396C10.4148 13.2709 10.4099 13.3033 10.4099 13.3369C10.4099 13.3705 10.4146 13.4029 10.4222 13.4342V14.7936C10.4148 14.825 10.4099 14.8574 10.4099 14.891C10.4099 14.9246 10.4146 14.957 10.4222 14.9883V16.2322H4.86252L4.86233 16.232ZM14.59 20.1376V18.1315H20.1497V20.1376H14.59Z" fill="#5A6679"/>
<path d="M18.8159 18.7304H16.096C15.8614 18.7304 15.6709 18.9209 15.6709 19.1554C15.6709 19.39 15.8614 19.5805 16.096 19.5805H18.8159C19.0505 19.5805 19.241 19.39 19.241 19.1554C19.241 18.9209 19.0506 18.7304 18.8159 18.7304Z" fill="#5A6679"/>
<path d="M15.9978 15.7351C15.7633 15.7351 15.5728 15.9256 15.5728 16.1602C15.5728 16.3947 15.7633 16.5852 15.9978 16.5852H18.7178C18.9523 16.5852 19.1428 16.3947 19.1428 16.1602C19.1428 15.9256 18.9523 15.7351 18.7178 15.7351H15.9978Z" fill="#5A6679"/>
</svg>
