<svg width="30" height="30" viewBox="0 0 30 30" fill="none" xmlns="http://www.w3.org/2000/svg">
<circle cx="14" cy="14.2" r="10" fill="white"/>
<g clip-path="url(#clip0_7288_170597)">
<path d="M13.0039 4.23836C9.4492 4.60555 6.33592 6.83992 4.8867 10.0665C4.50389 10.9141 4.27342 11.6798 4.11326 12.6095C3.99217 13.297 3.96483 14.7266 4.05858 15.4454C4.35545 17.793 5.35155 19.8165 7.0117 21.4493C7.76951 22.1915 8.60936 22.7891 9.56639 23.2579C10.7226 23.8282 11.1328 23.918 11.3945 23.6524L11.5195 23.5313L11.5312 22.547L11.543 21.5665L11.3359 21.5977C10.5976 21.7032 10.0117 21.6798 9.55076 21.5235C9.16405 21.3946 8.9453 21.254 8.64451 20.9571C8.4453 20.7579 8.34764 20.6212 8.22264 20.3477C8.12889 20.1524 8.01951 19.922 7.97655 19.8282C7.78123 19.4141 7.48045 19.0548 7.09764 18.7774C6.85545 18.6055 6.65623 18.4024 6.65623 18.3321C6.65623 18.2462 6.9453 18.172 7.17967 18.1954C7.69139 18.2501 8.24608 18.6446 8.62108 19.2305C8.97264 19.7696 9.30076 20.0509 9.78514 20.2149C10.1406 20.3321 10.832 20.3048 11.2695 20.1524L11.5703 20.0509L11.5976 19.8673C11.6562 19.4845 11.8437 19.0899 12.0976 18.8165C12.164 18.7462 12.2109 18.6837 12.1992 18.6759C12.1914 18.668 11.9805 18.629 11.7344 18.5938C10.4531 18.3985 9.56248 18.004 8.8828 17.3204C8.14061 16.5821 7.77733 15.6641 7.66795 14.2618C7.57811 13.0665 7.84373 12.0704 8.45701 11.3087C8.67576 11.0352 8.67576 11.047 8.55076 10.6016C8.5117 10.461 8.48826 10.2149 8.48826 9.89851C8.48436 9.39851 8.53123 9.11336 8.69139 8.61726L8.77342 8.37508H8.97264C9.52733 8.37508 10.3711 8.71101 11.2734 9.28523L11.4844 9.42195L11.7187 9.36726C13.2305 9.00789 14.7344 9.00398 16.2031 9.35164L16.5156 9.42586L16.7695 9.2657C17.6406 8.71101 18.4883 8.37898 19.0273 8.37508H19.2265L19.3086 8.61726C19.5508 9.35164 19.5898 10.0352 19.4336 10.6837L19.3398 11.0548L19.5429 11.3048C20.1562 12.0704 20.4219 13.0587 20.332 14.2618C20.2304 15.629 19.8867 16.5235 19.1719 17.2774C18.5351 17.9571 17.5664 18.3907 16.2461 18.5899C16.0117 18.629 15.8086 18.6641 15.8008 18.672C15.793 18.6798 15.8594 18.7657 15.9453 18.8634C16.1133 19.0509 16.2539 19.3282 16.3672 19.668C16.4258 19.8516 16.4375 20.1055 16.457 21.7032L16.4805 23.5313L16.6055 23.6524C16.707 23.754 16.7695 23.7813 16.9375 23.797C17.1133 23.8087 17.2109 23.7852 17.5937 23.6368C20.0039 22.7032 21.9883 20.8438 23.0703 18.5118C23.5234 17.5391 23.8008 16.5665 23.9414 15.4454C24.0351 14.7266 24.0078 13.297 23.8867 12.6095C23.3789 9.6368 21.6758 7.1407 19.1172 5.60164C17.8554 4.84383 16.4687 4.3868 14.9414 4.23445C14.4805 4.18758 13.4648 4.19148 13.0039 4.23836Z" fill="#211F1F"/>
</g>
<g clip-path="url(#clip1_7288_170597)">
<path d="M19.8402 18.271C20.7755 17.6461 21.8751 17.3125 23 17.3125C24.5075 17.3154 25.9525 17.9155 27.0185 18.9815C28.0845 20.0475 28.6846 21.4925 28.6875 23C28.6875 24.1249 28.3539 25.2245 27.729 26.1598C27.104 27.0951 26.2158 27.8241 25.1765 28.2546C24.1373 28.685 22.9937 28.7977 21.8904 28.5782C20.7872 28.3588 19.7737 27.8171 18.9783 27.0217C18.1829 26.2263 17.6412 25.2128 17.4218 24.1096C17.2023 23.0063 17.315 21.8627 17.7454 20.8235C18.1759 19.7842 18.9049 18.896 19.8402 18.271Z" fill="white"/>
<path d="M23 17.3125C21.8751 17.3125 20.7755 17.6461 19.8402 18.271C18.9049 18.896 18.1759 19.7842 17.7454 20.8235C17.315 21.8627 17.2023 23.0063 17.4218 24.1096C17.6412 25.2128 18.1829 26.2263 18.9783 27.0217C19.7737 27.8171 20.7872 28.3588 21.8904 28.5782C22.9937 28.7977 24.1373 28.685 25.1765 28.2546C26.2158 27.8241 27.104 27.0951 27.729 26.1598C28.3539 25.2245 28.6875 24.1249 28.6875 23C28.6846 21.4925 28.0845 20.0475 27.0185 18.9815C25.9525 17.9155 24.5075 17.3154 23 17.3125V17.3125ZM25.707 22.0047L22.5023 25.0672C22.4195 25.1451 22.3098 25.1882 22.1961 25.1875C22.1405 25.1883 22.0853 25.1781 22.0337 25.1574C21.982 25.1368 21.935 25.1061 21.8953 25.0672L20.293 23.5359C20.2485 23.4972 20.2124 23.4498 20.1867 23.3967C20.161 23.3436 20.1464 23.2859 20.1436 23.2269C20.1408 23.168 20.1499 23.1092 20.1705 23.0539C20.191 22.9986 20.2225 22.948 20.2631 22.9052C20.3037 22.8624 20.3525 22.8283 20.4067 22.8048C20.4608 22.7814 20.5191 22.7691 20.578 22.7688C20.637 22.7684 20.6955 22.78 20.7499 22.8028C20.8042 22.8257 20.8535 22.8592 20.8945 22.9016L22.1961 24.143L25.1055 21.3703C25.1905 21.2961 25.301 21.2576 25.4138 21.263C25.5265 21.2683 25.6329 21.317 25.7106 21.3989C25.7882 21.4809 25.8312 21.5896 25.8306 21.7025C25.8299 21.8154 25.7857 21.9237 25.707 22.0047Z" fill="#05A660"/>
</g>
<defs>
<clipPath id="clip0_7288_170597">
<rect width="20" height="20" fill="white" transform="translate(4 4)"/>
</clipPath>
<clipPath id="clip1_7288_170597">
<rect width="14" height="14" fill="white" transform="translate(16 16)"/>
</clipPath>
</defs>
</svg>
