<svg xmlns="http://www.w3.org/2000/svg" xmlns:xlink="http://www.w3.org/1999/xlink" viewBox="0,0,256,256" width="24px" height="24px" fill-rule="nonzero"><g fill="#20c997" fill-rule="nonzero" stroke="none" stroke-width="1" stroke-linecap="butt" stroke-linejoin="miter" stroke-miterlimit="10" stroke-dasharray="" stroke-dashoffset="0" font-family="none" font-weight="none" font-size="none" text-anchor="none" style="mix-blend-mode: normal"><g transform="scale(10.66667,10.66667)"><path d="M5,2c-1.64545,0 -3,1.35455 -3,3v14c0,1.64545 1.35455,3 3,3h14c1.64545,0 3,-1.35455 3,-3v-8h-2v8c0,0.55455 -0.44545,1 -1,1h-14c-0.55455,0 -1,-0.44545 -1,-1v-14c0,-0.55455 0.44545,-1 1,-1h9v-2zM20.47266,3.91406l-9.29297,9.85156l-3.67188,-3.67187l-1.41406,1.41406l5.12695,5.12695l10.70703,-11.34766z"></path></g></g></svg>