<svg width="24" height="24" viewBox="0 0 24 24" fill="none" xmlns="http://www.w3.org/2000/svg">
<path d="M12.0411 11.0143C11.8734 11.0146 11.7126 11.0814 11.594 11.1999C11.4755 11.3186 11.4088 11.4793 11.4087 11.6471V12.3534V12.3532C11.4088 12.521 11.4755 12.6817 11.594 12.8004C11.7126 12.9189 11.8734 12.9858 12.0411 12.986C12.0569 12.985 12.0716 12.9938 12.0783 13.0081C12.139 13.2021 12.2172 13.3902 12.3116 13.5701C12.3178 13.5854 12.3135 13.6028 12.3012 13.6136C12.1828 13.7323 12.1162 13.8931 12.1162 14.061C12.1162 14.2286 12.1828 14.3895 12.3012 14.5081L12.8007 15.0077C12.9194 15.1262 13.0804 15.1926 13.2482 15.1926C13.4159 15.1926 13.5769 15.1262 13.6957 15.0077C13.7065 14.9959 13.7235 14.9919 13.7385 14.9975C13.9185 15.0922 14.1067 15.1704 14.3007 15.2312C14.3151 15.2378 14.3239 15.2526 14.3228 15.2684C14.3232 15.436 14.3901 15.5966 14.5087 15.715C14.6272 15.8335 14.788 15.9 14.9556 15.9002H15.6619H15.6617C15.8295 15.9 15.9902 15.8333 16.1089 15.7148C16.2274 15.5963 16.2943 15.4354 16.2945 15.2678C16.2935 15.252 16.3023 15.2372 16.3166 15.2305C16.5106 15.1699 16.6987 15.0917 16.8786 14.9972C16.8939 14.9913 16.9112 14.9955 16.9221 15.0077C17.0408 15.1261 17.2016 15.1926 17.3695 15.1926C17.5371 15.1926 17.698 15.1261 17.8166 15.0077L18.3162 14.5081C18.4347 14.3895 18.5011 14.2285 18.5011 14.0607C18.5011 13.893 18.4347 13.732 18.3162 13.6132C18.3041 13.6024 18.3003 13.5851 18.3063 13.5701C18.4022 13.3877 18.4811 13.197 18.5417 13.0001C18.5439 12.9929 18.5555 12.9854 18.5768 12.9854H18.577C18.7444 12.985 18.9049 12.9183 19.0233 12.7997C19.1417 12.6813 19.2084 12.5208 19.2087 12.3532V11.6471C19.2086 11.4793 19.1419 11.3186 19.0233 11.2C18.9048 11.0814 18.744 11.0146 18.5763 11.0143C18.5605 11.0154 18.5458 11.0066 18.5391 10.9922C18.4784 10.7983 18.4002 10.6101 18.3058 10.4303C18.2996 10.415 18.3039 10.3976 18.3162 10.3867C18.4346 10.2681 18.5012 10.1072 18.5012 9.9394C18.5012 9.77172 18.4346 9.61088 18.3162 9.49221L17.8167 8.99267C17.698 8.87415 17.537 8.80758 17.3692 8.80758C17.2015 8.80758 17.0405 8.87415 16.9217 8.99267C16.9112 9.00486 16.8939 9.00888 16.8789 9.00285C16.6989 8.90816 16.5107 8.82995 16.3167 8.76914C16.3023 8.76258 16.2935 8.74772 16.2946 8.73191C16.2942 8.56437 16.2273 8.40379 16.1087 8.28541C15.9902 8.16689 15.8294 8.10032 15.6618 8.10019H14.9557C14.7868 8.10072 14.6251 8.16849 14.5064 8.28849C14.3877 8.40863 14.3217 8.57095 14.3229 8.73983C14.3238 8.75108 14.3182 8.76179 14.3086 8.76769C14.1117 8.82849 13.9208 8.90724 13.7386 9.00313C13.7233 9.00943 13.7057 9.00514 13.695 8.99269C13.5764 8.8743 13.4154 8.80773 13.2477 8.80773C13.08 8.80773 12.9192 8.8743 12.8004 8.99269L12.3012 9.49223C12.1827 9.61089 12.1163 9.77187 12.1163 9.93969C12.1163 10.1074 12.1827 10.2684 12.3012 10.3872C12.3131 10.398 12.3171 10.415 12.3114 10.43C12.2167 10.61 12.1385 10.7982 12.0777 10.9922C12.0711 11.0063 12.0567 11.0151 12.0411 11.0143L12.0411 11.0143ZM12.6513 11.1709V11.171C12.7011 11.0116 12.7653 10.8571 12.8429 10.7092C12.906 10.5887 12.9286 10.451 12.9076 10.3165C12.8865 10.1821 12.8227 10.0581 12.7257 9.96258C12.7129 9.94986 12.7129 9.9291 12.7257 9.91638L13.2253 9.41683H13.2252C13.2381 9.40424 13.2588 9.40424 13.2716 9.41683C13.3671 9.5138 13.4911 9.57741 13.6256 9.59857C13.7599 9.6196 13.8976 9.59697 14.0181 9.53389C14.1679 9.45514 14.3244 9.39032 14.4861 9.34009C14.6148 9.29951 14.7269 9.21822 14.8056 9.10867C14.8845 8.99911 14.9256 8.86692 14.9232 8.73193C14.9236 8.71439 14.9379 8.70033 14.9556 8.70019H15.6618H15.6617C15.6796 8.70019 15.6942 8.71466 15.6945 8.7326C15.6933 8.86841 15.7358 9.001 15.8156 9.11081C15.8954 9.22063 16.0083 9.30193 16.1378 9.34277C16.2972 9.39259 16.4517 9.45675 16.5996 9.53442C16.7201 9.5975 16.8578 9.62 16.9923 9.59898C17.1266 9.57782 17.2508 9.51406 17.3462 9.41723C17.359 9.40438 17.3797 9.40438 17.3925 9.41723L17.892 9.91678V9.91664C17.9047 9.9295 17.9047 9.95026 17.892 9.96312C17.7948 10.0586 17.7309 10.1828 17.7099 10.3172C17.6887 10.4518 17.7115 10.5895 17.7747 10.7102C17.8522 10.8579 17.9162 11.0123 17.9661 11.1716C18.0069 11.3011 18.0882 11.4141 18.198 11.4939C18.3078 11.5737 18.4404 11.6162 18.5762 11.615C18.5942 11.6151 18.6086 11.6297 18.6086 11.6477V12.3539C18.6086 12.3718 18.5939 12.3866 18.569 12.3866C18.4353 12.3855 18.3049 12.4275 18.1968 12.5063C18.0889 12.585 18.0089 12.6963 17.969 12.824C17.9191 12.9855 17.8542 13.142 17.7756 13.2917C17.7125 13.4123 17.6898 13.55 17.7109 13.6843C17.7321 13.8188 17.7958 13.943 17.8928 14.0384C17.9055 14.0512 17.9055 14.0718 17.8928 14.0846L17.3933 14.5842L17.3934 14.5841C17.3872 14.5902 17.3788 14.5938 17.3701 14.5938C17.3614 14.5938 17.353 14.5902 17.3469 14.5841C17.2514 14.4866 17.127 14.4224 16.9923 14.4012C16.8575 14.3799 16.7195 14.4027 16.5987 14.4662C16.451 14.5437 16.2965 14.6078 16.1373 14.6576C16.0078 14.6984 15.8947 14.7797 15.8149 14.8895C15.7351 14.9994 15.6926 15.132 15.6939 15.2677C15.6937 15.2857 15.6791 15.3002 15.6612 15.3002H14.9556C14.9377 15.3002 14.9231 15.2857 14.9228 15.2677C14.924 15.1319 14.8816 14.9994 14.8018 14.8895C14.7219 14.7797 14.609 14.6984 14.4795 14.6576C14.3202 14.6078 14.1656 14.5436 14.0177 14.4659C13.9275 14.4183 13.8268 14.3933 13.7247 14.3932C13.5542 14.3937 13.3911 14.462 13.2711 14.5831C13.2584 14.596 13.2376 14.596 13.2249 14.5831L12.7254 14.0836V14.0837C12.7126 14.0709 12.7126 14.0501 12.7254 14.0372C12.8226 13.9417 12.8865 13.8176 12.9075 13.6831C12.9287 13.5485 12.9059 13.4109 12.8427 13.2902C12.7651 13.1425 12.7011 12.988 12.6513 12.8288C12.6104 12.6993 12.5291 12.5863 12.4193 12.5064C12.3095 12.4266 12.1769 12.3842 12.0411 12.3854C12.0234 12.3852 12.009 12.371 12.0087 12.3532V11.6471C12.0087 11.6292 12.0232 11.6146 12.0411 11.6143C12.1769 11.6155 12.3095 11.5731 12.4193 11.4933C12.5291 11.4134 12.6104 11.3005 12.6513 11.171L12.6513 11.1709Z" fill="#c72c71"/>
<path d="M15.3085 14.1C15.8655 14.1 16.3996 13.8788 16.7934 13.4849C17.1872 13.0912 17.4085 12.5571 17.4085 12C17.4085 11.443 17.1872 10.9089 16.7934 10.5152C16.3996 10.1213 15.8655 9.90004 15.3085 9.90004C14.7515 9.90004 14.2174 10.1213 13.8236 10.5152C13.4297 10.9089 13.2085 11.443 13.2085 12C13.2092 12.5568 13.4306 13.0906 13.8243 13.4842C14.2179 13.878 14.7518 14.0994 15.3085 14.1V14.1ZM15.3085 10.5C15.7063 10.5 16.0878 10.6581 16.3692 10.9393C16.6505 11.2207 16.8085 11.6023 16.8085 12C16.8085 12.3978 16.6505 12.7794 16.3692 13.0608C16.0878 13.342 15.7063 13.5 15.3085 13.5C14.9107 13.5 14.5292 13.342 14.2478 13.0608C13.9665 12.7794 13.8085 12.3978 13.8085 12C13.809 11.6024 13.9672 11.2211 14.2483 10.9399C14.5296 10.6587 14.9109 10.5006 15.3085 10.5Z" fill="#c72c71"/>
<path d="M15.3083 6.00004C14.1047 5.99588 12.928 6.35548 11.9322 7.03169C10.9364 7.70791 10.1684 8.66911 9.72827 9.78929L10.2862 10.0107V10.0108C10.7706 8.78846 11.6843 7.78478 12.8557 7.18814C14.0274 6.5915 15.3764 6.4427 16.6498 6.76988C17.9232 7.09694 19.0336 7.87735 19.7726 8.96472C20.5116 10.0521 20.8287 11.3718 20.6639 12.6761C20.4993 13.9806 19.8645 15.1802 18.8785 16.0498C17.8924 16.9195 16.623 17.3997 15.3083 17.4001C13.4975 17.3944 11.8085 16.4868 10.8046 14.9797L11.3973 15.1957L11.6028 14.632L10.1928 14.1184H10.1929C10.1041 14.086 10.0054 14.0973 9.92627 14.1487C9.84712 14.2003 9.79676 14.2861 9.7906 14.3803L9.69189 15.8769L10.2919 15.9165L10.3297 15.3465C11.1034 16.4981 12.2523 17.3458 13.5808 17.7456C14.9092 18.1454 16.3351 18.0724 17.6159 17.5392C18.8966 17.0059 19.9529 16.0454 20.6052 14.821C21.2574 13.5965 21.4653 12.184 21.1932 10.8237C20.9212 9.46334 20.1861 8.23924 19.1132 7.35978C18.0403 6.48028 16.6958 5.99987 15.3085 6.00014L15.3083 6.00004Z" fill="#c72c71"/>
<path d="M6.60869 14.7C6.60869 14.8159 6.67552 14.9214 6.78025 14.9711C6.88499 15.0207 7.00887 15.0057 7.0986 14.9323L10.3986 12.2323C10.4682 12.1752 10.5087 12.09 10.5087 12C10.5087 11.91 10.4682 11.8249 10.3986 11.7678L7.0986 9.0678C7.00887 8.99441 6.88499 8.97941 6.78025 9.02896C6.67552 9.07865 6.60869 9.18419 6.60869 9.30003V10.2H3.90869V10.8H6.90869C6.98824 10.8 7.06459 10.7684 7.12083 10.7122C7.17708 10.6559 7.20869 10.5796 7.20869 10.5V9.93298L9.735 12L7.20869 14.0671V13.5C7.20869 13.4205 7.17708 13.3441 7.12083 13.2879C7.06458 13.2316 6.98824 13.2 6.90869 13.2H3.90869V13.8H6.60869V14.7Z" fill="#c72c71"/>
<path d="M2.7085 10.2H3.3085V10.8H2.7085V10.2Z" fill="#c72c71"/>
<path d="M2.7085 13.2H3.3085V13.8H2.7085V13.2Z" fill="#c72c71"/>
<path d="M2.7085 11.7H3.3085V12.3H2.7085V11.7Z" fill="#c72c71"/>
</svg>
