<svg width="24" height="24" viewBox="0 0 24 24" fill="none" xmlns="http://www.w3.org/2000/svg">
<path d="M3.95459 12.3026V11.8232C4.31467 11.8232 4.56609 11.7496 4.70885 11.6026C4.85161 11.4535 4.92298 11.2074 4.92298 10.8643V9.94709C4.92298 9.62109 4.9592 9.3473 5.03165 9.12571C5.10622 8.90199 5.21915 8.72301 5.37043 8.58878C5.5217 8.45455 5.71347 8.3576 5.94571 8.29794C6.17795 8.23828 6.45175 8.20845 6.76709 8.20845V8.96591C6.51993 8.96591 6.3271 9.00213 6.18861 9.07457C6.05011 9.14702 5.95317 9.25994 5.89777 9.41335C5.8445 9.56463 5.81787 9.75852 5.81787 9.99503V11.1584C5.81787 11.3224 5.79337 11.4748 5.74436 11.6154C5.69536 11.7539 5.6048 11.8743 5.4727 11.9766C5.3406 12.0788 5.15203 12.1587 4.907 12.2163C4.66197 12.2738 4.3445 12.3026 3.95459 12.3026ZM6.76709 16.3615C6.45175 16.3615 6.17795 16.3317 5.94571 16.272C5.71347 16.2124 5.5217 16.1154 5.37043 15.9812C5.21915 15.8469 5.10622 15.668 5.03165 15.4442C4.9592 15.2227 4.92298 14.9489 4.92298 14.6229V13.7024C4.92298 13.3615 4.85161 13.1165 4.70885 12.9673C4.56609 12.8182 4.31467 12.7436 3.95459 12.7436V12.2674C4.3445 12.2674 4.66197 12.2962 4.907 12.3537C5.15203 12.4091 5.3406 12.489 5.4727 12.5934C5.6048 12.6957 5.69536 12.8171 5.74436 12.9577C5.79337 13.0962 5.81787 13.2475 5.81787 13.4116V14.5749C5.81787 14.8093 5.8445 15.0021 5.89777 15.1534C5.95317 15.3068 6.05011 15.4197 6.18861 15.4922C6.3271 15.5668 6.51993 15.604 6.76709 15.604V16.3615ZM3.95459 12.7436V11.8232H4.83989V12.7436H3.95459Z" fill="#C72C71"/>
<path d="M9 13.6714C9 13.9112 9.1279 14.1329 9.33563 14.2528C9.54335 14.3728 9.79927 14.3728 10.007 14.2528C10.2147 14.1329 10.3428 13.9112 10.3428 13.6714C10.3428 13.4315 10.2147 13.2099 10.007 13.09C9.79929 12.97 9.54336 12.97 9.33563 13.09C9.1279 13.2099 9 13.4315 9 13.6714Z" fill="#C72C71"/>
<path d="M11.3428 13.6714C11.3428 13.9112 11.4707 14.1329 11.6784 14.2528C11.8861 14.3728 12.142 14.3728 12.3498 14.2528C12.5575 14.1329 12.6855 13.9112 12.6855 13.6714C12.6855 13.4315 12.5575 13.2099 12.3498 13.09C12.1421 12.97 11.8861 12.97 11.6784 13.09C11.4707 13.2099 11.3428 13.4315 11.3428 13.6714Z" fill="#C72C71"/>
<path d="M13.6855 13.6714C13.6855 13.9112 13.8134 14.1329 14.0212 14.2528C14.2289 14.3728 14.4848 14.3728 14.6926 14.2528C14.9003 14.1329 15.0283 13.9112 15.0283 13.6714C15.0283 13.4315 14.9003 13.2099 14.6926 13.09C14.4848 12.97 14.2289 12.97 14.0212 13.09C13.8134 13.2099 13.6855 13.4315 13.6855 13.6714Z" fill="#C72C71"/>
<path d="M20.0447 12.2674V12.7436C19.6846 12.7436 19.4331 12.8182 19.2904 12.9673C19.1476 13.1165 19.0763 13.3615 19.0763 13.7024V14.6229C19.0763 14.9489 19.039 15.2227 18.9644 15.4442C18.892 15.668 18.7801 15.8469 18.6288 15.9812C18.4775 16.1154 18.2858 16.2124 18.0535 16.272C17.8213 16.3317 17.5475 16.3615 17.2322 16.3615V15.604C17.4793 15.604 17.6721 15.5668 17.8106 15.4922C17.9491 15.4197 18.045 15.3068 18.0983 15.1534C18.1537 15.0021 18.1814 14.8093 18.1814 14.5749V13.4116C18.1814 13.2475 18.2059 13.0962 18.2549 12.9577C18.3039 12.8171 18.3944 12.6957 18.5265 12.5934C18.6586 12.489 18.8472 12.4091 19.0922 12.3537C19.3373 12.2962 19.6547 12.2674 20.0447 12.2674ZM17.2322 8.20845C17.5475 8.20845 17.8213 8.23828 18.0535 8.29794C18.2858 8.3576 18.4775 8.45455 18.6288 8.58878C18.7801 8.72301 18.892 8.90199 18.9644 9.12571C19.039 9.3473 19.0763 9.62109 19.0763 9.94709V10.8643C19.0763 11.2074 19.1476 11.4535 19.2904 11.6026C19.4331 11.7496 19.6846 11.8232 20.0447 11.8232V12.3026C19.6547 12.3026 19.3373 12.2738 19.0922 12.2163C18.8472 12.1587 18.6586 12.0788 18.5265 11.9766C18.3944 11.8743 18.3039 11.7539 18.2549 11.6154C18.2059 11.4748 18.1814 11.3224 18.1814 11.1584V9.99503C18.1814 9.75852 18.1537 9.56463 18.0983 9.41335C18.045 9.25994 17.9491 9.14702 17.8106 9.07457C17.6721 9.00213 17.4793 8.96591 17.2322 8.96591V8.20845ZM20.0447 11.8232V12.7436H19.1594V11.8232H20.0447Z" fill="#C72C71"/>
</svg>
