<svg fill="current" width="20" height="20" viewBox="0 0 20 20" xmlns="http://www.w3.org/2000/svg">
<path d="M20 1V4H18V18L16 16L14 18L12 16L10 18L8 16L6 18L4 16L2 18V4H0V1H20ZM2 2H1V3H2V2ZM19 2H18V3H19V2ZM10 4C9.10998 4 8.23995 4.26392 7.49993 4.75839C6.75991 5.25285 6.18314 5.95566 5.84254 6.77792C5.50195 7.60019 5.41283 8.50499 5.58647 9.37791C5.7601 10.2508 6.18868 11.0526 6.81802 11.682C7.44736 12.3113 8.24918 12.7399 9.12209 12.9135C9.99501 13.0872 10.8998 12.9981 11.7221 12.6575C12.5443 12.3169 13.2471 11.7401 13.7416 11.0001C14.2361 10.26 14.5 9.39002 14.5 8.5C14.5 7.30653 14.0259 6.16193 13.182 5.31802C12.3381 4.47411 11.1935 4 10 4ZM11.5165 10.1581L9.5 9V6H10.5V8.41663L12.0165 9.29211L11.5165 10.1581Z"/>
</svg>
