<svg width="24" height="24" viewBox="0 0 24 24" fill="none" xmlns="http://www.w3.org/2000/svg">
<path d="M11.9674 12.9859C12.1351 12.9856 12.2959 12.9188 12.4144 12.8003C12.533 12.6816 12.5997 12.5209 12.5998 12.3531V11.647C12.5997 11.4792 12.533 11.3185 12.4144 11.1998C12.2959 11.0813 12.1351 11.0144 11.9674 11.0142C11.9516 11.0152 11.9368 11.0064 11.9302 10.9921C11.8695 10.7982 11.7913 10.61 11.6968 10.4301C11.6907 10.4148 11.695 10.3974 11.7073 10.3866C11.8257 10.2679 11.8922 10.1071 11.8922 9.93925C11.8922 9.77157 11.8257 9.61073 11.7073 9.49206L11.2078 8.99252C11.0891 8.87399 10.9281 8.80743 10.7603 8.80743C10.5926 8.80743 10.4316 8.87399 10.3128 8.99252C10.3021 9.00484 10.2847 9.00886 10.2697 9.00243C10.0873 8.90654 9.89657 8.82765 9.6997 8.76698C9.69247 8.76484 9.68497 8.75319 9.68497 8.7319V8.73176C9.68457 8.56435 9.61787 8.40377 9.49934 8.28536C9.38095 8.16697 9.22037 8.10027 9.05284 8.10001H8.34676C8.17895 8.10014 8.01823 8.16684 7.89957 8.28536C7.78105 8.40389 7.71422 8.56474 7.71394 8.73241C7.71502 8.74822 7.70618 8.76295 7.69185 8.76964C7.49792 8.83031 7.30973 8.90853 7.12987 9.00295C7.1146 9.00924 7.09719 9.00496 7.08634 8.9925C6.96768 8.87411 6.80684 8.80755 6.63902 8.80755C6.47134 8.80755 6.31049 8.87411 6.19183 8.9925L5.69229 9.49204C5.57376 9.6107 5.50733 9.77169 5.50733 9.93951C5.50733 10.1072 5.57376 10.2682 5.69229 10.387C5.70421 10.3978 5.70822 10.4148 5.70247 10.4298C5.60778 10.6098 5.52956 10.798 5.46876 10.992C5.4622 11.0064 5.44733 11.0152 5.43153 11.0141C5.26398 11.0145 5.1034 11.0814 4.98503 11.2C4.8665 11.3186 4.79994 11.4793 4.7998 11.647V12.3532V12.353C4.80034 12.5219 4.86811 12.6836 4.98811 12.8023C5.10824 12.921 5.27056 12.987 5.43945 12.9858C5.4507 12.9849 5.46141 12.9905 5.4673 13.0002C5.52811 13.197 5.60686 13.3879 5.70275 13.5702C5.70891 13.5854 5.70462 13.6028 5.6923 13.6137C5.57391 13.7323 5.50735 13.8933 5.50735 14.061C5.50735 14.2287 5.57391 14.3895 5.6923 14.5083L6.19185 15.0079V15.0077C6.31051 15.1263 6.47149 15.1928 6.63931 15.1928C6.80699 15.1928 6.96797 15.1263 7.08677 15.0077C7.09762 14.996 7.11463 14.9919 7.12963 14.9976C7.30963 15.0923 7.49779 15.1705 7.69185 15.2313C7.70618 15.238 7.71502 15.2527 7.71394 15.2685C7.71448 15.436 7.78131 15.5965 7.89997 15.7149C8.0185 15.8333 8.17921 15.8999 8.34675 15.9H9.05297H9.05283C9.22064 15.8999 9.38136 15.8332 9.50002 15.7146C9.61855 15.5961 9.68538 15.4353 9.68565 15.2676C9.68458 15.2518 9.69341 15.2371 9.70775 15.2304C9.90167 15.1697 10.0899 15.0915 10.2697 14.9971C10.285 14.9912 10.3023 14.9953 10.3132 15.0075C10.4319 15.126 10.5928 15.1926 10.7606 15.1926C10.9283 15.1926 11.0891 15.126 11.2078 15.0075L11.7073 14.508C11.8258 14.3893 11.8923 14.2283 11.8923 14.0605C11.8923 13.8928 11.8258 13.7318 11.7073 13.613C11.6954 13.6022 11.6914 13.5852 11.6971 13.5702C11.7918 13.3902 11.87 13.202 11.9308 13.008C11.9374 12.9939 11.9519 12.9851 11.9674 12.9859L11.9674 12.9859ZM11.3572 12.8293V12.8292C11.3074 12.9886 11.2432 13.1431 11.1655 13.291C11.1025 13.4115 11.0798 13.5492 11.1009 13.6837C11.122 13.8181 11.1858 13.9421 11.2827 14.0376C11.2956 14.0503 11.2956 14.0711 11.2827 14.0838L10.7832 14.5834H10.7833C10.7772 14.5895 10.7687 14.593 10.76 14.593C10.7513 14.593 10.7429 14.5895 10.7369 14.5834C10.6414 14.4861 10.5172 14.4224 10.3828 14.4012C10.2482 14.3801 10.1105 14.4028 9.9898 14.4661C9.84208 14.5436 9.68766 14.6076 9.52842 14.6574C9.39891 14.6983 9.28588 14.7796 9.20606 14.8894C9.12624 14.9992 9.08378 15.1318 9.08499 15.2676C9.08485 15.2856 9.07025 15.3 9.05231 15.3H8.34678C8.32883 15.3 8.31423 15.2856 8.31396 15.2676C8.31517 15.1318 8.27272 14.9992 8.19289 14.8894C8.11307 14.7796 8.00017 14.6983 7.87066 14.6574C7.71129 14.6076 7.55674 14.5435 7.40887 14.4658C7.3186 14.4181 7.21789 14.3932 7.11583 14.3931C6.94534 14.3936 6.78222 14.4619 6.66223 14.583C6.64951 14.5958 6.62875 14.5958 6.61603 14.583L6.11648 14.0834V14.0836C6.10376 14.0707 6.10376 14.0499 6.11648 14.0371C6.21345 13.9416 6.2772 13.8176 6.29836 13.6831C6.31939 13.5488 6.29662 13.4111 6.23354 13.2906C6.15479 13.1409 6.08997 12.9843 6.03975 12.8227C5.99916 12.694 5.91787 12.5819 5.80832 12.5031C5.69876 12.4242 5.56658 12.3831 5.43159 12.3855C5.41404 12.3851 5.39998 12.3708 5.39984 12.3531V11.647C5.39984 11.6291 5.41431 11.6145 5.43226 11.6142C5.56806 11.6154 5.70065 11.573 5.81046 11.4931C5.92028 11.4133 6.00158 11.3004 6.04242 11.1709C6.09224 11.0115 6.1564 10.857 6.23407 10.7091C6.29715 10.5886 6.31979 10.4509 6.29876 10.3164C6.2776 10.182 6.21385 10.058 6.11689 9.96248C6.10403 9.94975 6.10403 9.92899 6.11689 9.91627L6.61643 9.41673H6.61629C6.62929 9.40414 6.64991 9.40414 6.66277 9.41673C6.75826 9.51369 6.88241 9.57744 7.01687 9.59847C7.15134 9.61949 7.28901 9.59673 7.40955 9.53351C7.55727 9.45584 7.71169 9.39182 7.87093 9.34213C8.00044 9.30128 8.11347 9.21999 8.19329 9.11017C8.27311 9.00021 8.31557 8.86762 8.31436 8.73182C8.31477 8.71428 8.3291 8.70022 8.34677 8.70008H9.05299C9.07094 8.70008 9.08567 8.71482 9.08567 8.73972C9.0846 8.87338 9.12652 9.00383 9.20527 9.1119C9.28402 9.21984 9.39545 9.2998 9.52308 9.33971C9.68446 9.38966 9.84102 9.45449 9.99077 9.5331C10.1113 9.59618 10.249 9.61868 10.3834 9.59765C10.5178 9.57649 10.6419 9.51274 10.7374 9.41591C10.7501 9.40319 10.7709 9.40319 10.7836 9.41591L11.2832 9.91545V9.91532C11.2959 9.92818 11.2959 9.94894 11.2832 9.96179C11.1857 10.0574 11.1216 10.1817 11.1005 10.3166C11.0793 10.4513 11.1022 10.5893 11.1658 10.7101C11.2434 10.8578 11.3074 11.0122 11.3572 11.1715C11.3981 11.301 11.4794 11.414 11.5892 11.4938C11.699 11.5736 11.8316 11.6161 11.9674 11.6149C11.9853 11.615 11.9998 11.6296 11.9998 11.6476V12.3538C11.9998 12.3717 11.9853 12.3863 11.9674 12.3865C11.8317 12.3853 11.6991 12.4276 11.5893 12.5073C11.4795 12.587 11.3981 12.6999 11.3572 12.8292L11.3572 12.8293Z" fill="#c72c71"/>
<path d="M8.7001 9.90018C8.14309 9.90018 7.60899 10.1214 7.21522 10.5153C6.82134 10.909 6.6001 11.4431 6.6001 12.0002C6.6001 12.5572 6.82135 13.0913 7.21522 13.4851C7.60895 13.8789 8.14306 14.1002 8.7001 14.1002C9.25714 14.1002 9.79121 13.8789 10.185 13.4851C10.5789 13.0913 10.8001 12.5572 10.8001 12.0002C10.7994 11.4434 10.578 10.9096 10.1843 10.516C9.79069 10.1222 9.25683 9.90086 8.7001 9.90018V9.90018ZM8.7001 13.5002C8.30231 13.5002 7.92078 13.3421 7.63937 13.0609C7.35812 12.7795 7.2001 12.398 7.2001 12.0002C7.2001 11.6024 7.35813 11.2209 7.63937 10.9394C7.92075 10.6582 8.30231 10.5002 8.7001 10.5002C9.09788 10.5002 9.47941 10.6582 9.76083 10.9394C10.0421 11.2208 10.2001 11.6024 10.2001 12.0002C10.1996 12.3978 10.0414 12.7791 9.76028 13.0604C9.47903 13.3415 9.09774 13.4996 8.7001 13.5002V13.5002Z" fill="#c72c71"/>
<path d="M8.69987 18.0002C9.72255 18.0031 10.729 17.7434 11.6225 17.2459C12.516 16.7483 13.2668 16.0295 13.8028 15.1586L13.2928 14.8421C12.4875 16.1466 11.1658 17.0475 9.65717 17.3203C8.14859 17.5933 6.59514 17.2125 5.38379 16.273C4.17241 15.3334 3.4172 13.9234 3.30628 12.3943C3.19537 10.8652 3.73914 9.36104 4.80227 8.25632C5.86541 7.15181 7.34771 6.55075 8.87987 6.6031C10.412 6.65547 11.8499 7.35619 12.8351 8.53088L12.2162 8.40338L12.0962 8.99107L13.5662 9.29375C13.5859 9.2979 13.606 9.30005 13.6262 9.30005C13.7102 9.30031 13.7904 9.26536 13.8474 9.20375C13.9044 9.14214 13.933 9.05938 13.9262 8.97581L13.8062 7.48088L13.2083 7.52923L13.2538 8.09508V8.09495C12.377 7.07214 11.1816 6.37422 9.85997 6.11347C8.53822 5.85271 7.16734 6.04437 5.96785 6.65749C4.7684 7.27075 3.81012 8.2697 3.24735 9.4937C2.68459 10.7177 2.55012 12.0954 2.86551 13.405C3.18105 14.7147 3.92809 15.8801 4.98639 16.7136C6.04469 17.5471 7.35279 18.0002 8.69988 18L8.69987 18.0002Z" fill="#c72c71"/>
<path d="M17.8896 9.06806C17.7999 8.99467 17.676 8.97967 17.5713 9.02922C17.4665 9.07891 17.3997 9.18444 17.3997 9.30029V10.2003H14.6997V10.8003H17.6997C17.7793 10.8003 17.8556 10.7687 17.9119 10.7124C17.9681 10.6562 17.9997 10.5798 17.9997 10.5003V9.93324L20.526 12.0003L17.9997 14.0673V13.5003C17.9997 13.4207 17.9681 13.3444 17.9119 13.2881C17.8556 13.2319 17.7793 13.2003 17.6997 13.2003H14.6997V13.8003H17.3997V14.7003C17.3997 14.8161 17.4665 14.9217 17.5713 14.9714C17.676 15.0209 17.7999 15.0059 17.8896 14.9325L21.1896 12.2325C21.2593 12.1755 21.2997 12.0903 21.2997 12.0003C21.2997 11.9103 21.2593 11.8251 21.1896 11.7681L17.8896 9.06806Z" fill="#c72c71"/>
<path d="M13.5 10.2002H14.1V10.8002H13.5V10.2002Z" fill="#c72c71"/>
<path d="M13.5 13.2002H14.1V13.8002H13.5V13.2002Z" fill="#c72c71"/>
<path d="M13.5 11.7002H14.1V12.3002H13.5V11.7002Z" fill="#c72c71"/>
</svg>
