<svg fill="current" width="20" height="20" viewBox="0 0 20 20" xmlns="http://www.w3.org/2000/svg">
<path d="M12.8926 15.2723H16.7715C17.0392 15.2723 17.2563 15.0552 17.2563 14.7873V6.54504C17.2563 6.2773 17.0392 6.06021 16.7715 6.06021H12.8926V15.2723ZM13.8623 8.72684C13.8623 9.3957 14.4053 9.93901 15.0745 9.93901C15.7432 9.93901 16.2866 9.39604 16.2866 8.72684C16.2866 8.0581 15.7437 7.51478 15.0745 7.51478C14.4057 7.51478 13.8623 8.05764 13.8623 8.72684ZM13.6199 11.8763C13.6199 12.0113 13.7304 12.1209 13.8629 12.1209H16.2859C16.4202 12.1209 16.529 12.0134 16.529 11.8763V11.3959C16.529 11.2608 16.4185 11.1513 16.2859 11.1513H13.8629C13.7287 11.1513 13.6199 11.2588 13.6199 11.3959V11.8763ZM14.1048 13.5732C14.1048 13.7083 14.2146 13.8179 14.3464 13.8179H15.8025C15.936 13.8179 16.0442 13.7104 16.0442 13.5732V13.0929C16.0442 12.9577 15.9343 12.8481 15.8025 12.8481H14.3464C14.213 12.8481 14.1048 12.9556 14.1048 13.0929V13.5732ZM6.58967 5.33316C6.32192 5.33316 6.10484 5.55023 6.10484 5.81798V15.5148C6.10484 15.7826 6.32192 15.9997 6.58967 15.9997H11.4382C11.706 15.9997 11.9231 15.7826 11.9231 15.5148V5.81798C11.9231 5.55024 11.706 5.33316 11.4382 5.33316H6.58967ZM7.55933 8.2423C7.55933 9.04475 8.2109 9.69687 9.0139 9.69687C9.81635 9.69687 10.4685 9.0453 10.4685 8.2423C10.4685 7.43984 9.8169 6.78773 9.0139 6.78773C8.21144 6.78773 7.55933 7.4393 7.55933 8.2423ZM7.31692 11.8766C7.31692 12.0116 7.42595 12.1212 7.561 12.1212H10.4667C10.6015 12.1212 10.7108 12.0137 10.7108 11.8766V11.3962C10.7108 11.2611 10.6018 11.1516 10.4667 11.1516H7.561C7.42618 11.1516 7.31692 11.2591 7.31692 11.3962V11.8766ZM8.04426 13.5735C8.04426 13.7086 8.15408 13.8182 8.28589 13.8182H9.74191C9.8754 13.8182 9.98354 13.7107 9.98354 13.5735V13.0932C9.98354 12.9581 9.87372 12.8485 9.74191 12.8485H8.28589C8.1524 12.8485 8.04426 12.9559 8.04426 13.0932V13.5735ZM1.25626 6.06061C0.988514 6.06061 0.771431 6.27769 0.771431 6.54544V14.7877C0.771431 15.0556 0.988508 15.2727 1.25626 15.2727H5.13512V6.06038L1.25626 6.06061ZM1.74109 8.72724C1.74109 9.3961 2.28406 9.93941 2.95326 9.93941C3.622 9.93941 4.16543 9.39644 4.16543 8.72724C4.16543 8.0585 3.62246 7.51518 2.95326 7.51518C2.28452 7.51518 1.74109 8.05804 1.74109 8.72724ZM1.49868 11.8767C1.49868 12.0117 1.60917 12.1213 1.74176 12.1213H4.16476C4.29902 12.1213 4.40784 12.0138 4.40784 11.8767V11.3963C4.40784 11.2612 4.29734 11.1517 4.16476 11.1517H1.74176C1.60749 11.1517 1.49868 11.2592 1.49868 11.3963V11.8767ZM1.98351 13.5736C1.98351 13.7087 2.09344 13.8183 2.22524 13.8183H3.68127C3.81476 13.8183 3.9229 13.7108 3.9229 13.5736V13.0933C3.9229 12.9581 3.81308 12.8485 3.68127 12.8485H2.22524C2.09176 12.8485 1.98351 12.956 1.98351 13.0933V13.5736ZM4.65025 0.724985C4.65025 0.860143 4.76063 0.969628 4.89277 0.969628H13.1351C13.269 0.969628 13.3776 0.862151 13.3776 0.724985V0.244643C13.3776 0.109597 13.2672 0 13.1351 0H4.89277C4.75884 0 4.65025 0.107477 4.65025 0.244643V0.724985ZM6.83205 2.66438C6.83205 2.79954 6.93986 2.90903 7.07289 2.90903H10.9549C11.0879 2.90903 11.1957 2.80155 11.1957 2.66438V2.18404C11.1957 2.049 11.0879 1.9394 10.9549 1.9394H7.07289C6.93986 1.9394 6.83205 2.04688 6.83205 2.18404V2.66438Z" />
</svg>
