<svg width="20" height="20" viewBox="0 0 20 20" fill="current" xmlns="http://www.w3.org/2000/svg">
<path d="M10.4686 3.67758e-05H9.10502C8.7717 3.67758e-05 8.49902 0.272703 8.49902 0.606031V1.18182H11.0747L11.0746 0.606141C11.0746 0.272821 10.8019 0 10.4686 0L10.4686 3.67758e-05Z"/>
<path d="M8.49902 7.2395H11.0747V8.55165H8.49902V7.2395Z"/>
<path d="M9.10498 20.0001H10.4686C10.8019 20.0001 11.0746 19.7274 11.0746 19.3941L11.0747 14.6121H8.49902V19.3937C8.49902 19.727 8.77169 19.9998 9.10502 19.9998L9.10498 20.0001Z"/>
<path d="M16.3234 6.48185L17.5355 4.36365C17.5869 4.26965 17.5869 4.15452 17.5355 4.06066L16.3234 1.93944C16.2687 1.84558 16.1687 1.78809 16.0596 1.78809H6.84772C6.74466 1.78809 6.64778 1.83954 6.59316 1.92751C6.53553 2.01533 6.52949 2.12443 6.57189 2.21843L7.48403 4.21233L6.57189 6.20318C6.52949 6.29718 6.53553 6.40628 6.59316 6.4941C6.64764 6.58192 6.74466 6.63352 6.84772 6.63352H16.0596C16.1687 6.63352 16.2687 6.57588 16.3234 6.48188V6.48185ZM11.2841 3.5031H9.76903C9.6023 3.5031 9.46604 3.3667 9.46604 3.20011C9.46604 3.03036 9.60244 2.89712 9.76903 2.89712H11.2841C11.4539 2.89712 11.5871 3.0305 11.5871 3.20011C11.5871 3.36684 11.4538 3.5031 11.2841 3.5031Z"/>
<path d="M12.7324 14.0059C12.8991 14.0059 13.0354 13.8695 13.0354 13.7029C13.0354 13.6363 13.0141 13.5757 12.9777 13.5272L12.0899 11.5817L13.002 9.58781C13.0444 9.49381 13.0384 9.38472 12.9807 9.29689C12.9263 9.20907 12.8293 9.15747 12.7262 9.15747H3.5143C3.40521 9.15747 3.30517 9.21511 3.25069 9.30897L2.03859 11.4302C1.98714 11.5242 1.98714 11.6393 2.03859 11.7332L3.25069 13.8544C3.30517 13.9484 3.4052 14.0059 3.5143 14.0059H12.7262H12.7322L12.7324 14.0059ZM8.77791 10.8666H7.26279C7.09304 10.8666 6.9598 10.7302 6.9598 10.5637C6.9598 10.3939 7.09318 10.2607 7.26279 10.2607H8.77791C8.94464 10.2607 9.0809 10.394 9.0809 10.5637C9.0809 10.7302 8.9445 10.8666 8.77791 10.8666Z"/>
</svg>
