<svg width="16" height="16" viewBox="0 0 16 16" fill="none" xmlns="http://www.w3.org/2000/svg">
<path fill-rule="evenodd" clip-rule="evenodd" d="M6.10811 1.37667C6.10811 0.984726 6.42574 0.666992 6.81757 0.666992H9.18243C9.57426 0.666992 9.89189 0.984726 9.89189 1.37667V4.02613C9.89189 4.41808 9.57426 4.73581 9.18243 4.73581H8.18919V5.96592H9.18243C9.57426 5.96592 9.89189 6.28365 9.89189 6.67559V7.88205H11.2162V6.67559C11.2162 6.28365 11.5339 5.96592 11.9257 5.96592H14.2905C14.6824 5.96592 15 6.28365 15 6.67559V9.32506C15 9.717 14.6824 10.0347 14.2905 10.0347H13.2973V11.2648H14.2905C14.6824 11.2648 15 11.5826 15 11.9745V14.624C15 15.0159 14.6824 15.3337 14.2905 15.3337H11.9257C11.5339 15.3337 11.2162 15.0159 11.2162 14.624V13.6304H8C7.89551 13.6304 7.81081 13.5457 7.81081 13.4412L7.81081 10.0347H6.81757C6.42574 10.0347 6.10811 9.717 6.10811 9.32506V8.26054H4.78378V9.32506C4.78378 9.717 4.46615 10.0347 4.07432 10.0347H3.08108V11.2648H4.07432C4.46615 11.2648 4.78378 11.5826 4.78378 11.9745V14.624C4.78378 15.0159 4.46615 15.3337 4.07432 15.3337H1.70946C1.31764 15.3337 1 15.0159 1 14.624V11.9745C1 11.5826 1.31764 11.2648 1.70946 11.2648H2.7027V10.0347H1.70946C1.31764 10.0347 1 9.717 1 9.32506V6.67559C1 6.28365 1.31764 5.96592 1.70946 5.96592H4.07432C4.46615 5.96592 4.78378 6.28365 4.78378 6.67559V7.88205H6.10811V6.67559C6.10811 6.28365 6.42574 5.96592 6.81757 5.96592H7.81081V4.73581H6.81757C6.42574 4.73581 6.10811 4.41808 6.10811 4.02613V1.37667ZM8.18919 10.0347L8.18919 13.2519H11.2162V11.9745C11.2162 11.5826 11.5339 11.2648 11.9257 11.2648H12.9189V10.0347H11.9257C11.5339 10.0347 11.2162 9.717 11.2162 9.32506V8.26054H9.89189V9.32506C9.89189 9.717 9.57426 10.0347 9.18243 10.0347H8.18919ZM6.43919 1.84979H9.56081V4.02613C9.56081 4.23517 9.39141 4.40463 9.18243 4.40463H6.81757C6.6086 4.40463 6.43919 4.23517 6.43919 4.02613V1.84979ZM1.33108 7.14871H4.4527V9.32506C4.4527 9.53409 4.2833 9.70355 4.07432 9.70355H1.70946C1.50049 9.70355 1.33108 9.53409 1.33108 9.32506V7.14871ZM1.33108 12.4476H4.4527V14.624C4.4527 14.833 4.2833 15.0025 4.07432 15.0025H1.70946C1.50049 15.0025 1.33108 14.833 1.33108 14.624V12.4476ZM9.56081 7.14871H6.43919V9.32506C6.43919 9.53409 6.6086 9.70355 6.81757 9.70355H9.18243C9.39141 9.70355 9.56081 9.53409 9.56081 9.32506V7.14871ZM14.6689 7.14871H11.5473V9.32506C11.5473 9.53409 11.7167 9.70355 11.9257 9.70355H14.2905C14.4995 9.70355 14.6689 9.53409 14.6689 9.32506V7.14871ZM11.5473 12.4476H14.6689V14.624C14.6689 14.833 14.4995 15.0025 14.2905 15.0025H11.9257C11.7167 15.0025 11.5473 14.833 11.5473 14.624V12.4476Z" fill="#C72C71"/>
</svg>
