<svg width="24" height="24" viewBox="0 0 24 24" fill="none" xmlns="http://www.w3.org/2000/svg">
<path d="M5.39995 7.20028C6.18115 7.20028 6.84115 6.69682 7.08959 6.00028H14.1518L13.9759 6.17612C13.7413 6.41077 13.7413 6.78991 13.9759 7.02456C14.0928 7.14148 14.2464 7.20027 14.4001 7.20027C14.5537 7.20027 14.7073 7.14148 14.8242 7.02442L16.0242 5.82442C16.2589 5.58978 16.2589 5.21064 16.0242 4.97599L14.8242 3.77599C14.5896 3.54134 14.2104 3.54134 13.9758 3.77599C13.7411 4.01063 13.7411 4.38977 13.9758 4.62442L14.1516 4.80027H7.08979C6.84136 4.10372 6.18136 3.60027 5.40016 3.60027C4.40776 3.60027 3.60016 4.40787 3.60016 5.40027C3.60016 6.39267 4.40776 7.20027 5.40016 7.20027L5.39995 7.20028ZM5.39995 4.80028C5.73116 4.80028 5.99995 5.06907 5.99995 5.40028C5.99995 5.73148 5.73116 6.00028 5.39995 6.00028C5.06875 6.00028 4.79995 5.73148 4.79995 5.40028C4.79995 5.06907 5.06875 4.80028 5.39995 4.80028Z" fill="#c72c71"/>
<path d="M18.5999 13.2003C17.811 13.2003 17.1467 13.7139 16.9037 14.4213C16.8689 14.4147 16.8372 14.4003 16.7999 14.4003H15.8484L16.0242 14.2244C16.2589 13.9898 16.2589 13.6106 16.0242 13.376C15.7896 13.1413 15.4104 13.1413 15.1758 13.376L13.9758 14.576C13.7411 14.8106 13.7411 15.1898 13.9758 15.4244L15.1758 16.6244C15.2927 16.7415 15.4463 16.8003 15.5999 16.8003C15.7536 16.8003 15.9072 16.7415 16.0241 16.6244C16.2587 16.3898 16.2587 16.0106 16.0241 15.776L15.8484 15.6003H16.7999C16.8372 15.6003 16.8689 15.5858 16.9037 15.5792C17.1467 16.2867 17.811 16.8003 18.5999 16.8003C19.5923 16.8003 20.3999 15.9927 20.3999 15.0003C20.3999 14.0079 19.5923 13.2003 18.5999 13.2003L18.5999 13.2003ZM18.5999 15.6003C18.2687 15.6003 18 15.3315 18 15.0003C18 14.6691 18.2687 14.4003 18.5999 14.4003C18.9312 14.4003 19.1999 14.6691 19.1999 15.0003C19.1999 15.3315 18.9312 15.6003 18.5999 15.6003Z" fill="#c72c71"/>
<path d="M9 12.0003V13.2003C9 13.532 9.26826 13.8003 9.6 13.8003C9.93174 13.8003 10.2 13.532 10.2 13.2003V12.0003C10.2 11.6685 9.93174 11.4003 9.6 11.4003C9.26826 11.4003 9 11.6685 9 12.0003Z" fill="#c72c71"/>
<path d="M10.8 12.0003V13.2003C10.8 13.532 11.0682 13.8003 11.4 13.8003C11.7317 13.8003 12 13.532 12 13.2003V12.0003C12 11.6685 11.7317 11.4003 11.4 11.4003C11.0682 11.4003 10.8 11.6685 10.8 12.0003Z" fill="#c72c71"/>
<path d="M13.8 12.0003C13.8 11.6685 13.5317 11.4003 13.2 11.4003C12.8682 11.4003 12.6 11.6685 12.6 12.0003V13.2003C12.6 13.532 12.8682 13.8003 13.2 13.8003C13.5317 13.8003 13.8 13.532 13.8 13.2003V12.0003Z" fill="#c72c71"/>
<path d="M9 16.8003V18.0003C9 18.332 9.26826 18.6003 9.6 18.6003C9.93174 18.6003 10.2 18.332 10.2 18.0003V16.8003C10.2 16.4685 9.93174 16.2003 9.6 16.2003C9.26826 16.2003 9 16.4685 9 16.8003Z" fill="#c72c71"/>
<path d="M10.8 16.8003V18.0003C10.8 18.332 11.0682 18.6003 11.4 18.6003C11.7317 18.6003 12 18.332 12 18.0003V16.8003C12 16.4685 11.7317 16.2003 11.4 16.2003C11.0682 16.2003 10.8 16.4685 10.8 16.8003Z" fill="#c72c71"/>
<path d="M13.2 16.2003C12.8682 16.2003 12.6 16.4685 12.6 16.8003V18.0003C12.6 18.332 12.8682 18.6003 13.2 18.6003C13.5317 18.6003 13.8 18.332 13.8 18.0003V16.8003C13.8 16.4685 13.5317 16.2003 13.2 16.2003Z" fill="#c72c71"/>
<path d="M15 18.0003C14.6682 18.0003 14.4 18.2685 14.4 18.6003C14.4 18.9315 14.1312 19.2003 13.8 19.2003H5.39998C5.06877 19.2003 4.79998 18.9315 4.79998 18.6003V15.6003H12.6C12.9317 15.6003 13.2 15.332 13.2 15.0003C13.2 14.6685 12.9317 14.4003 12.6 14.4003H4.79998V11.4003C4.79998 11.0691 5.06877 10.8003 5.39998 10.8003H13.8C14.1312 10.8003 14.4 11.0691 14.4 11.4003C14.4 11.732 14.6682 12.0003 15 12.0003C15.3317 12.0003 15.6 11.732 15.6 11.4003C15.6 10.4079 14.7924 9.60028 13.8 9.60028H5.39998C4.40758 9.60028 3.59998 10.4079 3.59998 11.4003V18.6003C3.59998 19.5927 4.40758 20.4003 5.39998 20.4003H13.8C14.7924 20.4003 15.6 19.5927 15.6 18.6003C15.6 18.2685 15.3317 18.0003 15 18.0003Z" fill="#c72c71"/>
<path d="M19.3759 10.3762L19.2 10.5519V7.0897C19.8966 6.8414 20.4 6.1814 20.4 5.4002C20.4 4.4078 19.5924 3.6002 18.6 3.6002C17.6076 3.6002 16.8 4.4078 16.8 5.4002C16.8 6.1814 17.3035 6.8414 18 7.08984V10.552L17.8242 10.3762C17.5895 10.1415 17.2104 10.1415 16.9757 10.3762C16.7411 10.6108 16.7411 10.9899 16.9757 11.2246L18.1757 12.4246C18.2928 12.5415 18.4464 12.6003 18.6 12.6003C18.7536 12.6003 18.9072 12.5415 19.0242 12.4245L20.2242 11.2245C20.4588 10.9898 20.4588 10.6107 20.2242 10.376C19.9897 10.1415 19.6104 10.1415 19.3759 10.3762L19.3759 10.3762ZM18.6 4.80027C18.9312 4.80027 19.2 5.06907 19.2 5.40027C19.2 5.73148 18.9312 6.00027 18.6 6.00027C18.2688 6.00027 18 5.73148 18 5.40027C18 5.06907 18.2688 4.80027 18.6 4.80027Z" fill="#c72c71"/>
</svg>
