<svg width="24" height="24" viewBox="0 0 24 24" fill="none" xmlns="http://www.w3.org/2000/svg">
<path fill-rule="evenodd" clip-rule="evenodd" d="M4 2C2.89543 2 2 2.89543 2 4V20C2 21.1046 2.89543 22 4 22H20C21.1046 22 22 21.1046 22 20V4C22 2.89543 21.1046 2 20 2H4ZM8.5 6.5H3.5V10.5H8.5V6.5ZM8.5 11.5H3.5V15.5H8.5V11.5ZM3.5 16.5H8.5V20.5H3.5V16.5ZM14.5 6.5H9.5V10.5H14.5V6.5ZM9.5 11.5H14.5V15.5H9.5V11.5ZM14.5 16.5H9.5V20.5H14.5V16.5ZM15.5 6.5H20.5V10.5H15.5V6.5ZM20.5 11.5H15.5V15.5H20.5V11.5ZM15.5 16.5H20.5V20.5H15.5V16.5Z" fill="#C72C71"/>
</svg>
